{
  "asset": {
    "generator": "Khronos glTF Blender I/O v1.8.19",
    "version": "2.0"
  },
  "scene": 0,
  "scenes": [
    {
      "name": "Scene",
      "nodes": [
        0
      ]
    }
  ],
  "nodes": [
    {
      "mesh": 0,
      "name": "Cube.002",
      "scale": [
        0.007346752565354109,
        0.3383890986442566,
        0.9637720584869385
      ],
      "translation": [
        0.11686938256025314,
        0.681310772895813,
        0
      ],
      "rotation": [
        0,
        0,
        0,
        1
      ]
    }
  ],
  "materials": [
    {
      "doubleSided": true,
      "name": "metal",
      "pbrMetallicRoughness": {
        "baseColorTexture": {
          "index": 0,
          "texCoord": 0
        },
        "roughnessFactor": 0.4000000059604645,
        "baseColorFactor": [
          1,
          1,
          1,
          1
        ],
        "metallicFactor": 1
      },
      "emissiveFactor": [
        0,
        0,
        0
      ],
      "alphaMode": "OPAQUE"
    },
    {
      "doubleSided": true,
      "name": "banner",
      "pbrMetallicRoughness": {
        "baseColorFactor": [
          0.800000011920929,
          0.800000011920929,
          0.800000011920929,
          1
        ],
        "metallicFactor": 0,
        "roughnessFactor": 0.5
      },
      "emissiveFactor": [
        0,
        0,
        0
      ],
      "alphaMode": "OPAQUE"
    },
    {
      "doubleSided": true,
      "name": "metalvermelho",
      "pbrMetallicRoughness": {
        "baseColorFactor": [
          0.009013471193611622,
          0,
          0.00036229309625923634,
          1
        ],
        "roughnessFactor": 0.375,
        "metallicFactor": 1
      },
      "emissiveFactor": [
        0,
        0,
        0
      ],
      "alphaMode": "OPAQUE"
    },
    {
      "doubleSided": true,
      "name": "metalfloor",
      "pbrMetallicRoughness": {
        "baseColorTexture": {
          "index": 1,
          "texCoord": 0
        },
        "metallicFactor": 0,
        "roughnessFactor": 0.5,
        "baseColorFactor": [
          1,
          1,
          1,
          1
        ]
      },
      "emissiveFactor": [
        0,
        0,
        0
      ],
      "alphaMode": "OPAQUE"
    },
    {
      "doubleSided": true,
      "name": "fio",
      "pbrMetallicRoughness": {
        "baseColorFactor": [
          0.011087660677731037,
          0.011087660677731037,
          0.011087660677731037,
          1
        ],
        "metallicFactor": 0,
        "roughnessFactor": 0.5
      },
      "emissiveFactor": [
        0,
        0,
        0
      ],
      "alphaMode": "OPAQUE"
    },
    {
      "doubleSided": true,
      "name": "plastico",
      "pbrMetallicRoughness": {
        "baseColorFactor": [
          0,
          0,
          0,
          1
        ],
        "metallicFactor": 0,
        "roughnessFactor": 0.5
      },
      "emissiveFactor": [
        0,
        0,
        0
      ],
      "alphaMode": "OPAQUE"
    },
    {
      "doubleSided": true,
      "emissiveFactor": [
        1,
        1,
        1
      ],
      "name": "luz",
      "pbrMetallicRoughness": {
        "baseColorFactor": [
          0.800000011920929,
          0.800000011920929,
          0.800000011920929,
          1
        ],
        "metallicFactor": 0,
        "roughnessFactor": 0.5
      },
      "alphaMode": "OPAQUE"
    }
  ],
  "meshes": [
    {
      "name": "Cube",
      "primitives": [
        {
          "attributes": {
            "POSITION": 0,
            "NORMAL": 1,
            "TEXCOORD_0": 2
          },
          "indices": 3,
          "material": 0,
          "mode": 4
        },
        {
          "attributes": {
            "POSITION": 4,
            "NORMAL": 5,
            "TEXCOORD_0": 6
          },
          "indices": 7,
          "material": 1,
          "mode": 4
        },
        {
          "attributes": {
            "POSITION": 8,
            "NORMAL": 9,
            "TEXCOORD_0": 10
          },
          "indices": 11,
          "material": 2,
          "mode": 4
        },
        {
          "attributes": {
            "POSITION": 12,
            "NORMAL": 13,
            "TEXCOORD_0": 14
          },
          "indices": 15,
          "material": 3,
          "mode": 4
        },
        {
          "attributes": {
            "POSITION": 16,
            "NORMAL": 17,
            "TEXCOORD_0": 18
          },
          "indices": 19,
          "material": 4,
          "mode": 4
        },
        {
          "attributes": {
            "POSITION": 20,
            "NORMAL": 21,
            "TEXCOORD_0": 22
          },
          "indices": 23,
          "material": 5,
          "mode": 4
        },
        {
          "attributes": {
            "POSITION": 24,
            "NORMAL": 25,
            "TEXCOORD_0": 26
          },
          "indices": 27,
          "material": 6,
          "mode": 4
        }
      ]
    }
  ],
  "textures": [
    {
      "sampler": 0,
      "source": 0
    },
    {
      "sampler": 0,
      "source": 1
    }
  ],
  "images": [
    {
      "bufferView": 28,
      "mimeType": "image/jpeg",
      "name": "Image_0"
    },
    {
      "bufferView": 29,
      "mimeType": "image/jpeg",
      "name": "Image_2"
    }
  ],
  "accessors": [
    {
      "bufferView": 0,
      "componentType": 5126,
      "count": 60,
      "max": [
        2.418545722961426,
        1.1558681726455688,
        1.0501786470413208
      ],
      "min": [
        -2.7321763038635254,
        -1.1558681726455688,
        -1.0501786470413208
      ],
      "type": "VEC3",
      "byteOffset": 0
    },
    {
      "bufferView": 1,
      "componentType": 5126,
      "count": 60,
      "type": "VEC3",
      "byteOffset": 0
    },
    {
      "bufferView": 2,
      "componentType": 5126,
      "count": 60,
      "type": "VEC2",
      "byteOffset": 0
    },
    {
      "bufferView": 3,
      "componentType": 5123,
      "count": 126,
      "type": "SCALAR",
      "byteOffset": 0
    },
    {
      "bufferView": 4,
      "componentType": 5126,
      "count": 4,
      "max": [
        -0.7321764826774597,
        1,
        1
      ],
      "min": [
        -0.7321764826774597,
        -1,
        -1
      ],
      "type": "VEC3",
      "byteOffset": 0
    },
    {
      "bufferView": 5,
      "componentType": 5126,
      "count": 4,
      "type": "VEC3",
      "byteOffset": 0
    },
    {
      "bufferView": 6,
      "componentType": 5126,
      "count": 4,
      "type": "VEC2",
      "byteOffset": 0
    },
    {
      "bufferView": 7,
      "componentType": 5123,
      "count": 6,
      "type": "SCALAR",
      "byteOffset": 0
    },
    {
      "bufferView": 8,
      "componentType": 5126,
      "count": 2163,
      "max": [
        -2.9745635986328125,
        1.1451117992401123,
        1.0371826887130737
      ],
      "min": [
        -64.7542724609375,
        -2.1315722465515137,
        -1.1062043905258179
      ],
      "type": "VEC3",
      "byteOffset": 0
    },
    {
      "bufferView": 9,
      "componentType": 5126,
      "count": 2163,
      "type": "VEC3",
      "byteOffset": 0
    },
    {
      "bufferView": 10,
      "componentType": 5126,
      "count": 2163,
      "type": "VEC2",
      "byteOffset": 0
    },
    {
      "bufferView": 11,
      "componentType": 5123,
      "count": 8436,
      "type": "SCALAR",
      "byteOffset": 0
    },
    {
      "bufferView": 12,
      "componentType": 5126,
      "count": 12,
      "max": [
        -8.085287094116211,
        -0.5661513805389404,
        1.0632243156433105
      ],
      "min": [
        -68.68131256103516,
        -0.5795353651046753,
        -1.0632243156433105
      ],
      "type": "VEC3",
      "byteOffset": 0
    },
    {
      "bufferView": 13,
      "componentType": 5126,
      "count": 12,
      "type": "VEC3",
      "byteOffset": 0
    },
    {
      "bufferView": 14,
      "componentType": 5126,
      "count": 12,
      "type": "VEC2",
      "byteOffset": 0
    },
    {
      "bufferView": 15,
      "componentType": 5123,
      "count": 36,
      "type": "SCALAR",
      "byteOffset": 0
    },
    {
      "bufferView": 16,
      "componentType": 5126,
      "count": 481,
      "max": [
        -3.19623064994812,
        1.0557353496551514,
        1.0074162483215332
      ],
      "min": [
        -3.7891032695770264,
        -0.5442451238632202,
        -0.995141863822937
      ],
      "type": "VEC3",
      "byteOffset": 0
    },
    {
      "bufferView": 17,
      "componentType": 5126,
      "count": 481,
      "type": "VEC3",
      "byteOffset": 0
    },
    {
      "bufferView": 18,
      "componentType": 5126,
      "count": 481,
      "type": "VEC2",
      "byteOffset": 0
    },
    {
      "bufferView": 19,
      "componentType": 5123,
      "count": 2592,
      "type": "SCALAR",
      "byteOffset": 0
    },
    {
      "bufferView": 20,
      "componentType": 5126,
      "count": 168,
      "max": [
        15.825359344482422,
        -0.9349254965782166,
        1.01716148853302
      ],
      "min": [
        2.08078670501709,
        -1.15195894241333,
        -1.0165293216705322
      ],
      "type": "VEC3",
      "byteOffset": 0
    },
    {
      "bufferView": 21,
      "componentType": 5126,
      "count": 168,
      "type": "VEC3",
      "byteOffset": 0
    },
    {
      "bufferView": 22,
      "componentType": 5126,
      "count": 168,
      "type": "VEC2",
      "byteOffset": 0
    },
    {
      "bufferView": 23,
      "componentType": 5123,
      "count": 666,
      "type": "SCALAR",
      "byteOffset": 0
    },
    {
      "bufferView": 24,
      "componentType": 5126,
      "count": 12,
      "max": [
        13.017919540405273,
        -0.9541704654693604,
        0.966034471988678
      ],
      "min": [
        7.536947250366211,
        -1.0731675624847412,
        -0.9598546624183655
      ],
      "type": "VEC3",
      "byteOffset": 0
    },
    {
      "bufferView": 25,
      "componentType": 5126,
      "count": 12,
      "type": "VEC3",
      "byteOffset": 0
    },
    {
      "bufferView": 26,
      "componentType": 5126,
      "count": 12,
      "type": "VEC2",
      "byteOffset": 0
    },
    {
      "bufferView": 27,
      "componentType": 5123,
      "count": 18,
      "type": "SCALAR",
      "byteOffset": 0
    }
  ],
  "bufferViews": [
    {
      "buffer": 0,
      "byteLength": 720,
      "byteOffset": 0,
      "byteStride": 12,
      "target": 34962
    },
    {
      "buffer": 0,
      "byteLength": 720,
      "byteOffset": 720,
      "byteStride": 12,
      "target": 34962
    },
    {
      "buffer": 0,
      "byteLength": 480,
      "byteOffset": 1440,
      "byteStride": 8,
      "target": 34962
    },
    {
      "buffer": 0,
      "byteLength": 252,
      "byteOffset": 1920,
      "target": 34963
    },
    {
      "buffer": 0,
      "byteLength": 48,
      "byteOffset": 2176,
      "byteStride": 12,
      "target": 34962
    },
    {
      "buffer": 0,
      "byteLength": 48,
      "byteOffset": 2224,
      "byteStride": 12,
      "target": 34962
    },
    {
      "buffer": 0,
      "byteLength": 32,
      "byteOffset": 2272,
      "byteStride": 8,
      "target": 34962
    },
    {
      "buffer": 0,
      "byteLength": 12,
      "byteOffset": 2304,
      "target": 34963
    },
    {
      "buffer": 0,
      "byteLength": 25956,
      "byteOffset": 2320,
      "byteStride": 12,
      "target": 34962
    },
    {
      "buffer": 0,
      "byteLength": 25956,
      "byteOffset": 28280,
      "byteStride": 12,
      "target": 34962
    },
    {
      "buffer": 0,
      "byteLength": 17304,
      "byteOffset": 54240,
      "byteStride": 8,
      "target": 34962
    },
    {
      "buffer": 0,
      "byteLength": 16872,
      "byteOffset": 71544,
      "target": 34963
    },
    {
      "buffer": 0,
      "byteLength": 144,
      "byteOffset": 88416,
      "byteStride": 12,
      "target": 34962
    },
    {
      "buffer": 0,
      "byteLength": 144,
      "byteOffset": 88560,
      "byteStride": 12,
      "target": 34962
    },
    {
      "buffer": 0,
      "byteLength": 96,
      "byteOffset": 88704,
      "byteStride": 8,
      "target": 34962
    },
    {
      "buffer": 0,
      "byteLength": 72,
      "byteOffset": 88800,
      "target": 34963
    },
    {
      "buffer": 0,
      "byteLength": 5772,
      "byteOffset": 88872,
      "byteStride": 12,
      "target": 34962
    },
    {
      "buffer": 0,
      "byteLength": 5772,
      "byteOffset": 94648,
      "byteStride": 12,
      "target": 34962
    },
    {
      "buffer": 0,
      "byteLength": 3848,
      "byteOffset": 100424,
      "byteStride": 8,
      "target": 34962
    },
    {
      "buffer": 0,
      "byteLength": 5184,
      "byteOffset": 104272,
      "target": 34963
    },
    {
      "buffer": 0,
      "byteLength": 2016,
      "byteOffset": 109456,
      "byteStride": 12,
      "target": 34962
    },
    {
      "buffer": 0,
      "byteLength": 2016,
      "byteOffset": 111472,
      "byteStride": 12,
      "target": 34962
    },
    {
      "buffer": 0,
      "byteLength": 1344,
      "byteOffset": 113488,
      "byteStride": 8,
      "target": 34962
    },
    {
      "buffer": 0,
      "byteLength": 1332,
      "byteOffset": 114832,
      "target": 34963
    },
    {
      "buffer": 0,
      "byteLength": 144,
      "byteOffset": 116168,
      "byteStride": 12,
      "target": 34962
    },
    {
      "buffer": 0,
      "byteLength": 144,
      "byteOffset": 116312,
      "byteStride": 12,
      "target": 34962
    },
    {
      "buffer": 0,
      "byteLength": 96,
      "byteOffset": 116456,
      "byteStride": 8,
      "target": 34962
    },
    {
      "buffer": 0,
      "byteLength": 36,
      "byteOffset": 116552,
      "target": 34963
    },
    {
      "buffer": 0,
      "byteOffset": 116592,
      "byteLength": 211959
    },
    {
      "buffer": 0,
      "byteOffset": 328552,
      "byteLength": 13969
    }
  ],
  "samplers": [
    {
      "magFilter": 9729,
      "minFilter": 9987,
      "wrapS": 10497,
      "wrapT": 10497
    }
  ],
  "buffers": [
    {
      "name": "Billboard",
      "byteLength": 342528,
      "uri": "data:application/octet-stream;base64,"
    }
  ]
}
