{
  "asset": {
    "generator": "glTF-Transform v4.1.1",
    "version": "2.0"
  },
  "accessors": [
    {
      "name": "position - path2030-3",
      "type": "VEC3",
      "componentType": 5126,
      "count": 3548,
      "max": [
        0.7154699563980103,
        0.126033216714859,
        0.4901530146598816
      ],
      "min": [
        -0.6668994426727295,
        -0.08061311393976212,
        -0.5984544157981873
      ],
      "bufferView": 0,
      "byteOffset": 0
    },
    {
      "name": "normal - path2030-3",
      "type": "VEC3",
      "componentType": 5126,
      "count": 3548,
      "bufferView": 0,
      "byteOffset": 12
    },
    {
      "name": "indices - path2030-3",
      "type": "SCALAR",
      "componentType": 5125,
      "count": 21012,
      "bufferView": 1,
      "byteOffset": 0
    },
    {
      "name": "indices - NurbsPath",
      "type": "SCALAR",
      "componentType": 5125,
      "count": 634752,
      "bufferView": 1,
      "byteOffset": 84048
    },
    {
      "name": "indices - Cylinder",
      "type": "SCALAR",
      "componentType": 5125,
      "count": 52224,
      "bufferView": 1,
      "byteOffset": 2623056
    },
    {
      "name": "indices - Cube.001",
      "type": "SCALAR",
      "componentType": 5125,
      "count": 6528,
      "bufferView": 1,
      "byteOffset": 2831952
    },
    {
      "name": "indices - Cube",
      "type": "SCALAR",
      "componentType": 5125,
      "count": 8448,
      "bufferView": 1,
      "byteOffset": 2858064
    },
    {
      "name": "indices - Cube.002",
      "type": "SCALAR",
      "componentType": 5125,
      "count": 198528,
      "bufferView": 1,
      "byteOffset": 2891856
    },
    {
      "name": "indices - Cube.003",
      "type": "SCALAR",
      "componentType": 5125,
      "count": 297792,
      "bufferView": 1,
      "byteOffset": 3685968
    },
    {
      "name": "position - NurbsPath",
      "type": "VEC3",
      "componentType": 5126,
      "count": 112347,
      "max": [
        8.292068481445312,
        7.894050598144531,
        8.257935523986816
      ],
      "min": [
        -1.3137474060058594,
        -5.797641754150391,
        -8.14165210723877
      ],
      "bufferView": 2,
      "byteOffset": 0
    },
    {
      "name": "normal - NurbsPath",
      "type": "VEC3",
      "componentType": 5126,
      "count": 112347,
      "bufferView": 2,
      "byteOffset": 12
    },
    {
      "name": "position - Cylinder",
      "type": "VEC3",
      "componentType": 5126,
      "count": 11332,
      "max": [
        9.402000427246094,
        0.6504963636398315,
        8.98556900024414
      ],
      "min": [
        -0.9935970902442932,
        -1.0000015497207642,
        -0.9935952425003052
      ],
      "bufferView": 3,
      "byteOffset": 0
    },
    {
      "name": "normal - Cylinder",
      "type": "VEC3",
      "componentType": 5126,
      "count": 11332,
      "bufferView": 3,
      "byteOffset": 12
    },
    {
      "name": "position - Cube.001",
      "type": "VEC3",
      "componentType": 5126,
      "count": 1518,
      "max": [
        0.6955692172050476,
        0.6955692172050476,
        0.24456572532653809
      ],
      "min": [
        -0.6955692172050476,
        -0.6955692172050476,
        -0.24474531412124634
      ],
      "bufferView": 4,
      "byteOffset": 0
    },
    {
      "name": "normal - Cube.001",
      "type": "VEC3",
      "componentType": 5126,
      "count": 1518,
      "bufferView": 4,
      "byteOffset": 12
    },
    {
      "name": "position - Cube",
      "type": "VEC3",
      "componentType": 5126,
      "count": 2120,
      "max": [
        0.997384250164032,
        1.3814387321472168,
        0.26912158727645874
      ],
      "min": [
        -0.9975023865699768,
        -1.3814387321472168,
        -0.2626681923866272
      ],
      "bufferView": 5,
      "byteOffset": 0
    },
    {
      "name": "normal - Cube",
      "type": "VEC3",
      "componentType": 5126,
      "count": 2120,
      "bufferView": 5,
      "byteOffset": 12
    },
    {
      "name": "position - Cube.002",
      "type": "VEC3",
      "componentType": 5126,
      "count": 43188,
      "max": [
        2.1180953979492188,
        3.6653618812561035,
        0.463972806930542
      ],
      "min": [
        -2.118105888366699,
        -5.991100788116455,
        -1.3286290168762207
      ],
      "bufferView": 6,
      "byteOffset": 0
    },
    {
      "name": "normal - Cube.002",
      "type": "VEC3",
      "componentType": 5126,
      "count": 43188,
      "bufferView": 6,
      "byteOffset": 12
    },
    {
      "name": "position - Cube.003",
      "type": "VEC3",
      "componentType": 5126,
      "count": 64782,
      "max": [
        4.478470802307129,
        3.6653616428375244,
        0.46197259426116943
      ],
      "min": [
        -2.118105888366699,
        -3.6653616428375244,
        -1.3286290168762207
      ],
      "bufferView": 7,
      "byteOffset": 0
    },
    {
      "name": "normal - Cube.003",
      "type": "VEC3",
      "componentType": 5126,
      "count": 64782,
      "bufferView": 7,
      "byteOffset": 12
    }
  ],
  "bufferViews": [
    {
      "buffer": 0,
      "byteOffset": 0,
      "byteLength": 85152,
      "byteStride": 24,
      "target": 34962
    },
    {
      "buffer": 0,
      "byteOffset": 85152,
      "byteLength": 4877136,
      "target": 34963
    },
    {
      "buffer": 0,
      "byteOffset": 4962288,
      "byteLength": 2696328,
      "byteStride": 24,
      "target": 34962
    },
    {
      "buffer": 0,
      "byteOffset": 7658616,
      "byteLength": 271968,
      "byteStride": 24,
      "target": 34962
    },
    {
      "buffer": 0,
      "byteOffset": 7930584,
      "byteLength": 36432,
      "byteStride": 24,
      "target": 34962
    },
    {
      "buffer": 0,
      "byteOffset": 7967016,
      "byteLength": 50880,
      "byteStride": 24,
      "target": 34962
    },
    {
      "buffer": 0,
      "byteOffset": 8017896,
      "byteLength": 1036512,
      "byteStride": 24,
      "target": 34962
    },
    {
      "buffer": 0,
      "byteOffset": 9054408,
      "byteLength": 1554768,
      "byteStride": 24,
      "target": 34962
    }
  ],
  "buffers": [
    {
      "uri": "ai.bin",
      "byteLength": 10609176
    }
  ],
  "materials": [
    {
      "name": "Material.004",
      "doubleSided": true,
      "pbrMetallicRoughness": {
        "baseColorFactor": [
          0.8980392156862745,
          0.6666666666666666,
          0.9647058823529412,
          1
        ],
        "roughnessFactor": 0.550000011920929,
        "metallicFactor": 0
      }
    },
    {
      "name": "Material.005",
      "doubleSided": true,
      "pbrMetallicRoughness": {
        "baseColorFactor": [
        1, 0.5, 0, 1
        ],
        "roughnessFactor": 0.550000011920929,
        "metallicFactor": 0
      }
    },
    {
      "name": "Material.001",
      "doubleSided": true,
      "pbrMetallicRoughness": {
        "baseColorFactor": [
          0.4745098039215686,
          0.1607843137254902,
          0.5647058823529412,
          1
        ],
        "roughnessFactor": 0.75,
        "metallicFactor": 0
      },
      "extensions": {
        "KHR_materials_ior": {
          "ior": 1.4500000476837158
        },
        "KHR_materials_specular": {
          "specularColorFactor": [
            1.0148463381407462,
            0.9008792694384702,
            3.4069734411539296
          ]
        }
      }
    },
    {
      "name": "Material.002",
      "doubleSided": true,
      "pbrMetallicRoughness": {
        "baseColorFactor": [
          0.20784313725490197,
          0.0196078431372549,
          0.27058823529411763,
          1
        ],
        "roughnessFactor": 0.550000011920929,
        "metallicFactor": 0
      }
    },
    {
      "name": "Material.003",
      "doubleSided": true,
      "pbrMetallicRoughness": {
        "baseColorFactor": [
          0.0196078431372549,
          0.011764705882352941,
          0.023529411764705882,
          1
        ],
        "roughnessFactor": 0.4000000059604645,
        "metallicFactor": 0
      }
    }
  ],
  "meshes": [
    {
      "primitives": [
        {
          "attributes": {
            "POSITION": 0,
            "NORMAL": 1
          },
          "mode": 4,
          "material": 0,
          "indices": 2
        }
      ]
    },
    {
      "primitives": [
        {
          "attributes": {
            "POSITION": 9,
            "NORMAL": 10
          },
          "mode": 4,
          "material": 1,
          "indices": 3
        }
      ]
    },
    {
      "primitives": [
        {
          "attributes": {
            "POSITION": 11,
            "NORMAL": 12
          },
          "mode": 4,
          "material": 0,
          "indices": 4
        }
      ]
    },
    {
      "primitives": [
        {
          "attributes": {
            "POSITION": 13,
            "NORMAL": 14
          },
          "mode": 4,
          "material": 2,
          "indices": 5
        }
      ]
    },
    {
      "primitives": [
        {
          "attributes": {
            "POSITION": 15,
            "NORMAL": 16
          },
          "mode": 4,
          "material": 3,
          "indices": 6
        }
      ]
    },
    {
      "primitives": [
        {
          "attributes": {
            "POSITION": 17,
            "NORMAL": 18
          },
          "mode": 4,
          "material": 4,
          "indices": 7
        }
      ]
    },
    {
      "primitives": [
        {
          "attributes": {
            "POSITION": 19,
            "NORMAL": 20
          },
          "mode": 4,
          "material": 4,
          "indices": 8
        }
      ]
    }
  ],
  "cameras": [
    {
      "name": "IS-camera",
      "type": "perspective",
      "perspective": {
        "znear": 0.1,
        "zfar": 10000,
        "yfov": 0.8,
        "aspectRatio": 1.963302752293578
      }
    }
  ],
  "nodes": [
    {
      "name": "path2030-3",
      "translation": [
        0.6928330063819885,
        0.055582135915756226,
        -0.1504795253276825
      ],
      "rotation": [
        0.7071067811865476,
        0,
        0,
        0.7071067811865476
      ],
      "scale": [
        0.8406030535697937,
        0.8406030535697937,
        0.8406030535697937
      ],
      "mesh": 0
    },
    {
      "name": "NurbsPath",
      "translation": [
        -0.19306421279907227,
        -0.27426832914352417,
        -1.081518530845642
      ],
      "rotation": [
        1,
        0,
        0,
        0
      ],
      "scale": [
        -0.2568710148334503,
        -0.2568710148334503,
        -0.2568710148334503
      ],
      "mesh": 1
    },
    {
      "name": "Cylinder",
      "translation": [
        0.03243693709373474,
        0.7237963676452637,
        -0.39894452691078186
      ],
      "rotation": [
        0.7071067811865476,
        0,
        0,
        0.7071067811865476
      ],
      "scale": [
        0.16557031869888306,
        0.16557031869888306,
        0.16557031869888306
      ],
      "mesh": 2
    },
    {
      "name": "Cube.001",
      "translation": [
        0.7285277843475342,
        0.062365636229515076,
        -0.411866694688797
      ],
      "scale": [
        1.1120628118515015,
        1.1120628118515015,
        1.1120628118515015
      ],
      "mesh": 3
    },
    {
      "name": "Cube",
      "translation": [
        0.728527843952179,
        0.06236547231674194,
        -0.6958173513412476
      ],
      "scale": [
        1.06914484500885,
        1.06914484500885,
        1.06914484500885
      ],
      "mesh": 4,
      "children": [
        5,
        6
      ]
    },
    {
      "name": "Cube.002",
      "translation": [
        0,
        0.3839361071586609,
        0.0035470447037369013
      ],
      "scale": [
        0.33575862646102905,
        0.33575862646102905,
        0.33575862646102905
      ],
      "mesh": 5
    },
    {
      "name": "Cube.003",
      "translation": [
        0,
        0.396950900554657,
        0.0035470447037369013
      ],
      "rotation": [
        0,
        0,
        -0.7071066023725875,
        0.7071069600004624
      ],
      "scale": [
        0.33575862646102905,
        0.33575862646102905,
        0.33575862646102905
      ],
      "mesh": 6
    },
    {
      "name": "IS-hemispheric-light"
    },
    {
      "name": "IS-camera",
      "translation": [
        -2.466893434524536,
        0.01255307998508215,
        -5.269199371337891
      ],
      "rotation": [
        -2.9716674262169046e-17,
        -0.2502008965063998,
        7.679390073340552e-18,
        -0.9681939405764264
      ],
      "camera": 0
    }
  ],
  "scenes": [
    {
      "nodes": [
        0,
        1,
        2,
        3,
        4,
        7,
        8
      ]
    }
  ],
  "scene": 0,
  "extensionsUsed": [
    "KHR_materials_ior",
    "KHR_materials_specular"
  ]
}