<?xml version="1.0" encoding="UTF-8"?>
<svg id="Layer_1" data-name="Layer 1" xmlns="http://www.w3.org/2000/svg" viewBox="0 0 468.85 470.01">
  <defs>
    <style>
      .cls-1 {
        fill: none;
      }

      .cls-1, .cls-2, .cls-3, .cls-4, .cls-5 {
        stroke-width: 0px;
      }

      .cls-2 {
        fill: #f9c3d2;
      }

      .cls-3 {
        fill: #231f20;
      }

      .cls-4 {
        fill: #d8d6ec;
      }

      .cls-5 {
        fill: #eeb935;
      }
    </style>
  </defs>
  <polygon class="cls-4" points="20.7 179.65 23.28 176.27 17.97 176.27 20.7 179.65"/>
  <path class="cls-2" d="m15.92,442.98c.92,0,1.67-.75,1.67-1.67s-.75-1.67-1.67-1.67-1.67.75-1.67,1.67.75,1.67,1.67,1.67Z"/>
  <path class="cls-2" d="m25.42,442.98c.92,0,1.67-.75,1.67-1.67s-.75-1.67-1.67-1.67-1.67.75-1.67,1.67.75,1.67,1.67,1.67Z"/>
  <polygon class="cls-2" points="3.03 147.34 3.03 171.62 15.55 159.82 3.03 147.34"/>
  <polygon class="cls-2" points="38.15 171.62 38.15 147.34 25.63 159.82 38.15 171.62"/>
  <polygon class="cls-2" points="36.73 145.93 4.45 145.93 20.59 162.02 36.73 145.93"/>
  <path class="cls-5" d="m152.92,298.93c-6.16,0-11.17,5.01-11.17,11.17s5.01,11.17,11.17,11.17,11.17-5.01,11.17-11.17-5.01-11.17-11.17-11.17Zm7.24,7.68l-6.92,7.58c-.2.22-.47.33-.74.33-.22,0-.45-.07-.63-.23l-4.18-3.42c-.43-.35-.49-.98-.14-1.41.35-.43.98-.49,1.41-.14l3.45,2.82,6.28-6.88c.37-.41,1-.44,1.41-.07.41.37.44,1,.06,1.41Z"/>
  <polygon class="cls-4" points="3.03 6.72 3.03 31 15.55 19.2 3.03 6.72"/>
  <path class="cls-2" d="m148.51,445.5h-5.01v19.63l4.44-3.49c.18-.14.39-.21.62-.21h14.99v-15.92h-15.03Zm9.08,6.88h1.94c.55,0,1,.45,1,1s-.45,1-1,1h-1.94c-.55,0-1-.45-1-1s.45-1,1-1Zm-5.05,0h1.94c.55,0,1,.45,1,1s-.45,1-1,1h-1.94c-.55,0-1-.45-1-1s.45-1,1-1Zm-1.83,1c0,.55-.45,1-1,1h-1.94c-.55,0-1-.45-1-1s.45-1,1-1h1.94c.55,0,1,.45,1,1Z"/>
  <path class="cls-4" d="m149.51,443.5h15.03c.55,0,1,.45,1,1v10.51h5.07c.22,0,.44.07.62.21l6.75,5.31v-28.3h-28.46v11.26Z"/>
  <path class="cls-4" d="m23.93,287.14c-7.23,0-13.46,4.88-14.92,11.38,1.29-.4,2.66-.63,4.09-.63,7.22,0,13.09,5.56,13.09,12.39,0,1.96-.5,3.81-1.35,5.46,1.62-.09,3.24-.43,4.77-1,.22-.08.45-.09.65-.02l7,.9-.51-5.74c-.09-.28-.06-.59.11-.84,1.53-2.29,2.33-4.91,2.33-7.58,0-7.89-6.85-14.32-15.26-14.32Z"/>
  <path class="cls-4" d="m4.53,458.4h23.75c.22,0,.44.07.62.21l7.76,6.1v-32.07H4.53v25.75Zm20.9-20.75c2.02,0,3.67,1.64,3.67,3.67s-1.64,3.67-3.67,3.67-3.67-1.64-3.67-3.67,1.65-3.67,3.67-3.67Zm-9.5,0c2.02,0,3.67,1.64,3.67,3.67s-1.64,3.67-3.67,3.67-3.67-1.64-3.67-3.67,1.65-3.67,3.67-3.67Zm-4.54,11.79c.39-.39,1.02-.39,1.41,0,.89.89,3.72,1.95,7.2,2.18,3.71.23,6.76-.56,8.38-2.18.39-.39,1.02-.39,1.41,0s.39,1.02,0,1.41c-2.32,2.32-5.95,2.8-8.55,2.8-.5,0-.97-.02-1.38-.04-3.66-.23-7.07-1.34-8.49-2.76-.39-.39-.39-1.02,0-1.41Z"/>
  <path class="cls-2" d="m13.09,299.89c-6.12,0-11.09,4.66-11.09,10.39,0,1.94.58,3.84,1.69,5.5.18.26.21.58.12.87l-.35,3.88,4.88-.63c.09-.02.18-.04.27-.04.12,0,.23.02.35.06,1.33.5,2.72.75,4.13.75,6.12,0,11.09-4.66,11.09-10.39s-4.98-10.39-11.09-10.39Zm-3.73,11.68h-2.03c-.55,0-1-.45-1-1s.45-1,1-1h2.03c.55,0,1,.45,1,1s-.45,1-1,1Zm4.97,0h-2.03c-.55,0-1-.45-1-1s.45-1,1-1h2.03c.55,0,1,.45,1,1s-.45,1-1,1Zm5.42.12h-2.03c-.55,0-1-.45-1-1s.45-1,1-1h2.03c.55,0,1,.45,1,1s-.45,1-1,1Z"/>
  <polygon class="cls-2" points="36.73 5.31 4.45 5.31 20.59 21.4 36.73 5.31"/>
  <polygon class="cls-4" points="449.88 11.35 444.57 11.35 447.3 14.73 449.88 11.35"/>
  <path class="cls-2" d="m308.1,26.11c-.19.17-.43.26-.67.26s-.48-.09-.67-.26l-2.34-2.14-12.88,11.65h31.82l-12.84-11.71-2.41,2.2Z"/>
  <path class="cls-2" d="m307.42,147.72c-9.28,0-16.83,6.9-16.83,15.38s7.55,15.38,16.83,15.38c2.15,0,4.25-.38,6.27-1.12.22-.08.45-.08.66-.01l7.8.98-.57-6.23c-.1-.28-.07-.6.11-.86,1.68-2.45,2.57-5.26,2.57-8.13,0-8.48-7.55-15.38-16.83-15.38Zm-6.83,16.96h-3c-.55,0-1-.45-1-1s.45-1,1-1h3c.55,0,1,.45,1,1s-.45,1-1,1Zm8-.17h-3c-.55,0-1-.45-1-1s.45-1,1-1h3c.55,0,1,.45,1,1s-.45,1-1,1Zm7.33,0h-3c-.55,0-1-.45-1-1s.45-1,1-1h3c.55,0,1,.45,1,1s-.45,1-1,1Z"/>
  <polygon class="cls-2" points="324.92 34.36 324.92 10.77 311.99 22.56 324.92 34.36"/>
  <path class="cls-4" d="m321.42,11.25V2h-27.75v9.48l13.75,12.54,14-12.77Zm-17.51,4.12c-.35-.25-.5-.71-.36-1.12l.89-2.75-2.33-1.7c-.35-.25-.5-.71-.36-1.12.13-.41.52-.69.95-.69h2.89l.89-2.74c.13-.41.52-.69.95-.69s.82.28.95.69l.89,2.74h2.89c.43,0,.82.28.95.69.13.41-.01.86-.36,1.12l-2.33,1.7.89,2.75c.13.41-.01.86-.36,1.12-.18.13-.38.19-.59.19s-.41-.06-.59-.19l-2.33-1.7-2.33,1.7c-.35.26-.83.26-1.18,0Z"/>
  <polygon class="cls-2" points="289.92 10.77 289.92 34.37 302.92 22.62 289.92 10.77"/>
  <polygon class="cls-3" points="291.67 9.5 291.5 9.5 291.67 9.65 291.67 9.5"/>
  <path class="cls-2" d="m21.3,23.52c-.2.19-.45.29-.71.29s-.51-.1-.71-.29l-2.91-2.9-12.42,11.7h32.08l-12.42-11.7-2.91,2.9Z"/>
  <path class="cls-1" d="m164.44,286.55c-7.04,0-13.1,4.55-14.79,10.81,1.05-.27,2.14-.43,3.27-.43,7.26,0,13.17,5.91,13.17,13.17,0,1.79-.36,3.5-1.01,5.06,1.71-.07,3.42-.4,5.04-1.01.22-.08.45-.08.65-.02l7,.9-.51-5.74c-.09-.28-.06-.59.11-.84,1.53-2.29,2.33-4.91,2.33-7.58,0-7.89-6.85-14.32-15.26-14.32Z"/>
  <polygon class="cls-2" points="143.23 10.77 143.23 34.37 156.23 22.62 143.23 10.77"/>
  <polygon class="cls-4" points="38.15 31 38.15 6.72 25.63 19.2 38.15 31"/>
  <polygon class="cls-3" points="144.98 9.5 144.81 9.5 144.98 9.65 144.98 9.5"/>
  <path class="cls-2" d="m308.01,11.63l.43.31-.16-.51c-.13-.41.01-.86.36-1.12l.43-.32h-.54c-.43,0-.82-.28-.95-.69l-.16-.51-.17.51c-.13.41-.52.69-.95.69h-.54l.43.32c.35.25.5.71.36,1.12l-.17.51.43-.31c.17-.13.38-.19.59-.19s.41.06.59.19Z"/>
  <path class="cls-2" d="m161.4,26.11c-.19.17-.43.26-.67.26s-.48-.09-.67-.26l-2.34-2.14-12.88,11.65h31.82l-12.84-11.71-2.41,2.2Z"/>
  <path class="cls-4" d="m174.73,11.25V2h-27.75v9.48l13.75,12.54,14-12.77Zm-25.76-3.38c0-.55.45-1,1-1h20.63c.55,0,1,.45,1,1s-.45,1-1,1h-20.63c-.55,0-1-.45-1-1Z"/>
  <polygon class="cls-2" points="178.23 34.36 178.23 10.77 165.3 22.56 178.23 34.36"/>
  <path class="cls-2" d="m299.62,305.36c-1.28,0-2.31,1.04-2.31,2.31v1.27h4.62v-1.27c0-1.28-1.04-2.31-2.31-2.31Z"/>
  <path class="cls-2" d="m299.62,298.93c-6.16,0-11.17,5.01-11.17,11.17s5.01,11.17,11.17,11.17,11.17-5.01,11.17-11.17-5.01-11.17-11.17-11.17Zm5.3,15.21c0,.66-.46,1.2-1.04,1.2h-8.53c-.57,0-1.04-.54-1.04-1.2v-4c0-.66.46-1.2,1.04-1.2h.95v-1.27c0-1.83,1.49-3.31,3.31-3.31s3.31,1.49,3.31,3.31v1.27h.95c.57,0,1.04.54,1.04,1.2v4Z"/>
  <polygon class="cls-2" points="464.82 33.46 464.82 9.18 452.29 21.66 464.82 33.46"/>
  <path class="cls-4" d="m296.49,442.76c1.43-.53,2.97-.84,4.58-.84,7.21,0,13.08,5.83,13.16,13.02h3.36c.22,0,.44.08.62.21l6.75,5.31v-28.3h-28.46v10.59Z"/>
  <path class="cls-4" d="m311.14,286.55c-7.04,0-13.1,4.55-14.79,10.81,1.05-.27,2.14-.43,3.27-.43,7.26,0,13.17,5.91,13.17,13.17,0,1.79-.36,3.5-1.01,5.06,1.71-.07,3.42-.4,5.04-1.01.22-.08.45-.08.65-.02l7,.9-.51-5.74c-.09-.28-.06-.59.11-.84,1.53-2.29,2.33-4.91,2.33-7.58,0-7.89-6.84-14.32-15.26-14.32Z"/>
  <path class="cls-4" d="m431.19,313.09h23.75c.22,0,.44.08.62.21l7.76,6.1v-32.07h-32.12v25.75Zm21.94-14h3c.55,0,1,.45,1,1s-.45,1-1,1h-3c-.55,0-1-.45-1-1s.45-1,1-1Zm-7.37,0h3c.55,0,1,.45,1,1s-.45,1-1,1h-3c-.55,0-1-.45-1-1s.45-1,1-1Zm-7.81,0h3c.55,0,1,.45,1,1s-.45,1-1,1h-3c-.55,0-1-.45-1-1s.45-1,1-1Z"/>
  <polygon class="cls-2" points="429.69 9.18 429.69 33.46 442.22 21.66 429.69 9.18"/>
  <path class="cls-2" d="m442.09,161.85c.92,0,1.67-.75,1.67-1.67s-.75-1.67-1.67-1.67-1.67.75-1.67,1.67.75,1.67,1.67,1.67Z"/>
  <path class="cls-2" d="m447.96,25.98c-.19.19-.45.29-.71.29s-.51-.1-.71-.29l-2.91-2.9-12.42,11.7h32.08l-12.42-11.7-2.91,2.9Z"/>
  <path class="cls-4" d="m447.25,147.72c-9.28,0-16.83,6.9-16.83,15.38s7.55,15.38,16.83,15.38c2.15,0,4.25-.38,6.27-1.12.22-.08.45-.08.66-.01l7.8.98-.57-6.23c-.1-.28-.07-.6.11-.86,1.68-2.45,2.57-5.26,2.57-8.13,0-8.48-7.55-15.38-16.83-15.38Zm4.33,8.79c2.02,0,3.67,1.64,3.67,3.67s-1.65,3.67-3.67,3.67-3.67-1.64-3.67-3.67,1.64-3.67,3.67-3.67Zm-9.5,0c2.02,0,3.67,1.64,3.67,3.67s-1.65,3.67-3.67,3.67-3.67-1.64-3.67-3.67,1.64-3.67,3.67-3.67Zm13.87,13.21c-2.32,2.32-5.96,2.8-8.55,2.8-.5,0-.97-.02-1.38-.04-3.66-.23-7.07-1.34-8.49-2.76-.39-.39-.39-1.02,0-1.41s1.02-.39,1.41,0c.89.89,3.71,1.96,7.2,2.18,3.71.24,6.76-.56,8.39-2.18.39-.39,1.02-.39,1.41,0,.39.39.39,1.02,0,1.41Z"/>
  <path class="cls-2" d="m451.59,161.85c.92,0,1.67-.75,1.67-1.67s-.75-1.67-1.67-1.67-1.67.75-1.67,1.67.75,1.67,1.67,1.67Z"/>
  <path class="cls-2" d="m301.06,443.92c-1.72,0-3.34.4-4.79,1.09-.18.24-.46.41-.78.41-3.34,1.93-5.59,5.54-5.59,9.66,0,6.16,5.01,11.17,11.17,11.17s11.17-5.01,11.17-11.17-5.01-11.17-11.17-11.17Zm7.24,7.68l-6.92,7.58c-.2.22-.47.33-.74.33-.22,0-.45-.07-.63-.23l-4.18-3.42c-.43-.35-.49-.98-.14-1.41.35-.43.98-.49,1.41-.14l3.45,2.82,6.28-6.88c.37-.41,1-.44,1.41-.07.41.37.44,1,.06,1.41Z"/>
  <polygon class="cls-2" points="180.85 175.28 180.85 151.01 168.32 163.49 180.85 175.28"/>
  <path class="cls-3" d="m1.1,33.68c.03.07.08.13.12.2.03.04.04.08.07.12,0,0,0,0,.01,0,.09.09.2.17.32.22,0,0,0,0,0,0,.12.05.25.08.39.08h37.12c.14,0,.27-.03.39-.08,0,0,0,0,0,0,.12-.05.23-.13.32-.22,0,0,0,0,.01,0,.03-.04.05-.08.07-.12.05-.06.09-.12.12-.2.03-.07.04-.15.05-.23,0-.05.03-.09.03-.14V4.31s0-.02,0-.04c0-.12-.02-.23-.07-.34-.05-.12-.12-.23-.21-.32,0,0,0,0,0,0-.09-.09-.2-.17-.33-.22-.1-.04-.21-.06-.32-.06-.02,0-.04-.01-.06-.01H2.03c-.13,0-.26.03-.39.08-.12.05-.23.12-.32.22,0,0,0,0,0,0-.09.09-.16.2-.21.32-.04.11-.06.23-.07.34,0,.01,0,.02,0,.04v29s.02.09.03.14c.01.08.02.15.05.23Zm3.45-1.37l12.42-11.7,2.91,2.9c.2.19.45.29.71.29s.51-.1.71-.29l2.91-2.9,12.42,11.7H4.55Zm33.6-1.32l-12.52-11.79,12.52-12.48v24.28Zm-1.42-25.68l-16.14,16.09L4.45,5.31h32.29ZM3.03,6.72l12.53,12.48L3.03,31V6.72Z"/>
  <path class="cls-3" d="m141.3,36.98c.03.07.07.13.11.19.03.04.04.09.07.12,0,0,.01,0,.02.01.08.08.17.14.27.2.02,0,.04.03.06.04.12.05.25.08.39.08h37c.14,0,.27-.03.39-.08.02,0,.03-.03.05-.04.1-.05.2-.11.27-.2,0,0,.01,0,.02-.01.03-.04.05-.08.07-.12.04-.06.09-.12.11-.19.03-.07.03-.14.04-.22,0-.05.03-.09.03-.14V8.5s-.02-.09-.03-.14c-.01-.07-.02-.15-.04-.22-.03-.07-.07-.13-.11-.19-.03-.04-.04-.09-.07-.12,0,0-.01,0-.02-.01-.05-.06-.12-.1-.19-.14-.04-.03-.08-.07-.13-.09-.05-.02-.11-.03-.16-.04-.07-.02-.14-.04-.22-.04,0,0-.01,0-.02,0h-2.5V1c0-.55-.45-1-1-1h-29.75c-.55,0-1,.45-1,1v6.5h-2.75s-.01,0-.02,0c-.08,0-.16.03-.24.05-.05.01-.1.02-.15.04-.05.02-.09.06-.13.09-.06.04-.13.08-.18.14,0,0-.01,0-.02.01-.03.04-.05.08-.07.12-.04.06-.09.12-.11.19-.03.07-.03.14-.04.22,0,.05-.03.09-.03.14v28.12c0,.05.02.09.03.14.01.07.02.14.04.21Zm3.53-1.36l12.88-11.65,2.34,2.14c.19.17.43.26.67.26s.48-.09.67-.26l2.41-2.2,12.84,11.71h-31.82Zm33.4-24.86v23.59l-12.93-11.8,12.93-11.8Zm-31.25-8.77h27.75v9.25l-14,12.77-13.75-12.54V2Zm-2,7.5v.15l-.17-.15h.17Zm-1.75,1.27l13,11.86-13,11.75V10.77Z"/>
  <path class="cls-3" d="m171.6,7.88c0-.55-.45-1-1-1h-20.63c-.55,0-1,.45-1,1s.45,1,1,1h20.63c.55,0,1-.45,1-1Z"/>
  <path class="cls-3" d="m288,36.98c.03.07.07.13.11.19.03.04.04.09.07.12,0,0,.01,0,.02.01.08.08.17.14.27.2.02,0,.04.03.06.04.12.05.25.08.39.08h37c.14,0,.27-.03.39-.08.02,0,.03-.03.05-.04.1-.05.2-.12.28-.2,0,0,.01,0,.02-.01.03-.04.05-.08.07-.12.04-.06.09-.12.12-.19.03-.07.03-.14.04-.21,0-.05.03-.09.03-.14V8.5c0-.05-.02-.1-.03-.14-.01-.07-.02-.14-.04-.21-.03-.07-.07-.13-.12-.19-.03-.04-.04-.08-.07-.12,0,0-.01,0-.02-.01-.05-.06-.12-.1-.19-.14-.04-.03-.08-.07-.13-.09-.05-.02-.11-.03-.16-.04-.07-.02-.14-.04-.22-.04,0,0-.01,0-.02,0h-2.5V1c0-.55-.45-1-1-1h-29.75c-.55,0-1,.45-1,1v6.5h-2.75s-.01,0-.02,0c-.08,0-.16.03-.24.05-.05.01-.1.02-.14.04-.05.02-.09.06-.13.09-.06.04-.13.08-.18.13,0,0-.01,0-.02.01-.03.04-.05.08-.07.12-.04.06-.09.12-.12.19-.03.07-.03.14-.04.21,0,.05-.03.09-.03.14v28.12c0,.05.02.1.03.14.01.07.02.14.04.21Zm3.53-1.36l12.88-11.65,2.34,2.14c.19.17.43.26.67.26s.48-.09.67-.26l2.41-2.2,12.84,11.71h-31.82Zm33.4-24.86v23.59l-12.93-11.8,12.93-11.8Zm-31.25-8.77h27.75v9.25l-14,12.77-13.75-12.54V2Zm-2,7.5v.15l-.17-.15h.17Zm-1.75,1.27l13,11.86-13,11.75V10.77Z"/>
  <path class="cls-3" d="m309.76,15.37c.17.13.38.19.59.19s.41-.06.59-.19c.35-.25.5-.71.36-1.12l-.89-2.75,2.33-1.7c.35-.25.5-.71.36-1.12-.13-.41-.52-.69-.95-.69h-2.89l-.89-2.74c-.13-.41-.52-.69-.95-.69s-.82.28-.95.69l-.89,2.74h-2.89c-.43,0-.82.28-.95.69-.13.41.01.86.36,1.12l2.33,1.7-.89,2.75c-.13.41.01.86.36,1.12.35.26.83.26,1.18,0l2.33-1.7,2.33,1.7Zm-3.36-3.43l.17-.51c.13-.41-.01-.86-.36-1.12l-.43-.32h.54c.43,0,.82-.28.95-.69l.17-.51.16.51c.13.41.52.69.95.69h.54l-.43.32c-.35.25-.5.71-.36,1.12l.16.51-.43-.31c-.17-.13-.38-.19-.59-.19s-.41.06-.59.19l-.43.31Z"/>
  <path class="cls-3" d="m466.81,6.73c0-.12-.02-.23-.07-.35-.04-.11-.11-.2-.19-.28-.01-.01-.02-.03-.03-.04,0,0,0,0,0,0-.09-.09-.2-.17-.32-.22-.11-.04-.22-.06-.33-.07-.02,0-.03-.01-.05-.01h-11.4c-.55,0-1,.45-1,1s.45,1,1,1h8.98l-16.14,16.09-16.14-16.09h8.89c.55,0,1-.45,1-1s-.45-1-1-1h-11.31c-.13,0-.26.03-.39.08-.12.05-.23.12-.32.21,0,0,0,0,0,0-.01.01-.02.03-.03.04-.08.08-.14.17-.19.28-.05.11-.07.23-.07.35,0,.01,0,.02,0,.04v29s.02.09.03.14c.01.08.02.15.05.23.03.07.08.13.12.2.03.04.04.08.07.12,0,0,0,0,.01,0,.09.09.2.17.32.22,0,0,0,0,0,0,.12.05.25.08.39.08h37.12c.14,0,.27-.03.39-.08,0,0,0,0,0,0,.12-.05.23-.13.32-.22,0,0,0,0,.01,0,.03-.04.05-.08.07-.12.05-.06.09-.12.12-.2.03-.07.04-.15.05-.23,0-.05.03-.09.03-.14V6.77s0-.02,0-.04Zm-37.12,2.44l12.53,12.48-12.53,11.79V9.18Zm1.52,25.59l12.42-11.7,2.91,2.9c.2.19.45.29.71.29s.51-.1.71-.29l2.91-2.9,12.42,11.7h-32.08Zm33.6-1.32l-12.53-11.79,12.53-12.48v24.28Z"/>
  <path class="cls-3" d="m446.54,16.98c.19.24.48.37.78.37h.01c.31,0,.59-.15.78-.39l4.58-6c.23-.3.27-.71.1-1.05-.17-.34-.52-.56-.9-.56h-3.71V1.85c0-.55-.45-1-1-1s-1,.45-1,1v7.5h-3.71c-.39,0-.74.22-.9.57-.17.35-.12.76.12,1.06l4.83,6Zm3.34-5.63l-2.58,3.38-2.72-3.38h5.3Z"/>
  <path class="cls-3" d="m1.1,174.3c.03.07.08.13.12.2.03.04.04.08.07.12,0,0,0,0,.01,0,.09.09.2.17.32.22,0,0,0,0,0,0,.12.05.25.08.39.08h10.45c.55,0,1-.45,1-1s-.45-1-1-1h-7.93l12.42-11.7,2.91,2.9c.19.19.45.29.7.29s.51-.1.71-.29l2.91-2.9,12.42,11.7h-7.15c-.55,0-1,.45-1,1s.45,1,1,1h9.67c.14,0,.27-.03.39-.08,0,0,0,0,0,0,.12-.05.23-.13.32-.22,0,0,0,0,.01,0,.03-.04.05-.08.07-.12.05-.06.09-.12.12-.2.03-.07.04-.15.05-.23,0-.05.03-.09.03-.14v-29s0-.02,0-.04c0-.12-.02-.23-.07-.34-.05-.11-.12-.21-.2-.3,0,0,0-.02-.02-.03h0c-.09-.09-.2-.17-.33-.22-.11-.04-.22-.06-.33-.07-.02,0-.04-.01-.05-.01H2.03c-.13,0-.26.03-.39.08-.12.05-.23.12-.32.21h0s-.02.03-.03.04c-.08.08-.14.17-.19.28-.05.11-.07.23-.07.35,0,.01,0,.02,0,.04v29s.02.09.03.14c.01.08.02.15.05.23Zm37.05-2.68l-12.53-11.79,12.53-12.48v24.28Zm-1.42-25.68l-16.14,16.09-16.14-16.09h32.29Zm-33.71,1.41l12.53,12.48-12.53,11.79v-24.28Z"/>
  <path class="cls-3" d="m20.59,166.77c-.55,0-1,.45-1,1v6.5h-3.71c-.38,0-.74.22-.9.57-.17.35-.12.76.12,1.06l4.83,6c.19.24.48.37.78.37h.01c.31,0,.59-.15.78-.39l4.58-6c.23-.3.27-.71.1-1.05-.17-.34-.52-.56-.9-.56h-3.71v-6.5c0-.55-.45-1-1-1Zm2.69,9.5l-2.58,3.38-2.72-3.38h5.3Z"/>
  <polygon class="cls-4" points="449.39 467.39 451.97 464.01 446.67 464.01 449.39 467.39"/>
  <polygon class="cls-2" points="431.73 435.09 431.73 459.36 444.25 447.57 431.73 435.09"/>
  <polygon class="cls-2" points="466.85 459.36 466.85 435.09 454.33 447.57 466.85 459.36"/>
  <polygon class="cls-2" points="465.43 433.68 433.14 433.68 449.29 449.77 465.43 433.68"/>
  <path class="cls-3" d="m429.8,462.04c.03.07.08.13.12.2.03.04.04.08.07.12,0,0,0,0,.01,0,.09.09.2.17.32.22,0,0,0,0,0,0,.12.05.25.08.39.08h10.45c.55,0,1-.45,1-1s-.45-1-1-1h-7.93l12.42-11.7,2.91,2.9c.2.19.45.29.71.29s.51-.1.71-.29l2.91-2.9,12.42,11.7h-7.15c-.55,0-1,.45-1,1s.45,1,1,1h9.67c.14,0,.27-.03.39-.08,0,0,0,0,0,0,.12-.05.23-.13.32-.22,0,0,0,0,.01,0,.03-.04.05-.08.07-.12.05-.06.09-.12.12-.2.03-.07.04-.15.05-.23,0-.05.03-.09.03-.14v-29s0-.02,0-.04c0-.12-.02-.23-.07-.34-.05-.11-.12-.21-.2-.3,0,0,0-.02-.02-.03h0c-.09-.09-.2-.17-.33-.22-.11-.04-.22-.06-.33-.07-.02,0-.04-.01-.05-.01h-37.12c-.13,0-.26.03-.39.08-.12.05-.23.12-.32.21h0s-.02.03-.03.04c-.08.08-.14.17-.19.28-.05.11-.07.23-.07.35,0,.01,0,.02,0,.04v29s.02.09.03.14c.01.08.02.15.05.23Zm37.05-2.68l-12.53-11.79,12.53-12.48v24.28Zm-1.42-25.68l-16.14,16.09-16.14-16.09h32.29Zm-33.71,1.41l12.53,12.48-12.53,11.79v-24.28Z"/>
  <path class="cls-3" d="m449.29,454.51c-.55,0-1,.45-1,1v6.5h-3.71c-.38,0-.74.22-.9.57-.17.35-.12.76.12,1.06l4.83,6c.19.24.48.37.78.37h.01c.31,0,.6-.15.78-.39l4.58-6c.23-.3.27-.71.1-1.05-.17-.34-.52-.56-.9-.56h-3.71v-6.5c0-.55-.45-1-1-1Zm2.69,9.5l-2.58,3.38-2.72-3.38h5.3Z"/>
  <path class="cls-3" d="m182.77,148.22c-.05-.11-.12-.21-.2-.3,0,0,0-.02-.02-.03,0,0,0,0,0,0-.09-.09-.2-.17-.33-.22-.1-.04-.22-.06-.33-.07-.02,0-.04-.01-.05-.01h-42.23c-.55,0-1,.45-1,1s.45,1,1,1h39.81l-16.14,16.09-2.9-2.88c-.39-.39-1.02-.39-1.41,0-.39.39-.39,1.02,0,1.41l3.6,3.59c.2.19.45.29.71.29s.51-.1.71-.29l2.91-2.9,12.42,11.7h-27.6c-.55,0-1,.45-1,1s.45,1,1,1h30.12c.14,0,.27-.03.39-.08,0,0,0,0,0,0,.12-.05.23-.13.32-.22,0,0,0,0,.01,0,.03-.04.05-.08.07-.12.05-.06.09-.12.12-.2.03-.07.03-.15.05-.23,0-.05.03-.09.03-.14v-29s0-.02,0-.04c0-.12-.02-.23-.07-.34Zm-1.92,27.07l-12.53-11.79,12.53-12.48v24.28Z"/>
  <path class="cls-3" d="m153.61,156.85h-10.88c-.55,0-1,.45-1,1s.45,1,1,1h10.88c.55,0,1-.45,1-1s-.45-1-1-1Z"/>
  <path class="cls-3" d="m146.11,167.6c-.55,0-1,.45-1,1s.45,1,1,1h8.17c.55,0,1-.45,1-1s-.45-1-1-1h-8.17Z"/>
  <path class="cls-3" d="m307.42,145.72c-10.38,0-18.83,7.79-18.83,17.38s8.45,17.38,18.83,17.38c2.29,0,4.53-.38,6.69-1.14l9.02,1.13s.08,0,.12,0h.01c.55-.02,1.01-.44,1.01-1,0-.1-.01-.2-.04-.29l-.66-7.18c1.76-2.7,2.68-5.77,2.68-8.91,0-9.58-8.45-17.38-18.83-17.38Zm14.26,25.51c-.18.26-.21.58-.11.86l.57,6.23-7.8-.98c-.21-.07-.44-.07-.66.01-2.01.74-4.12,1.12-6.27,1.12-9.28,0-16.83-6.9-16.83-15.38s7.55-15.38,16.83-15.38,16.83,6.9,16.83,15.38c0,2.87-.89,5.68-2.57,8.13Z"/>
  <path class="cls-3" d="m300.59,162.68h-3c-.55,0-1,.45-1,1s.45,1,1,1h3c.55,0,1-.45,1-1s-.45-1-1-1Z"/>
  <path class="cls-3" d="m308.59,162.51h-3c-.55,0-1,.45-1,1s.45,1,1,1h3c.55,0,1-.45,1-1s-.45-1-1-1Z"/>
  <path class="cls-3" d="m315.92,162.51h-3c-.55,0-1,.45-1,1s.45,1,1,1h3c.55,0,1-.45,1-1s-.45-1-1-1Z"/>
  <path class="cls-3" d="m19.76,309.69h-2.03c-.55,0-1,.45-1,1s.45,1,1,1h2.03c.55,0,1-.45,1-1s-.45-1-1-1Z"/>
  <path class="cls-3" d="m14.33,309.57h-2.03c-.55,0-1,.45-1,1s.45,1,1,1h2.03c.55,0,1-.45,1-1s-.45-1-1-1Z"/>
  <path class="cls-3" d="m9.36,309.57h-2.03c-.55,0-1,.45-1,1s.45,1,1,1h2.03c.55,0,1-.45,1-1s-.45-1-1-1Z"/>
  <path class="cls-3" d="m23.93,285.14c-8.8,0-16.03,6.1-17.11,14.27-4.06,2.11-6.82,6.19-6.82,10.87,0,2.2.62,4.36,1.81,6.27l-.45,5.03c-.03.3.08.6.3.81.19.18.44.28.69.28.04,0,.08,0,.13,0l6.03-.78c1.47.52,3.01.79,4.57.79,4.26,0,8.03-1.94,10.43-4.93,2.2.05,4.42-.29,6.52-1.04l8.19,1.06s.09,0,.13,0c.26,0,.51-.1.69-.28.22-.21.33-.51.3-.81l-.62-6.88c1.6-2.53,2.44-5.41,2.44-8.34,0-9-7.74-16.32-17.26-16.32Zm-10.83,35.54c-1.41,0-2.81-.25-4.13-.75-.11-.04-.23-.06-.35-.06-.09,0-.18.01-.27.04l-4.88.63.35-3.88c.09-.28.06-.6-.12-.87-1.11-1.66-1.69-3.56-1.69-5.5,0-5.73,4.98-10.39,11.09-10.39s11.09,4.66,11.09,10.39-4.98,10.39-11.09,10.39Zm23.76-11.64c-.17.26-.2.57-.11.84l.51,5.74-7-.9c-.21-.07-.44-.06-.65.02-1.54.58-3.15.91-4.77,1,.86-1.65,1.35-3.5,1.35-5.46,0-6.83-5.87-12.39-13.09-12.39-1.43,0-2.8.23-4.09.63,1.46-6.5,7.69-11.38,14.92-11.38,8.41,0,15.26,6.42,15.26,14.32,0,2.67-.81,5.3-2.33,7.58Z"/>
  <path class="cls-3" d="m447.25,145.72c-10.38,0-18.83,7.79-18.83,17.38s8.45,17.38,18.83,17.38c2.29,0,4.54-.38,6.69-1.14l9.02,1.13s.08,0,.12,0h.01c.56-.02,1.01-.44,1.01-1,0-.1-.01-.2-.04-.29l-.66-7.18c1.76-2.7,2.68-5.77,2.68-8.91,0-9.58-8.45-17.38-18.83-17.38Zm14.27,25.51c-.18.26-.21.58-.11.86l.57,6.23-7.8-.98c-.21-.07-.44-.07-.66.01-2.01.74-4.12,1.12-6.27,1.12-9.28,0-16.83-6.9-16.83-15.38s7.55-15.38,16.83-15.38,16.83,6.9,16.83,15.38c0,2.87-.89,5.68-2.57,8.13Z"/>
  <path class="cls-3" d="m442.09,163.85c2.02,0,3.67-1.64,3.67-3.67s-1.65-3.67-3.67-3.67-3.67,1.64-3.67,3.67,1.64,3.67,3.67,3.67Zm0-5.33c.92,0,1.67.75,1.67,1.67s-.75,1.67-1.67,1.67-1.67-.75-1.67-1.67.75-1.67,1.67-1.67Z"/>
  <path class="cls-3" d="m451.59,163.85c2.02,0,3.67-1.64,3.67-3.67s-1.65-3.67-3.67-3.67-3.67,1.64-3.67,3.67,1.64,3.67,3.67,3.67Zm0-5.33c.92,0,1.67.75,1.67,1.67s-.75,1.67-1.67,1.67-1.67-.75-1.67-1.67.75-1.67,1.67-1.67Z"/>
  <path class="cls-3" d="m454.55,168.31c-1.62,1.62-4.68,2.41-8.39,2.18-3.49-.22-6.31-1.29-7.2-2.18-.39-.39-1.02-.39-1.41,0s-.39,1.02,0,1.41c1.42,1.42,4.83,2.53,8.49,2.76.41.03.87.04,1.38.04,2.6,0,6.23-.48,8.55-2.8.39-.39.39-1.02,0-1.41-.39-.39-1.02-.39-1.41,0Z"/>
  <path class="cls-3" d="m164.44,284.55c-8.42,0-15.62,5.81-17,13.6-4.53,2.09-7.68,6.65-7.68,11.96,0,7.26,5.91,13.17,13.17,13.17,4.66,0,8.76-2.44,11.1-6.11,2.21.05,4.44-.29,6.54-1.04l8.19,1.06s.09,0,.13,0c.26,0,.51-.1.69-.28.22-.21.33-.51.3-.81l-.62-6.88c1.6-2.53,2.44-5.41,2.44-8.34,0-9-7.74-16.32-17.26-16.32Zm-11.52,36.72c-6.16,0-11.17-5.01-11.17-11.17s5.01-11.17,11.17-11.17,11.17,5.01,11.17,11.17-5.01,11.17-11.17,11.17Zm24.45-12.82c-.17.26-.2.57-.11.84l.51,5.74-7-.9c-.21-.07-.44-.07-.65.02-1.62.61-3.33.94-5.04,1.01.65-1.56,1.01-3.26,1.01-5.06,0-7.26-5.91-13.17-13.17-13.17-1.13,0-2.22.16-3.27.43,1.68-6.26,7.75-10.81,14.79-10.81,8.41,0,15.26,6.42,15.26,14.32,0,2.67-.81,5.3-2.33,7.58Z"/>
  <path class="cls-3" d="m158.69,305.26l-6.28,6.88-3.45-2.82c-.43-.35-1.06-.29-1.41.14-.35.43-.29,1.06.14,1.41l4.18,3.42c.18.15.41.23.63.23.27,0,.54-.11.74-.33l6.92-7.58c.37-.41.34-1.04-.06-1.41-.41-.37-1.04-.34-1.41.07Z"/>
  <path class="cls-3" d="m311.14,284.55c-8.42,0-15.62,5.81-17,13.6-4.53,2.09-7.68,6.65-7.68,11.96,0,7.26,5.91,13.17,13.17,13.17,4.66,0,8.76-2.44,11.1-6.11,2.21.05,4.44-.29,6.54-1.04l8.19,1.06s.09,0,.13,0c.26,0,.51-.1.69-.28.22-.21.33-.51.3-.81l-.62-6.88c1.6-2.53,2.44-5.41,2.44-8.34,0-9-7.74-16.32-17.26-16.32Zm-11.52,36.72c-6.16,0-11.17-5.01-11.17-11.17s5.01-11.17,11.17-11.17,11.17,5.01,11.17,11.17-5.01,11.17-11.17,11.17Zm24.45-12.82c-.17.26-.2.57-.11.84l.51,5.74-7-.9c-.21-.07-.44-.07-.65.02-1.62.61-3.33.94-5.04,1.01.65-1.56,1.01-3.26,1.01-5.06,0-7.26-5.91-13.17-13.17-13.17-1.13,0-2.22.16-3.27.43,1.68-6.26,7.75-10.81,14.79-10.81,8.41,0,15.26,6.42,15.26,14.32,0,2.67-.81,5.3-2.33,7.58Z"/>
  <path class="cls-3" d="m303.88,308.94h-.95v-1.27c0-1.83-1.49-3.31-3.31-3.31s-3.31,1.49-3.31,3.31v1.27h-.95c-.57,0-1.04.54-1.04,1.2v4c0,.66.46,1.2,1.04,1.2h8.53c.57,0,1.04-.54,1.04-1.2v-4c0-.66-.46-1.2-1.04-1.2Zm-1.95,0h-4.62v-1.27c0-1.28,1.04-2.31,2.31-2.31s2.31,1.04,2.31,2.31v1.27Z"/>
  <path class="cls-3" d="m464.32,285.34h-34.12c-.55,0-1,.45-1,1v27.75c0,.55.45,1,1,1h24.4l9.1,7.16c.18.14.4.21.62.21.15,0,.3-.03.44-.1.34-.17.56-.52.56-.9v-35.12c0-.55-.45-1-1-1Zm-1,34.07l-7.76-6.1c-.18-.14-.39-.21-.62-.21h-23.75v-25.75h32.12v32.07Z"/>
  <path class="cls-3" d="m437.94,301.09h3c.55,0,1-.45,1-1s-.45-1-1-1h-3c-.55,0-1,.45-1,1s.45,1,1,1Z"/>
  <path class="cls-3" d="m445.75,301.09h3c.55,0,1-.45,1-1s-.45-1-1-1h-3c-.55,0-1,.45-1,1s.45,1,1,1Z"/>
  <path class="cls-3" d="m453.13,301.09h3c.55,0,1-.45,1-1s-.45-1-1-1h-3c-.55,0-1,.45-1,1s.45,1,1,1Z"/>
  <path class="cls-3" d="m157.59,454.38h1.94c.55,0,1-.45,1-1s-.45-1-1-1h-1.94c-.55,0-1,.45-1,1s.45,1,1,1Z"/>
  <path class="cls-3" d="m152.54,454.38h1.94c.55,0,1-.45,1-1s-.45-1-1-1h-1.94c-.55,0-1,.45-1,1s.45,1,1,1Z"/>
  <path class="cls-3" d="m146.78,453.38c0,.55.45,1,1,1h1.94c.55,0,1-.45,1-1s-.45-1-1-1h-1.94c-.55,0-1,.45-1,1Z"/>
  <path class="cls-3" d="m178.97,430.24h-30.46c-.55,0-1,.45-1,1v12.26h-5.01c-.55,0-1,.45-1,1v22.69c0,.38.22.73.56.9.14.07.29.1.44.1.22,0,.44-.07.62-.21l5.78-4.55h15.64c.55,0,1-.45,1-1v-5.41h4.72l8.1,6.37c.18.14.4.21.62.21.15,0,.3-.03.44-.1.34-.17.56-.52.56-.9v-31.35c0-.55-.45-1-1-1Zm-15.44,31.18h-14.99c-.22,0-.44.07-.62.21l-4.44,3.49v-19.63h20.04v15.92Zm14.44-.89l-6.75-5.31c-.18-.14-.39-.21-.62-.21h-5.07v-10.51c0-.55-.45-1-1-1h-15.03v-11.26h28.46v28.3Z"/>
  <path class="cls-3" d="m37.65,430.65H3.53c-.55,0-1,.45-1,1v27.75c0,.55.45,1,1,1h24.4l9.1,7.16c.18.14.4.21.62.21.15,0,.3-.03.44-.1.34-.17.56-.52.56-.9v-35.12c0-.55-.45-1-1-1Zm-1,34.07l-7.76-6.1c-.18-.14-.39-.21-.62-.21H4.53v-25.75h32.12v32.07Z"/>
  <path class="cls-3" d="m15.92,444.98c2.02,0,3.67-1.64,3.67-3.67s-1.64-3.67-3.67-3.67-3.67,1.64-3.67,3.67,1.65,3.67,3.67,3.67Zm0-5.33c.92,0,1.67.75,1.67,1.67s-.75,1.67-1.67,1.67-1.67-.75-1.67-1.67.75-1.67,1.67-1.67Z"/>
  <path class="cls-3" d="m25.42,444.98c2.02,0,3.67-1.64,3.67-3.67s-1.64-3.67-3.67-3.67-3.67,1.64-3.67,3.67,1.65,3.67,3.67,3.67Zm0-5.33c.92,0,1.67.75,1.67,1.67s-.75,1.67-1.67,1.67-1.67-.75-1.67-1.67.75-1.67,1.67-1.67Z"/>
  <path class="cls-3" d="m19.87,453.61c.41.03.87.04,1.38.04,2.6,0,6.23-.48,8.55-2.8.39-.39.39-1.02,0-1.41s-1.02-.39-1.41,0c-1.62,1.62-4.68,2.41-8.38,2.18-3.49-.22-6.31-1.29-7.2-2.18-.39-.39-1.02-.39-1.41,0-.39.39-.39,1.02,0,1.41,1.42,1.42,4.83,2.53,8.49,2.76Z"/>
  <path class="cls-3" d="m325.95,430.17h-30.46c-.55,0-1,.45-1,1v12.53c-3.93,2.28-6.59,6.53-6.59,11.39,0,7.26,5.91,13.17,13.17,13.17,6.63,0,12.12-4.93,13.02-11.31h3.15l8.1,6.37c.18.14.4.21.62.21.15,0,.3-.03.44-.1.34-.17.56-.52.56-.9v-31.35c0-.55-.45-1-1-1Zm-24.89,36.09c-6.16,0-11.17-5.01-11.17-11.17,0-4.13,2.25-7.73,5.59-9.66.33,0,.6-.17.78-.41,1.45-.69,3.07-1.09,4.79-1.09,6.16,0,11.17,5.01,11.17,11.17s-5.01,11.17-11.17,11.17Zm23.89-5.79l-6.75-5.31c-.18-.14-.39-.21-.62-.21h-3.36c-.08-7.19-5.95-13.02-13.16-13.02-1.61,0-3.15.3-4.58.84v-10.59h28.46v28.3Z"/>
  <path class="cls-3" d="m306.83,450.25l-6.28,6.88-3.45-2.82c-.43-.35-1.06-.29-1.41.14-.35.43-.29,1.06.14,1.41l4.18,3.42c.19.15.41.23.63.23.27,0,.54-.11.74-.33l6.92-7.58c.37-.41.34-1.04-.06-1.41-.41-.37-1.04-.34-1.41.07Z"/>
</svg>