<?xml version="1.0" encoding="UTF-8"?>
<svg xmlns="http://www.w3.org/2000/svg" xmlns:xlink="http://www.w3.org/1999/xlink" viewBox="0 0 6.45 6.45">
  <defs>
    <style>
      .cls-1 {
        
        opacity: .73;
      }

      .cls-1, .cls-2, .cls-3, .cls-4, .cls-5, .cls-6, .cls-7, .cls-8, .cls-9, .cls-10, .cls-11, .cls-12, .cls-13, .cls-14, .cls-15, .cls-16, .cls-17, .cls-18, .cls-19, .cls-20, .cls-21, .cls-22, .cls-23, .cls-24, .cls-25, .cls-26, .cls-27, .cls-28, .cls-29, .cls-30, .cls-31, .cls-32, .cls-33, .cls-34, .cls-35, .cls-36, .cls-37, .cls-38, .cls-39, .cls-40, .cls-41, .cls-42, .cls-43, .cls-44, .cls-45, .cls-46, .cls-47, .cls-48, .cls-49, .cls-50, .cls-51, .cls-52, .cls-53, .cls-54, .cls-55, .cls-56, .cls-57 {
        stroke-width: 0px;
      }

      .cls-2 {
        fill: #b7b4b4;
        opacity: .2;
      }

      .cls-3 {
        fill: #b1aeae;
        opacity: .22;
      }

      .cls-4 {
        fill: #868383;
        opacity: .37;
      }

      .cls-5 {
        fill: #383636;
        opacity: .75;
      }

      .cls-6 {
        fill: #3f3d3c;
        opacity: .71;
      }

      .cls-7 {
        fill: #8b8888;
        opacity: .35;
      }

      .cls-8 {
        fill: url(#linear-gradient);
      }

      .cls-9 {
        fill: #312f2f;
        opacity: .78;
      }

      .cls-10 {
        fill: #e3e2e1;
        opacity: .06;
      }

      .cls-11 {
        fill: #817e7e;
        opacity: .39;
      }

      .cls-12 {
        fill: #343332;
        opacity: .76;
      }

      .cls-13 {
        fill: #bdbaba;
        opacity: .18;
      }

      .cls-14 {
        fill: #cfcdcd;
        opacity: .12;
      }

      .cls-58 {
        mix-blend-mode: multiply;
      }

      .cls-15 {
        fill: #7c7979;
        opacity: .41;
      }

      .cls-16 {
        fill: #787474;
        opacity: .43;
      }

      .cls-17 {
        fill: #222221;
        opacity: .86;
      }

      .cls-18 {
        fill: #2a2928;
        opacity: .82;
      }

      .cls-19 {
        fill: #6e6b6b;
        opacity: .47;
      }

      .cls-20 {
        fill: #2d2c2c;
        opacity: .8;
      }

      .cls-21 {
        fill: #262525;
        opacity: .84;
      }

      .cls-22 {
        fill: #1a1a1a;
        opacity: .9;
      }

      .cls-23 {
        fill: #161616;
        opacity: .92;
      }

      .cls-24 {
        fill: #737070;
        opacity: .45;
      }

      .cls-25 {
        fill: #c3c0c0;
        opacity: .16;
      }

      .cls-26 {
        fill: #1e1e1e;
        opacity: .88;
      }

      .cls-27 {
        fill: #070707;
        opacity: .98;
      }

      .cls-28 {
        fill: #d6d4d4;
        opacity: .1;
      }

      .cls-29 {
        fill: #6a6767;
        opacity: .49;
      }

      .cls-30 {
        fill: #0d0d0d;
        opacity: .96;
      }

      .cls-31 {
        fill: #121211;
        opacity: .94;
      }

      .cls-32 {
        fill: #a6a3a3;
        opacity: .25;
      }

      .cls-33 {
        fill: #5d5a5a;
        opacity: .55;
      }

      .cls-34 {
        fill: #a09d9d;
        opacity: .27;
      }

      .cls-35 {
        fill: #c9c7c7;
        opacity: .14;
      }

      .cls-36 {
        fill: #666362;
        opacity: .51;
      }

      .cls-37 {
        fill: url(#linear-gradient-2);
      }

      .cls-38 {
        fill: #f3f2f2;
        opacity: .02;
      }

      .cls-39 {
        fill: #615f5e;
        opacity: .53;
      }

      .cls-59 {
        isolation: isolate;
      }

      .cls-40 {
        fill: #524f4e;
        opacity: .61;
      }

      .cls-41 {
        fill: #969292;
        opacity: .31;
      }

      .cls-42 {
        fill: #4e4b4b;
        opacity: .63;
      }

      .cls-43 {
        fill: #eae9e9;
        opacity: .04;
      }

      .cls-44 {
        fill: #aba8a8;
        opacity: .24;
      }

      .cls-45 {
        fill: #595756;
        opacity: .57;
      }

      .cls-46 {
        fill: #908d8d;
        opacity: .33;
      }

      .cls-47 {
        opacity: 0;
      }

      .cls-47, .cls-50 {
        fill: #fff;
      }

      .cls-48 {
        fill: #3e3c6e;
      }

      .cls-49 {
        fill: #b12434;
      }

      .cls-51 {
        fill: #010101;
      }

      .cls-52 {
        fill: #9b9898;
        opacity: .29;
      }

      .cls-53 {
        fill: #555352;
        opacity: .59;
      }

      .cls-54 {
        fill: #dcdbda;
        opacity: .08;
      }

      .cls-55 {
        fill: #464443;
        opacity: .67;
      }

      .cls-56 {
        fill: #434040;
        opacity: .69;
      }

      .cls-57 {
        fill: #4a4747;
        opacity: .65;
      }
    </style>
    <linearGradient id="linear-gradient" x1="-175.98" y1="33.67" x2="-170.67" y2="33.67" gradientTransform="translate(-143.48 -95.89) rotate(-135)" gradientUnits="userSpaceOnUse">
      <stop offset="0" stop-color="#989898"/>
      <stop offset=".1" stop-color="#a8a8a8"/>
      <stop offset=".37" stop-color="#cdcdcd"/>
      <stop offset=".61" stop-color="#e8e8e8"/>
      <stop offset=".83" stop-color="#f9f9f9"/>
      <stop offset="1" stop-color="#fff"/>
    </linearGradient>
    <linearGradient id="linear-gradient-2" x1="-160.3" y1="-46.92" x2="-156.8" y2="-43.42" gradientTransform="translate(161.41 48)" xlink:href="#linear-gradient"/>
  </defs>
  <g class="cls-59">
    <g id="Layer_1" data-name="Layer 1">
      <g>
        <g class="cls-58">
          <path class="cls-47" d="m5.35.94c1.36,1.36,1.48,3.46.26,4.67s-3.31,1.1-4.67-.26C-.42,3.99-.22,2.21,1,1s2.99-1.42,4.35-.05Z"/>
          <path class="cls-38" d="m5.33.95c1.35,1.35,1.47,3.43.26,4.64-1.21,1.21-3.29,1.09-4.64-.26C-.4,3.98-.2,2.21,1,1s2.98-1.4,4.33-.05Z"/>
          <path class="cls-43" d="m5.31.96c1.34,1.34,1.46,3.41.26,4.61-1.2,1.2-3.26,1.08-4.61-.26C-.38,3.97-.19,2.21,1.01,1.01s2.96-1.39,4.3-.05Z"/>
          <path class="cls-10" d="m5.29.97c1.33,1.33,1.45,3.38.26,4.57-1.19,1.19-3.24,1.07-4.57-.26C-.36,3.96-.17,2.2,1.02,1.02s2.94-1.37,4.27-.04Z"/>
          <path class="cls-54" d="m5.27.98c1.32,1.32,1.44,3.36.26,4.54-1.18,1.18-3.22,1.07-4.54-.26C-.34,3.94-.16,2.2,1.02,1.02s2.92-1.36,4.24-.04Z"/>
          <path class="cls-28" d="m5.25.99c1.31,1.31,1.43,3.33.25,4.51-1.17,1.17-3.19,1.06-4.51-.25C-.32,3.93-.14,2.2,1.03,1.03s2.9-1.35,4.22-.03Z"/>
          <path class="cls-14" d="m5.22,1.01c1.3,1.3,1.42,3.31.25,4.47-1.16,1.16-3.17,1.05-4.47-.25-1.3-1.3-1.13-3.03.03-4.19s2.89-1.33,4.19-.03Z"/>
          <path class="cls-35" d="m5.2,1.02c1.29,1.29,1.41,3.28.25,4.44-1.15,1.15-3.15,1.04-4.44-.25C-.28,3.91-.11,2.19,1.04,1.04s2.87-1.32,4.16-.02Z"/>
          <path class="cls-25" d="m5.18,1.03c1.28,1.28,1.39,3.26.25,4.4-1.15,1.15-3.12,1.03-4.4-.25C-.26,3.9-.1,2.19,1.05,1.05s2.85-1.3,4.13-.02Z"/>
          <path class="cls-13" d="m5.16,1.04c1.27,1.27,1.38,3.23.25,4.37-1.14,1.14-3.1,1.03-4.37-.25C-.24,3.89-.08,2.19,1.05,1.05s2.83-1.29,4.11-.02Z"/>
          <path class="cls-2" d="m5.14,1.05c1.26,1.26,1.37,3.21.25,4.34-1.13,1.13-3.07,1.02-4.34-.25C-.22,3.88-.07,2.19,1.06,1.06s2.82-1.27,4.08-.01Z"/>
          <path class="cls-3" d="m5.12,1.06c1.25,1.25,1.36,3.18.24,4.3-1.12,1.12-3.05,1.01-4.3-.24C-.19,3.87-.05,2.19,1.07,1.07s2.8-1.26,4.05,0Z"/>
          <path class="cls-44" d="m5.1,1.07c1.24,1.24,1.35,3.16.24,4.27-1.11,1.11-3.03,1-4.27-.24-1.24-1.24-1.11-2.91,0-4.03s2.78-1.25,4.03,0Z"/>
          <path class="cls-32" d="m5.08,1.08c1.23,1.23,1.34,3.13.24,4.24-1.1,1.1-3,.99-4.24-.24-1.23-1.23-1.1-2.9,0-4s2.76-1.23,4,0Z"/>
          <path class="cls-34" d="m5.06,1.09c1.22,1.22,1.33,3.11.24,4.2-1.09,1.09-2.98.99-4.2-.24C-.13,3.83,0,2.18,1.08,1.08s2.75-1.22,3.97,0Z"/>
          <path class="cls-52" d="m5.03,1.1c1.21,1.21,1.32,3.08.24,4.17-1.08,1.08-2.95.98-4.17-.24C-.11,3.82,0,2.18,1.09,1.09s2.73-1.2,3.94.01Z"/>
          <path class="cls-41" d="m5.01,1.11c1.2,1.2,1.31,3.06.23,4.14-1.08,1.08-2.93.97-4.14-.23C-.09,3.81.02,2.17,1.1,1.1s2.71-1.19,3.92.01Z"/>
          <path class="cls-46" d="m4.99,1.12c1.19,1.19,1.3,3.03.23,4.1-1.07,1.07-2.91.96-4.1-.23C-.07,3.8.04,2.17,1.1,1.1s2.69-1.18,3.89.02Z"/>
          <path class="cls-7" d="m4.97,1.13c1.18,1.18,1.29,3.01.23,4.07-1.06,1.06-2.88.95-4.07-.23C-.05,3.79.05,2.17,1.11,1.11s2.68-1.16,3.86.02Z"/>
          <path class="cls-4" d="m4.95,1.14c1.18,1.18,1.28,2.98.23,4.03-1.05,1.05-2.86.95-4.03-.23C-.03,3.77.07,2.17,1.12,1.12s2.66-1.15,3.83.03Z"/>
          <path class="cls-11" d="m4.93,1.15c1.17,1.17,1.27,2.96.23,4-1.04,1.04-2.84.94-4-.23C-.01,3.76.08,2.16,1.12,1.12S3.76-.01,4.93,1.15Z"/>
          <path class="cls-15" d="m4.91,1.17c1.16,1.16,1.26,2.93.22,3.97-1.03,1.03-2.81.93-3.97-.22C0,3.75.1,2.16,1.13,1.13S3.75,0,4.91,1.17Z"/>
          <path class="cls-16" d="m4.89,1.18c1.15,1.15,1.25,2.91.22,3.93-1.02,1.02-2.79.92-3.93-.22C.03,3.74.11,2.16,1.14,1.14s2.61-1.1,3.75.04Z"/>
          <path class="cls-24" d="m4.87,1.19c1.14,1.14,1.23,2.89.22,3.9-1.01,1.01-2.76.92-3.9-.22C.05,3.73.13,2.16,1.14,1.14s2.59-1.09,3.72.05Z"/>
          <path class="cls-19" d="m4.84,1.2c1.13,1.13,1.22,2.86.22,3.87-1.01,1.01-2.74.91-3.87-.22C.07,3.72.14,2.15,1.15,1.15s2.57-1.08,3.7.05Z"/>
          <path class="cls-29" d="m4.82,1.21c1.12,1.12,1.21,2.84.22,3.83-1,1-2.72.9-3.83-.22C.09,3.71.16,2.15,1.15,1.15s2.55-1.06,3.67.05Z"/>
          <path class="cls-36" d="m4.8,1.22c1.11,1.11,1.2,2.81.21,3.8-.99.99-2.69.89-3.8-.21C.11,3.7.17,2.15,1.16,1.16s2.54-1.05,3.64.06Z"/>
          <path class="cls-39" d="m4.78,1.23c1.1,1.1,1.19,2.79.21,3.76-.98.98-2.67.88-3.76-.21C.13,3.68.19,2.15,1.17,1.17s2.52-1.03,3.61.06Z"/>
          <path class="cls-33" d="m4.76,1.24c1.09,1.09,1.18,2.76.21,3.73-.97.97-2.64.88-3.73-.21C.15,3.67.2,2.14,1.17,1.17s2.5-1.02,3.59.07Z"/>
          <path class="cls-45" d="m4.74,1.25c1.08,1.08,1.17,2.74.21,3.7-.96.96-2.62.87-3.7-.21C.17,3.66.22,2.14,1.18,1.18s2.48-1.01,3.56.07Z"/>
          <path class="cls-53" d="m4.72,1.26c1.07,1.07,1.16,2.71.21,3.66-.95.95-2.6.86-3.66-.21C.19,3.65.23,2.14,1.19,1.19s2.46-.99,3.53.08Z"/>
          <path class="cls-40" d="m4.7,1.27c1.06,1.06,1.15,2.69.21,3.63-.94.94-2.57.85-3.63-.21C.21,3.64.25,2.14,1.19,1.19s2.45-.98,3.5.08Z"/>
          <path class="cls-42" d="m4.68,1.28c1.05,1.05,1.14,2.66.2,3.6-.94.94-2.55.84-3.6-.2C.24,3.63.26,2.13,1.2,1.2s2.43-.96,3.48.08Z"/>
          <path class="cls-57" d="m4.65,1.29c1.04,1.04,1.13,2.64.2,3.56-.93.93-2.52.84-3.56-.2-1.04-1.04-1.02-2.52-.09-3.45s2.41-.95,3.45.09Z"/>
          <path class="cls-55" d="m4.63,1.3c1.03,1.03,1.12,2.61.2,3.53-.92.92-2.5.83-3.53-.2-1.03-1.03-1.01-2.5-.09-3.42s2.39-.93,3.42.09Z"/>
          <path class="cls-56" d="m4.61,1.31c1.02,1.02,1.11,2.59.2,3.5-.91.91-2.48.82-3.5-.2-1.02-1.02-1.01-2.49-.1-3.4s2.38-.92,3.4.1Z"/>
          <path class="cls-6" d="m4.59,1.33c1.01,1.01,1.1,2.56.2,3.46-.9.9-2.45.81-3.46-.2-1.01-1.01-1-2.47-.1-3.37s2.36-.91,3.37.1Z"/>
          <path class="cls-1" d="m4.57,1.34c1,1,1.09,2.54.19,3.43-.89.89-2.43.8-3.43-.19-1-1-1-2.45-.11-3.34s2.34-.89,3.34.11Z"/>
          <path class="cls-5" d="m4.55,1.35c.99.99,1.07,2.51.19,3.39-.88.88-2.41.8-3.39-.19-.99-.99-.99-2.43-.11-3.31s2.32-.88,3.31.11Z"/>
          <path class="cls-12" d="m4.53,1.36c.98.98,1.06,2.49.19,3.36-.87.87-2.38.79-3.36-.19-.98-.98-.99-2.41-.11-3.29s2.31-.86,3.29.11Z"/>
          <path class="cls-9" d="m4.51,1.37c.97.97,1.05,2.46.19,3.33-.87.87-2.36.78-3.33-.19-.97-.97-.98-2.39-.12-3.26s2.29-.85,3.26.12Z"/>
          <path class="cls-20" d="m4.49,1.38c.96.96,1.04,2.44.19,3.29-.86.86-2.33.77-3.29-.19-.96-.96-.98-2.37-.12-3.23s2.27-.84,3.23.12Z"/>
          <path class="cls-18" d="m4.46,1.39c.95.95,1.03,2.41.18,3.26-.85.85-2.31.77-3.26-.18-.95-.95-.98-2.36-.13-3.2s2.25-.82,3.2.13Z"/>
          <path class="cls-21" d="m4.44,1.4c.94.94,1.02,2.39.18,3.23-.84.84-2.29.76-3.23-.18-.94-.94-.97-2.34-.13-3.18s2.24-.81,3.18.13Z"/>
          <path class="cls-17" d="m4.42,1.41c.93.93,1.01,2.36.18,3.19-.83.83-2.26.75-3.19-.18-.93-.93-.97-2.32-.14-3.15s2.22-.79,3.15.14Z"/>
          <path class="cls-26" d="m4.4,1.42c.92.92,1,2.34.18,3.16-.82.82-2.24.74-3.16-.18-.92-.92-.96-2.3-.14-3.12s2.2-.78,3.12.14Z"/>
          <path class="cls-22" d="m4.38,1.43c.91.91.99,2.31.18,3.12-.81.81-2.21.73-3.12-.18-.91-.91-.96-2.28-.15-3.09s2.18-.76,3.09.15Z"/>
          <path class="cls-23" d="m4.36,1.44c.9.9.98,2.29.17,3.09-.8.8-2.19.73-3.09-.17-.9-.9-.95-2.26-.15-3.07s2.17-.75,3.07.15Z"/>
          <path class="cls-31" d="m4.34,1.45c.89.89.97,2.26.17,3.06-.8.8-2.17.72-3.06-.17-.89-.89-.95-2.24-.15-3.04s2.15-.74,3.04.15Z"/>
          <path class="cls-30" d="m4.32,1.46c.88.88.96,2.24.17,3.02-.79.79-2.14.71-3.02-.17-.88-.88-.95-2.22-.16-3.01s2.13-.72,3.01.16Z"/>
          <path class="cls-27" d="m4.3,1.47c.87.87.95,2.21.17,2.99-.78.78-2.12.7-2.99-.17-.87-.87-.94-2.21-.16-2.98s2.11-.71,2.98.16Z"/>
          <path class="cls-51" d="m4.27,1.49c.86.86.94,2.19.17,2.96-.77.77-2.1.69-2.96-.17s-.94-2.19-.17-2.96,2.1-.69,2.96.17Z"/>
        </g>
        <g>
          <g>
            <path class="cls-50" d="m5.33,3.88c-.06.14-.13.28-.21.41H.65c-.08-.13-.15-.27-.21-.41h4.9Z"/>
            <path class="cls-49" d="m5.47,3.47c-.03.14-.08.28-.13.41H.44c-.06-.13-.1-.27-.13-.41h5.16Z"/>
            <path class="cls-50" d="m5.53,3.06c-.01.14-.03.28-.06.41H.3c-.03-.13-.05-.27-.06-.41h5.29Z"/>
            <path class="cls-49" d="m5.12,4.29c-.09.15-.2.28-.32.41H.97c-.12-.12-.23-.26-.32-.41h4.47Z"/>
            <path class="cls-49" d="m4.3,5.1c-.41.26-.89.41-1.41.41s-1-.15-1.41-.41h2.83Z"/>
            <path class="cls-50" d="m4.8,4.7c-.15.16-.32.29-.5.41H1.47c-.18-.12-.35-.25-.5-.41h3.83Z"/>
            <path class="cls-50" d="m4.8,1.02H.97c.15-.16.32-.29.5-.41h2.82c.18.12.35.25.5.41Z"/>
            <path class="cls-49" d="m4.3.61H1.47c.08-.05.17-.1.26-.15,0,0,.02,0,.03-.01.03-.01.06-.03.09-.04.01,0,.03-.01.04-.02.31-.12.64-.19.99-.19h0c.52,0,1,.15,1.41.41Z"/>
            <path class="cls-49" d="m5.12,1.43H.65s.05-.07.07-.11c0,0,0,0,0,0,.07-.1.15-.2.24-.29h3.83c.12.12.23.26.32.41Z"/>
            <path class="cls-49" d="m5.47,2.25H.3c.03-.14.08-.28.13-.41h4.9c.05.13.1.27.13.41Z"/>
            <path class="cls-50" d="m5.33,1.84H.44s.02-.05.03-.08c.03-.06.06-.12.09-.18.03-.05.06-.1.09-.15h4.47c.08.13.15.27.21.41Z"/>
            <path class="cls-50" d="m5.53,2.66H.24s0-.03,0-.05c0-.05.01-.1.02-.15.01-.07.02-.14.04-.21h5.16c.03.13.05.27.06.41Z"/>
            <path class="cls-49" d="m5.54,2.86c0,.07,0,.14,0,.2H.24c0-.07,0-.14,0-.2s0-.14,0-.2h5.29c0,.07,0,.14,0,.2Z"/>
          </g>
          <g>
            <path class="cls-48" d="m2.88.21v2.86H.24c0-.07,0-.14,0-.2s0-.14,0-.2c0-.02,0-.03,0-.05,0-.05.01-.1.02-.15.01-.07.02-.14.04-.21.03-.14.08-.28.13-.41.01-.03.02-.05.03-.08.03-.06.06-.12.09-.18.03-.05.06-.1.09-.15.02-.04.05-.07.07-.11,0,0,0,0,0,0,.07-.1.15-.2.24-.29.15-.16.32-.29.5-.41.08-.05.17-.1.26-.15,0,0,.02,0,.03-.01.03-.01.06-.03.09-.04.01,0,.03-.01.04-.02.31-.12.64-.19.99-.19Z"/>
            <g>
              <g>
                <polygon class="cls-50" points="2.55 .34 2.59 .46 2.71 .46 2.61 .53 2.65 .64 2.55 .57 2.45 .64 2.49 .53 2.39 .46 2.51 .46 2.55 .34"/>
                <path class="cls-50" d="m1.97.61v.03s-.03-.03-.03-.03l-.06-.04-.06.04-.04.03v-.03s.04-.09.04-.09l-.08-.06s.02,0,.03-.01h.08v-.04s.04-.01.06-.02l.02.06h.12l-.1.07.03.09Z"/>
              </g>
              <g>
                <polygon class="cls-50" points="2.55 .91 2.59 1.03 2.71 1.03 2.61 1.1 2.65 1.21 2.55 1.14 2.45 1.21 2.49 1.1 2.39 1.03 2.51 1.03 2.55 .91"/>
                <polygon class="cls-50" points="1.88 .91 1.91 1.03 2.04 1.03 1.94 1.1 1.97 1.21 1.88 1.14 1.78 1.21 1.82 1.1 1.72 1.03 1.84 1.03 1.88 .91"/>
                <polygon class="cls-50" points="1.21 .91 1.24 1.03 1.36 1.03 1.27 1.1 1.3 1.21 1.21 1.14 1.11 1.21 1.14 1.1 1.05 1.03 1.17 1.03 1.21 .91"/>
              </g>
              <g>
                <polygon class="cls-50" points="2.55 1.48 2.59 1.6 2.71 1.6 2.61 1.67 2.65 1.79 2.55 1.71 2.45 1.79 2.49 1.67 2.39 1.6 2.51 1.6 2.55 1.48"/>
                <polygon class="cls-50" points="1.88 1.48 1.91 1.6 2.04 1.6 1.94 1.67 1.97 1.79 1.88 1.71 1.78 1.79 1.82 1.67 1.72 1.6 1.84 1.6 1.88 1.48"/>
                <polygon class="cls-50" points="1.21 1.48 1.24 1.6 1.36 1.6 1.27 1.67 1.3 1.79 1.21 1.71 1.11 1.79 1.14 1.67 1.05 1.6 1.17 1.6 1.21 1.48"/>
                <path class="cls-50" d="m.59,1.67l.04.11-.1-.07-.06.05c.03-.06.06-.12.09-.18v.02h.13l-.1.07Z"/>
              </g>
              <g>
                <polygon class="cls-50" points="2.55 2.06 2.59 2.17 2.71 2.17 2.61 2.24 2.65 2.36 2.55 2.29 2.45 2.36 2.49 2.24 2.39 2.17 2.51 2.17 2.55 2.06"/>
                <polygon class="cls-50" points="1.88 2.06 1.91 2.17 2.04 2.17 1.94 2.24 1.97 2.36 1.88 2.29 1.78 2.36 1.82 2.24 1.72 2.17 1.84 2.17 1.88 2.06"/>
                <polygon class="cls-50" points="1.21 2.06 1.24 2.17 1.36 2.17 1.27 2.24 1.3 2.36 1.21 2.29 1.11 2.36 1.14 2.24 1.05 2.17 1.17 2.17 1.21 2.06"/>
                <polygon class="cls-50" points=".53 2.06 .57 2.17 .69 2.17 .59 2.24 .63 2.36 .53 2.29 .44 2.36 .47 2.24 .38 2.17 .5 2.17 .53 2.06"/>
              </g>
              <g>
                <polygon class="cls-50" points="2.55 2.63 2.59 2.74 2.71 2.74 2.61 2.81 2.65 2.93 2.55 2.86 2.45 2.93 2.49 2.81 2.39 2.74 2.51 2.74 2.55 2.63"/>
                <polygon class="cls-50" points="1.88 2.63 1.91 2.74 2.04 2.74 1.94 2.81 1.97 2.93 1.88 2.86 1.78 2.93 1.82 2.81 1.72 2.74 1.84 2.74 1.88 2.63"/>
                <polygon class="cls-50" points="1.21 2.63 1.24 2.74 1.36 2.74 1.27 2.81 1.3 2.93 1.21 2.86 1.11 2.93 1.14 2.81 1.05 2.74 1.17 2.74 1.21 2.63"/>
                <polygon class="cls-50" points=".53 2.63 .57 2.74 .69 2.74 .59 2.81 .63 2.93 .53 2.86 .44 2.93 .47 2.81 .38 2.74 .5 2.74 .53 2.63"/>
              </g>
              <g>
                <polygon class="cls-50" points="2.21 2.34 2.25 2.46 2.37 2.46 2.27 2.53 2.31 2.64 2.21 2.57 2.12 2.64 2.15 2.53 2.05 2.46 2.18 2.46 2.21 2.34"/>
                <polygon class="cls-50" points="1.54 2.34 1.58 2.46 1.7 2.46 1.6 2.53 1.64 2.64 1.54 2.57 1.44 2.64 1.48 2.53 1.38 2.46 1.5 2.46 1.54 2.34"/>
                <polygon class="cls-50" points=".87 2.34 .91 2.46 1.03 2.46 .93 2.53 .97 2.64 .87 2.57 .77 2.64 .81 2.53 .71 2.46 .83 2.46 .87 2.34"/>
                <path class="cls-50" d="m.26,2.53l.04.12-.05-.04s.01-.1.02-.15h.09l-.1.07Z"/>
              </g>
              <g>
                <polygon class="cls-50" points="2.21 1.77 2.25 1.88 2.37 1.88 2.27 1.96 2.31 2.07 2.21 2 2.12 2.07 2.15 1.96 2.05 1.88 2.18 1.88 2.21 1.77"/>
                <polygon class="cls-50" points="1.54 1.77 1.58 1.88 1.7 1.88 1.6 1.96 1.64 2.07 1.54 2 1.44 2.07 1.48 1.96 1.38 1.88 1.5 1.88 1.54 1.77"/>
                <polygon class="cls-50" points=".87 1.77 .91 1.88 1.03 1.88 .93 1.96 .97 2.07 .87 2 .77 2.07 .81 1.96 .71 1.88 .83 1.88 .87 1.77"/>
              </g>
              <g>
                <polygon class="cls-50" points="2.21 1.2 2.25 1.31 2.37 1.31 2.27 1.38 2.31 1.5 2.21 1.43 2.12 1.5 2.15 1.38 2.05 1.31 2.18 1.31 2.21 1.2"/>
                <polygon class="cls-50" points="1.54 1.2 1.58 1.31 1.7 1.31 1.6 1.38 1.64 1.5 1.54 1.43 1.44 1.5 1.48 1.38 1.38 1.31 1.5 1.31 1.54 1.2"/>
                <polygon class="cls-50" points=".94 1.43 .97 1.5 .87 1.43 .87 1.43 .87 1.43 .77 1.5 .79 1.43 .81 1.38 .72 1.32 .73 1.31 .83 1.31 .87 1.2 .91 1.31 1.03 1.31 .93 1.38 .94 1.43"/>
              </g>
              <g>
                <polygon class="cls-50" points="2.21 .63 2.25 .74 2.37 .74 2.27 .81 2.31 .93 2.21 .86 2.12 .93 2.15 .81 2.05 .74 2.18 .74 2.21 .63"/>
                <polygon class="cls-50" points="1.54 .63 1.58 .74 1.7 .74 1.6 .81 1.64 .93 1.54 .86 1.44 .93 1.48 .81 1.38 .74 1.5 .74 1.54 .63"/>
              </g>
            </g>
          </g>
        </g>
        <g class="cls-58">
          <path class="cls-8" d="m4.76.98c1.03,1.03,1.03,2.72,0,3.75-1.03,1.03-2.72,1.03-3.75,0C-.02,3.7-.02,2.02,1.01.98,2.04-.05,3.73-.05,4.76.98Z"/>
          <path class="cls-37" d="m2.89.35c1.38,0,2.51,1.12,2.51,2.51s-1.12,2.51-2.51,2.51S.38,4.24.38,2.86,1.5.35,2.89.35Z"/>
        </g>
      </g>
    </g>
  </g>
</svg>