<svg width="66" height="36" viewBox="0 0 66 36" fill="none" xmlns="http://www.w3.org/2000/svg">
<path id="Exclude" fill-rule="evenodd" clip-rule="evenodd" d="M35.19 17.7727C35.19 21.0328 34.321 24.0879 32.8042 26.7145C31.2875 24.0879 30.4185 21.0328 30.4185 17.7727C30.4185 14.5126 31.2875 11.4576 32.8042 8.83096C34.321 11.4576 35.19 14.5126 35.19 17.7727ZM24.9014 1.60002C18.8309 4.40274 14.6128 10.5902 14.6128 17.7727C14.6128 24.9553 18.8309 31.1427 24.9014 33.9454C22.676 34.9729 20.2017 35.5455 17.595 35.5455C7.87755 35.5455 0 27.5883 0 17.7727C0 7.95712 7.87755 0 17.595 0C20.2017 0 22.676 0.572582 24.9014 1.60002ZM40.1106 1.88927C37.0606 3.4407 34.5186 5.86214 32.8042 8.83096C30.9793 5.67066 28.2166 3.13062 24.9014 1.60002C27.1268 0.572582 29.6011 0 32.2078 0C35.0498 0 37.7344 0.680611 40.1106 1.88927ZM40.1106 1.88927C42.4869 0.680612 45.1715 0 48.0135 0C57.7309 0 65.6085 7.95712 65.6085 17.7727C65.6085 27.5883 57.7309 35.5455 48.0135 35.5455C45.1715 35.5455 42.4869 34.8648 40.1106 33.6562C45.8592 30.7322 49.8028 24.7176 49.8028 17.7727C49.8028 10.8278 45.8592 4.8133 40.1106 1.88927ZM40.1106 33.6562C37.0606 32.1048 34.5186 29.6833 32.8042 26.7145C30.9793 29.8748 28.2166 32.4148 24.9014 33.9454C27.1268 34.9729 29.6011 35.5455 32.2078 35.5455C35.0498 35.5455 37.7344 34.8648 40.1106 33.6562Z" fill="#762991"/>
</svg>
