<?xml version="1.0" encoding="UTF-8"?>
<svg xmlns="http://www.w3.org/2000/svg" xmlns:xlink="http://www.w3.org/1999/xlink" viewBox="0 0 6.45 6.45">
  <defs>
    <style>
      .cls-1 {
        fill: #3b3a39;
        opacity: .73;
      }

      .cls-1, .cls-2, .cls-3, .cls-4, .cls-5, .cls-6, .cls-7, .cls-8, .cls-9, .cls-10, .cls-11, .cls-12, .cls-13, .cls-14, .cls-15, .cls-16, .cls-17, .cls-18, .cls-19, .cls-20, .cls-21, .cls-22, .cls-23, .cls-24, .cls-25, .cls-26, .cls-27, .cls-28, .cls-29, .cls-30, .cls-31, .cls-32, .cls-33, .cls-34, .cls-35, .cls-36, .cls-37, .cls-38, .cls-39, .cls-40, .cls-41, .cls-42, .cls-43, .cls-44, .cls-45, .cls-46, .cls-47, .cls-48, .cls-49, .cls-50, .cls-51, .cls-52, .cls-53, .cls-54, .cls-55, .cls-56 {
        stroke-width: 0px;
      }

      .cls-2 {
        fill: #b7b4b4;
        opacity: .2;
      }

      .cls-3 {
        fill: #b1aeae;
        opacity: .22;
      }

      .cls-4 {
        fill: #868383;
        opacity: .37;
      }

      .cls-5 {
        fill: #383636;
        opacity: .75;
      }

      .cls-6 {
        fill: #3f3d3c;
        opacity: .71;
      }

      .cls-7 {
        fill: #8b8888;
        opacity: .35;
      }

      .cls-8 {
        fill: url(#linear-gradient);
      }

      .cls-9 {
        fill: #312f2f;
        opacity: .78;
      }

      .cls-10 {
        fill: #e3e2e1;
        opacity: .06;
      }

      .cls-11 {
        fill: #817e7e;
        opacity: .39;
      }

      .cls-12 {
        fill: #343332;
        opacity: .76;
      }

      .cls-13 {
        fill: #bdbaba;
        opacity: .18;
      }

      .cls-14 {
        fill: #cfcdcd;
        opacity: .12;
      }

      .cls-57 {
        mix-blend-mode: multiply;
      }

      .cls-15 {
        fill: #7c7979;
        opacity: .41;
      }

      .cls-16 {
        fill: #787474;
        opacity: .43;
      }

      .cls-17 {
        fill: #222221;
        opacity: .86;
      }

      .cls-18 {
        fill: #2a2928;
        opacity: .82;
      }

      .cls-19 {
        fill: #6e6b6b;
        opacity: .47;
      }

      .cls-20 {
        fill: #2d2c2c;
        opacity: .8;
      }

      .cls-21 {
        fill: #262525;
        opacity: .84;
      }

      .cls-22 {
        fill: #1a1a1a;
        opacity: .9;
      }

      .cls-23 {
        fill: #161616;
        opacity: .92;
      }

      .cls-24 {
        fill: #737070;
        opacity: .45;
      }

      .cls-25 {
        fill: #c3c0c0;
        opacity: .16;
      }

      .cls-26 {
        fill: #1e1e1e;
        opacity: .88;
      }

      .cls-27 {
        fill: #070707;
        opacity: .98;
      }

      .cls-28 {
        fill: #d6d4d4;
        opacity: .1;
      }

      .cls-29 {
        fill: #6a6767;
        opacity: .49;
      }

      .cls-30 {
        fill: #0d0d0d;
        opacity: .96;
      }

      .cls-31 {
        fill: #121211;
        opacity: .94;
      }

      .cls-32 {
        fill: #a6a3a3;
        opacity: .25;
      }

      .cls-33 {
        fill: #5d5a5a;
        opacity: .55;
      }

      .cls-34 {
        fill: #a09d9d;
        opacity: .27;
      }

      .cls-35 {
        fill: #c9c7c7;
        opacity: .14;
      }

      .cls-36 {
        fill: #666362;
        opacity: .51;
      }

      .cls-37 {
        fill: url(#linear-gradient-2);
      }

      .cls-38 {
        fill: #f3f2f2;
        opacity: .02;
      }

      .cls-39 {
        fill: #615f5e;
        opacity: .53;
      }

      .cls-58 {
        isolation: isolate;
      }

      .cls-40 {
        fill: #524f4e;
        opacity: .61;
      }

      .cls-41 {
        fill: #969292;
        opacity: .31;
      }

      .cls-42 {
        fill: #4e4b4b;
        opacity: .63;
      }

      .cls-43 {
        fill: #eae9e9;
        opacity: .04;
      }

      .cls-44 {
        fill: #aba8a8;
        opacity: .24;
      }

      .cls-45 {
        fill: #595756;
        opacity: .57;
      }

      .cls-46 {
        fill: #908d8d;
        opacity: .33;
      }

      .cls-47 {
        fill: #079247;
      }

      .cls-48 {
        fill: #ce2b37;
      }

      .cls-49 {
        fill: #fff;
      }

      .cls-50 {
        fill: #010101;
      }

      .cls-51 {
        fill: #9b9898;
        opacity: .29;
      }

      .cls-52 {
        fill: #555352;
        opacity: .59;
      }

      .cls-53 {
        fill: #dcdbda;
        opacity: .08;
      }

      .cls-54 {
        fill: #464443;
        opacity: .67;
      }

      .cls-55 {
        fill: #434040;
        opacity: .69;
      }

      .cls-56 {
        fill: #4a4747;
        opacity: .65;
      }
    </style>
    <linearGradient id="linear-gradient" x1="-219.17" y1="-2.45" x2="-213.86" y2="-2.45" gradientTransform="translate(-148.48 -151.97) rotate(-135)" gradientUnits="userSpaceOnUse">
      <stop offset="0" stop-color="#989898"/>
      <stop offset=".1" stop-color="#a8a8a8"/>
      <stop offset=".37" stop-color="#cdcdcd"/>
      <stop offset=".61" stop-color="#e8e8e8"/>
      <stop offset=".83" stop-color="#f9f9f9"/>
      <stop offset="1" stop-color="#fff"/>
    </linearGradient>
    <linearGradient id="linear-gradient-2" x1="-160.3" y1="-46.92" x2="-156.8" y2="-43.42" gradientTransform="translate(161.41 48)" xlink:href="#linear-gradient"/>
  </defs>
  <g class="cls-58">
    <g id="Layer_1" data-name="Layer 1">
      <g>
        <g class="cls-57">
          <path class="cls-38" d="m5.33.95c1.35,1.35,1.47,3.43.26,4.64-1.16,1.16-3.13,1.1-4.48-.11-.05-.05-.11-.1-.16-.15C-.37,4.01-.21,2.3.91,1.09c.03-.03.06-.06.09-.09,1.21-1.21,2.97-1.4,4.33-.05Z"/>
          <path class="cls-43" d="m5.31.96c1.34,1.34,1.46,3.41.26,4.61-1.15,1.15-3.11,1.09-4.45-.11-.05-.05-.11-.1-.16-.15C-.35,3.99-.2,2.29.92,1.1c.03-.03.06-.06.09-.09,1.2-1.2,2.96-1.39,4.3-.04Z"/>
          <path class="cls-10" d="m5.29.97c1.33,1.33,1.45,3.38.26,4.57-1.15,1.15-3.09,1.08-4.42-.11-.05-.05-.11-.1-.16-.15C-.33,3.98-.18,2.29.93,1.1c.03-.03.06-.06.09-.09,1.19-1.19,2.94-1.37,4.27-.04Z"/>
          <path class="cls-53" d="m5.27.98c1.32,1.32,1.44,3.36.26,4.54-1.14,1.14-3.07,1.07-4.39-.12-.05-.05-.11-.1-.16-.15C-.31,3.97-.16,2.28.94,1.11c.03-.03.06-.06.09-.09,1.18-1.18,2.92-1.35,4.24-.03Z"/>
          <path class="cls-28" d="m5.25.99c1.31,1.31,1.43,3.33.25,4.51-1.13,1.13-3.05,1.06-4.36-.12-.05-.05-.11-.1-.16-.15C-.29,3.95-.15,2.28.95,1.11c.03-.03.06-.06.09-.09,1.17-1.17,2.9-1.34,4.21-.03Z"/>
          <path class="cls-14" d="m5.22,1.01c1.3,1.3,1.42,3.31.25,4.47-1.12,1.12-3.03,1.06-4.33-.12-.05-.05-.1-.1-.16-.15C-.27,3.94-.13,2.27.96,1.12c.03-.03.06-.06.09-.09,1.16-1.16,2.88-1.32,4.18-.02Z"/>
          <path class="cls-35" d="m5.2,1.02c1.29,1.29,1.41,3.28.25,4.44-1.11,1.11-3.01,1.05-4.3-.12-.05-.05-.1-.1-.15-.15C-.25,3.92-.12,2.27.96,1.12c.03-.03.06-.06.09-.09,1.16-1.15,2.86-1.31,4.15-.02Z"/>
          <path class="cls-25" d="m5.18,1.03c1.28,1.28,1.39,3.26.25,4.4-1.11,1.11-2.99,1.04-4.27-.12-.05-.05-.1-.1-.15-.15C-.23,3.91-.1,2.26.97,1.12c.03-.03.06-.06.09-.09,1.15-1.14,2.85-1.29,4.13-.01Z"/>
          <path class="cls-13" d="m5.16,1.04c1.27,1.27,1.38,3.23.25,4.37-1.1,1.1-2.96,1.03-4.24-.12-.05-.05-.1-.1-.15-.15C-.21,3.9-.09,2.26.98,1.13c.03-.03.06-.06.08-.09,1.14-1.13,2.83-1.27,4.1,0Z"/>
          <path class="cls-2" d="m5.14,1.05c1.26,1.26,1.37,3.21.25,4.34-1.09,1.09-2.94,1.02-4.21-.12-.05-.05-.1-.1-.15-.15C-.19,3.88-.07,2.25.99,1.13c.03-.03.06-.06.08-.09,1.13-1.12,2.81-1.26,4.07,0Z"/>
          <path class="cls-3" d="m5.12,1.06c1.25,1.25,1.36,3.18.24,4.3-1.08,1.08-2.92,1.02-4.18-.12-.05-.05-.1-.1-.15-.15C-.17,3.87-.05,2.25,1,1.14c.03-.03.06-.06.08-.09,1.12-1.11,2.79-1.24,4.04,0Z"/>
          <path class="cls-44" d="m5.1,1.07c1.24,1.24,1.35,3.16.24,4.27-1.07,1.07-2.9,1.01-4.15-.12-.05-.05-.1-.09-.15-.14C-.15,3.85-.04,2.24,1,1.14c.03-.03.05-.06.08-.08,1.11-1.1,2.77-1.23,4.01.01Z"/>
          <path class="cls-32" d="m5.08,1.08c1.23,1.23,1.34,3.13.24,4.24-1.07,1.07-2.88,1-4.12-.13-.05-.05-.1-.09-.15-.14C-.13,3.84-.02,2.24,1.01,1.15c.03-.03.05-.06.08-.08C2.2-.02,3.85-.15,5.08,1.08Z"/>
          <path class="cls-34" d="m5.06,1.09c1.22,1.22,1.33,3.11.24,4.2-1.06,1.06-2.86.99-4.09-.13-.05-.05-.1-.09-.15-.14C-.11,3.82,0,2.23,1.02,1.15c.03-.03.05-.06.08-.08C2.2,0,3.84-.13,5.06,1.09Z"/>
          <path class="cls-51" d="m5.03,1.1c1.21,1.21,1.32,3.08.24,4.17-1.05,1.05-2.84.98-4.05-.13-.05-.05-.1-.09-.15-.14C-.09,3.81.01,2.23,1.03,1.16c.03-.03.05-.06.08-.08C2.2,0,3.83-.11,5.03,1.1Z"/>
          <path class="cls-41" d="m5.01,1.11c1.2,1.2,1.31,3.06.23,4.14-1.04,1.04-2.82.98-4.02-.13-.05-.05-.1-.09-.15-.14C-.07,3.8.03,2.22,1.04,1.16c.03-.03.05-.05.08-.08C2.19.02,3.82-.09,5.01,1.11Z"/>
          <path class="cls-46" d="m4.99,1.12c1.19,1.19,1.3,3.03.23,4.1-1.04,1.04-2.8.97-3.99-.13-.05-.05-.1-.09-.14-.14C-.05,3.78.04,2.22,1.04,1.17c.03-.03.05-.05.08-.08C2.19.04,3.8-.06,4.99,1.12Z"/>
          <path class="cls-7" d="m4.97,1.13c1.18,1.18,1.29,3.01.23,4.07-1.03,1.03-2.78.96-3.96-.13-.05-.05-.1-.09-.14-.14C-.03,3.77.06,2.21,1.05,1.17c.03-.03.05-.05.08-.08C2.19.05,3.79-.04,4.97,1.13Z"/>
          <path class="cls-4" d="m4.95,1.14c1.18,1.18,1.28,2.98.23,4.03-1.02,1.02-2.76.95-3.93-.13-.05-.05-.1-.09-.14-.14C-.01,3.75.07,2.21,1.06,1.17c.03-.03.05-.05.08-.08C2.19.07,3.78-.02,4.95,1.14Z"/>
          <path class="cls-11" d="m4.93,1.15c1.17,1.17,1.27,2.96.23,4-1.01,1.01-2.74.94-3.9-.13-.05-.04-.1-.09-.14-.14C0,3.74.09,2.2,1.07,1.18c.03-.03.05-.05.08-.08C2.19.08,3.77,0,4.93,1.15Z"/>
          <path class="cls-15" d="m4.91,1.17c1.16,1.16,1.26,2.94.22,3.97-1,1-2.72.94-3.87-.13-.05-.04-.09-.09-.14-.14C.03,3.72.11,2.2,1.08,1.18c.03-.03.05-.05.08-.08C2.19.1,3.76.02,4.91,1.17Z"/>
          <path class="cls-16" d="m4.89,1.18c1.15,1.15,1.25,2.91.22,3.93-1,1-2.7.93-3.84-.14-.05-.04-.09-.09-.14-.14C.05,3.71.12,2.19,1.08,1.19c.03-.03.05-.05.08-.08C2.19.11,3.75.04,4.89,1.18Z"/>
          <path class="cls-24" d="m4.87,1.19c1.14,1.14,1.23,2.89.22,3.9-.99.99-2.67.92-3.81-.14-.05-.04-.09-.09-.14-.14C.07,3.7.14,2.19,1.09,1.19c.02-.03.05-.05.08-.08C2.19.13,3.74.06,4.87,1.19Z"/>
          <path class="cls-19" d="m4.84,1.2c1.13,1.13,1.22,2.86.22,3.87-.98.98-2.65.91-3.78-.14-.05-.04-.09-.09-.14-.14C.09,3.68.15,2.18,1.1,1.2c.02-.03.05-.05.08-.08,1.01-.98,2.55-1.04,3.67.08Z"/>
          <path class="cls-29" d="m4.82,1.21c1.12,1.12,1.21,2.84.22,3.83-.97.97-2.63.9-3.75-.14-.05-.04-.09-.09-.14-.14C.11,3.67.17,2.18,1.11,1.2c.02-.03.05-.05.08-.08,1-.97,2.53-1.02,3.64.08Z"/>
          <path class="cls-36" d="m4.8,1.22c1.11,1.11,1.2,2.81.21,3.8-.96.96-2.61.9-3.72-.14-.05-.04-.09-.09-.14-.13-1.04-1.09-.98-2.57-.05-3.54.02-.03.05-.05.07-.07.99-.96,2.52-1.01,3.61.09Z"/>
          <path class="cls-39" d="m4.78,1.23c1.1,1.1,1.19,2.79.21,3.76-.96.96-2.59.89-3.69-.14-.05-.04-.09-.09-.13-.13-1.02-1.08-.97-2.55-.05-3.51.02-.03.05-.05.07-.07.98-.95,2.5-.99,3.58.09Z"/>
          <path class="cls-33" d="m4.76,1.24c1.09,1.09,1.18,2.76.21,3.73-.95.95-2.57.88-3.66-.14-.05-.04-.09-.09-.13-.13-1.01-1.07-.96-2.53-.05-3.48.02-.02.05-.05.07-.07.97-.94,2.48-.98,3.55.1Z"/>
          <path class="cls-45" d="m4.74,1.25c1.08,1.08,1.17,2.74.21,3.7-.94.94-2.55.87-3.63-.14-.05-.04-.09-.09-.13-.13-1-1.06-.95-2.51-.05-3.45.02-.02.05-.05.07-.07.97-.93,2.46-.96,3.53.1Z"/>
          <path class="cls-52" d="m4.72,1.26c1.07,1.07,1.16,2.71.21,3.66-.93.93-2.53.86-3.6-.14-.05-.04-.09-.09-.13-.13-.99-1.05-.95-2.49-.05-3.42.02-.02.05-.05.07-.07.96-.92,2.44-.94,3.5.11Z"/>
          <path class="cls-40" d="m4.7,1.27c1.06,1.06,1.15,2.69.21,3.63-.93.93-2.51.85-3.57-.15-.04-.04-.09-.09-.13-.13-.98-1.04-.94-2.47-.05-3.4.02-.02.05-.05.07-.07.95-.91,2.42-.93,3.47.12Z"/>
          <path class="cls-42" d="m4.68,1.28c1.05,1.05,1.14,2.66.2,3.6-.92.92-2.49.85-3.54-.15-.04-.04-.09-.09-.13-.13-.97-1.03-.93-2.46-.05-3.37.02-.02.05-.05.07-.07.94-.9,2.41-.91,3.44.12Z"/>
          <path class="cls-56" d="m4.65,1.29c1.04,1.04,1.13,2.64.2,3.56-.91.91-2.47.84-3.51-.15-.04-.04-.09-.09-.13-.13-.96-1.03-.93-2.44-.05-3.34.02-.02.05-.05.07-.07.93-.89,2.39-.9,3.41.13Z"/>
          <path class="cls-54" d="m4.63,1.3c1.03,1.03,1.12,2.61.2,3.53-.9.9-2.45.83-3.48-.15-.04-.04-.09-.08-.13-.13-.95-1.02-.92-2.42-.05-3.31.02-.02.05-.05.07-.07.92-.88,2.37-.88,3.38.13Z"/>
          <path class="cls-55" d="m4.61,1.31c1.02,1.02,1.11,2.59.2,3.5-.89.89-2.43.82-3.44-.15-.04-.04-.09-.08-.13-.13-.94-1.01-.91-2.4-.05-3.29.02-.02.05-.05.07-.07.91-.87,2.35-.87,3.35.14Z"/>
          <path class="cls-6" d="m4.59,1.33c1.01,1.01,1.1,2.56.2,3.46-.89.89-2.41.81-3.41-.15-.04-.04-.08-.08-.13-.13-.92-1-.9-2.38-.05-3.26.02-.02.05-.05.07-.07.91-.86,2.33-.85,3.33.14Z"/>
          <path class="cls-1" d="m4.57,1.34c1,1,1.09,2.54.19,3.43-.88.88-2.39.81-3.38-.15-.04-.04-.08-.08-.12-.13-.91-.99-.9-2.36-.05-3.23.02-.02.05-.05.07-.07.9-.85,2.31-.83,3.3.15Z"/>
          <path class="cls-5" d="m4.55,1.35c.99.99,1.07,2.51.19,3.39-.87.87-2.36.8-3.35-.15-.04-.04-.08-.08-.12-.13-.9-.98-.89-2.35-.05-3.2.02-.02.04-.04.07-.07.89-.84,2.3-.82,3.27.15Z"/>
          <path class="cls-12" d="m4.53,1.36c.98.98,1.06,2.49.19,3.36-.86.86-2.34.79-3.32-.15-.04-.04-.08-.08-.12-.13-.89-.97-.88-2.33-.05-3.17.02-.02.04-.04.07-.07.88-.83,2.28-.8,3.24.16Z"/>
          <path class="cls-9" d="m4.51,1.37c.97.97,1.05,2.46.19,3.33-.86.86-2.32.78-3.29-.16-.04-.04-.08-.08-.12-.13-.88-.96-.87-2.31-.05-3.15.02-.02.04-.04.07-.07.87-.82,2.26-.79,3.21.16Z"/>
          <path class="cls-20" d="m4.49,1.38c.96.96,1.04,2.44.19,3.29-.85.85-2.3.77-3.26-.16-.04-.04-.08-.08-.12-.12-.87-.95-.87-2.29-.05-3.12.02-.02.04-.04.07-.06.86-.81,2.24-.77,3.18.17Z"/>
          <path class="cls-18" d="m4.46,1.39c.95.95,1.03,2.41.18,3.26-.84.84-2.28.77-3.23-.16-.04-.04-.08-.08-.12-.12-.86-.94-.86-2.27-.05-3.09.02-.02.04-.04.07-.06.85-.8,2.22-.76,3.15.18Z"/>
          <path class="cls-21" d="m4.44,1.4c.94.94,1.02,2.39.18,3.23-.83.83-2.26.76-3.2-.16-.04-.04-.08-.08-.12-.12-.85-.93-.85-2.25-.05-3.06.02-.02.04-.04.07-.06.85-.79,2.2-.74,3.12.18Z"/>
          <path class="cls-17" d="m4.42,1.41c.93.93,1.01,2.36.18,3.19-.82.82-2.24.75-3.17-.16-.04-.04-.08-.08-.12-.12-.83-.92-.84-2.23-.05-3.03.02-.02.04-.04.06-.06.84-.78,2.19-.72,3.1.19Z"/>
          <path class="cls-26" d="m4.4,1.42c.92.92,1,2.34.18,3.16-.82.82-2.22.74-3.14-.16-.04-.04-.08-.08-.12-.12-.82-.92-.84-2.22-.05-3.01.02-.02.04-.04.06-.06.83-.77,2.17-.71,3.07.19Z"/>
          <path class="cls-22" d="m4.38,1.43c.91.91.99,2.31.18,3.12-.81.81-2.2.73-3.11-.16-.04-.04-.08-.08-.12-.12-.81-.91-.83-2.2-.05-2.98.02-.02.04-.04.06-.06.82-.76,2.15-.69,3.04.2Z"/>
          <path class="cls-23" d="m4.36,1.44c.9.9.98,2.29.17,3.09-.8.8-2.18.73-3.08-.16-.04-.04-.08-.08-.11-.12-.8-.9-.82-2.18-.06-2.95.02-.02.04-.04.06-.06.81-.75,2.13-.68,3.01.2Z"/>
          <path class="cls-31" d="m4.34,1.45c.89.89.97,2.26.17,3.06-.79.79-2.16.72-3.05-.16-.04-.04-.08-.08-.11-.12-.79-.89-.81-2.16-.06-2.92.02-.02.04-.04.06-.06.8-.74,2.11-.66,2.98.21Z"/>
          <path class="cls-30" d="m4.32,1.46c.88.88.96,2.24.17,3.02-.78.78-2.14.71-3.02-.17-.04-.04-.08-.08-.11-.12-.78-.88-.81-2.14-.06-2.89.02-.02.04-.04.06-.06.79-.73,2.09-.65,2.95.21Z"/>
          <path class="cls-27" d="m4.3,1.47c.87.87.95,2.21.17,2.99-.78.78-2.12.7-2.99-.17-.04-.04-.08-.08-.11-.12-.77-.87-.8-2.12-.06-2.87.02-.02.04-.04.06-.06.79-.72,2.08-.63,2.92.22Z"/>
          <path class="cls-50" d="m4.27,1.49c.86.86.94,2.19.17,2.96-.77.77-2.1.69-2.96-.17-.86-.86-.94-2.19-.17-2.96.77-.77,2.1-.69,2.96.17Z"/>
        </g>
        <g>
          <path class="cls-48" d="m5.54,2.86c0-1.15-.74-2.14-1.77-2.5v5c1.03-.36,1.77-1.35,1.77-2.5Z"/>
          <path class="cls-49" d="m2.89,5.51c.31,0,.61-.05.88-.15V.36c-.28-.1-.57-.15-.88-.15s-.61.05-.88.15v5c.28.1.57.15.88.15Z"/>
          <path class="cls-47" d="m2,.36C.97.72.23,1.71.23,2.86s.74,2.14,1.77,2.5V.36Z"/>
        </g>
        <g class="cls-57">
          <path class="cls-8" d="m4.76.98c1.03,1.03,1.03,2.72,0,3.75-1.03,1.03-2.72,1.03-3.75,0C-.02,3.7-.02,2.02,1.01.98,2.04-.05,3.73-.05,4.76.98Z"/>
          <path class="cls-37" d="m2.89.35c1.38,0,2.51,1.12,2.51,2.51s-1.12,2.51-2.51,2.51S.38,4.24.38,2.86,1.5.35,2.89.35Z"/>
        </g>
      </g>
    </g>
  </g>
</svg>