<svg width="245" height="91" viewBox="0 0 245 91" fill="none" xmlns="http://www.w3.org/2000/svg">
<g id="bg">
<rect width="245" height="91" fill="white"/>
<g id="logo oficial">
<path id="Exclude" fill-rule="evenodd" clip-rule="evenodd" d="M55.19 44.7727C55.19 48.0328 54.321 51.0879 52.8042 53.7145C51.2875 51.0879 50.4185 48.0328 50.4185 44.7727C50.4185 41.5126 51.2875 38.4576 52.8042 35.831C54.321 38.4576 55.19 41.5126 55.19 44.7727ZM44.9014 28.6C38.8309 31.4027 34.6128 37.5902 34.6128 44.7727C34.6128 51.9553 38.8309 58.1427 44.9014 60.9454C42.676 61.9729 40.2017 62.5455 37.595 62.5455C27.8775 62.5455 20 54.5883 20 44.7727C20 34.9571 27.8775 27 37.595 27C40.2017 27 42.676 27.5726 44.9014 28.6ZM60.1106 28.8893C57.0606 30.4407 54.5186 32.8621 52.8042 35.831C50.9793 32.6707 48.2166 30.1306 44.9014 28.6C47.1268 27.5726 49.6011 27 52.2078 27C55.0498 27 57.7344 27.6806 60.1106 28.8893ZM60.1106 28.8893C62.4869 27.6806 65.1715 27 68.0135 27C77.7309 27 85.6085 34.9571 85.6085 44.7727C85.6085 54.5883 77.7309 62.5455 68.0135 62.5455C65.1715 62.5455 62.4869 61.8648 60.1106 60.6562C65.8592 57.7322 69.8028 51.7176 69.8028 44.7727C69.8028 37.8278 65.8592 31.8133 60.1106 28.8893ZM60.1106 60.6562C57.0606 59.1048 54.5186 56.6833 52.8042 53.7145C50.9793 56.8748 48.2166 59.4148 44.9014 60.9454C47.1268 61.9729 49.6011 62.5455 52.2078 62.5455C55.0498 62.5455 57.7344 61.8648 60.1106 60.6562Z" fill="#762991"/>
<g id="Digital">
<path d="M167.587 40.9545H164.293V30.2786H167.733C168.769 30.2786 169.655 30.4923 170.392 30.9198C171.129 31.3438 171.693 31.9537 172.086 32.7495C172.479 33.5419 172.675 34.4906 172.675 35.5957C172.675 36.7078 172.477 37.6652 172.081 38.468C171.685 39.2673 171.108 39.8824 170.35 40.3134C169.592 40.7408 168.672 40.9545 167.587 40.9545ZM165.586 39.8077H167.504C168.387 39.8077 169.118 39.6374 169.698 39.2969C170.279 38.9563 170.711 38.4715 170.996 37.8425C171.281 37.2134 171.424 36.4645 171.424 35.5957C171.424 34.7339 171.283 33.9919 171.002 33.3698C170.72 32.7443 170.3 32.2647 169.74 31.9311C169.181 31.594 168.484 31.4254 167.65 31.4254H165.586V39.8077Z" fill="#4F4F51"/>
<path d="M174.677 40.9545V32.9476H175.907V40.9545H174.677ZM175.302 31.6131C175.063 31.6131 174.856 31.5314 174.682 31.3681C174.512 31.2048 174.427 31.0084 174.427 30.779C174.427 30.5497 174.512 30.3533 174.682 30.19C174.856 30.0266 175.063 29.945 175.302 29.945C175.542 29.945 175.747 30.0266 175.917 30.19C176.091 30.3533 176.178 30.5497 176.178 30.779C176.178 31.0084 176.091 31.2048 175.917 31.3681C175.747 31.5314 175.542 31.6131 175.302 31.6131Z" fill="#4F4F51"/>
<path d="M181.392 44.124C180.798 44.124 180.287 44.0475 179.86 43.8946C179.432 43.7452 179.076 43.5471 178.791 43.3003C178.51 43.0571 178.285 42.7964 178.119 42.5184L179.099 41.8303C179.21 41.9763 179.351 42.1431 179.521 42.3307C179.691 42.5219 179.924 42.687 180.219 42.826C180.518 42.9684 180.909 43.0397 181.392 43.0397C182.039 43.0397 182.572 42.8833 182.993 42.5705C183.413 42.2578 183.623 41.7678 183.623 41.1005V39.4741H183.519C183.429 39.6201 183.3 39.8008 183.133 40.0162C182.97 40.2282 182.734 40.4176 182.424 40.5844C182.119 40.7478 181.705 40.8294 181.184 40.8294C180.537 40.8294 179.957 40.6765 179.443 40.3707C178.932 40.0649 178.527 39.6201 178.228 39.0362C177.933 38.4524 177.785 37.7434 177.785 36.9094C177.785 36.0892 177.929 35.375 178.218 34.7669C178.506 34.1552 178.907 33.6826 179.422 33.349C179.936 33.0119 180.53 32.8433 181.205 32.8433C181.726 32.8433 182.139 32.9302 182.445 33.104C182.755 33.2743 182.991 33.4689 183.154 33.6878C183.321 33.9033 183.45 34.0805 183.54 34.2195H183.665V32.9476H184.854V41.1839C184.854 41.872 184.697 42.4315 184.384 42.8625C184.075 43.2969 183.658 43.6148 183.133 43.8164C182.612 44.0214 182.032 44.124 181.392 44.124ZM181.351 39.7243C181.844 39.7243 182.261 39.6114 182.602 39.3855C182.942 39.1596 183.201 38.8346 183.378 38.4107C183.556 37.9867 183.644 37.4793 183.644 36.8885C183.644 36.3116 183.557 35.8025 183.384 35.3611C183.21 34.9198 182.953 34.574 182.612 34.3238C182.271 34.0736 181.851 33.9485 181.351 33.9485C180.829 33.9485 180.395 34.0805 180.047 34.3446C179.703 34.6088 179.444 34.9632 179.271 35.4081C179.1 35.8529 179.015 36.3464 179.015 36.8885C179.015 37.4446 179.102 37.9363 179.276 38.3638C179.453 38.7877 179.714 39.1214 180.058 39.3646C180.405 39.6044 180.836 39.7243 181.351 39.7243Z" fill="#4F4F51"/>
<path d="M187.106 40.9545V32.9476H188.336V40.9545H187.106ZM187.731 31.6131C187.491 31.6131 187.284 31.5314 187.111 31.3681C186.94 31.2048 186.855 31.0084 186.855 30.779C186.855 30.5497 186.94 30.3533 187.111 30.19C187.284 30.0266 187.491 29.945 187.731 29.945C187.971 29.945 188.176 30.0266 188.346 30.19C188.52 30.3533 188.607 30.5497 188.607 30.779C188.607 31.0084 188.52 31.2048 188.346 31.3681C188.176 31.5314 187.971 31.6131 187.731 31.6131Z" fill="#4F4F51"/>
<path d="M194.071 32.9476V33.9902H189.922V32.9476H194.071ZM191.131 31.0293H192.361V38.6609C192.361 39.0084 192.412 39.2691 192.513 39.4428C192.617 39.6131 192.749 39.7278 192.909 39.7869C193.072 39.8425 193.244 39.8703 193.425 39.8703C193.56 39.8703 193.672 39.8633 193.758 39.8494C193.845 39.832 193.915 39.8181 193.967 39.8077L194.217 40.9128C194.134 40.9441 194.017 40.9754 193.868 41.0067C193.718 41.0414 193.529 41.0588 193.3 41.0588C192.952 41.0588 192.612 40.9841 192.278 40.8347C191.948 40.6852 191.673 40.4576 191.454 40.1518C191.239 39.8459 191.131 39.4602 191.131 38.9945V31.0293Z" fill="#4F4F51"/>
<path d="M198.278 41.1422C197.771 41.1422 197.31 41.0466 196.897 40.8555C196.483 40.6609 196.155 40.3811 195.911 40.0162C195.668 39.6479 195.546 39.203 195.546 38.6817C195.546 38.223 195.637 37.8512 195.818 37.5662C195.998 37.2777 196.24 37.0518 196.542 36.8885C196.844 36.7252 197.178 36.6035 197.543 36.5236C197.911 36.4402 198.281 36.3742 198.653 36.3255C199.14 36.263 199.534 36.2161 199.837 36.1848C200.142 36.15 200.365 36.0927 200.504 36.0128C200.646 35.9328 200.718 35.7938 200.718 35.5957V35.554C200.718 35.0397 200.577 34.64 200.295 34.3551C200.017 34.0701 199.595 33.9276 199.029 33.9276C198.441 33.9276 197.981 34.0562 197.647 34.3134C197.314 34.5705 197.079 34.8451 196.944 35.137L195.776 34.72C195.984 34.2334 196.262 33.8546 196.61 33.5836C196.961 33.309 197.343 33.1179 197.757 33.0101C198.174 32.8989 198.584 32.8433 198.987 32.8433C199.244 32.8433 199.54 32.8746 199.873 32.9372C200.21 32.9962 200.535 33.1196 200.848 33.3073C201.164 33.4949 201.427 33.7782 201.635 34.157C201.844 34.5358 201.948 35.0432 201.948 35.6791V40.9545H200.718V39.8703H200.655C200.572 40.044 200.433 40.23 200.238 40.428C200.043 40.6261 199.785 40.7947 199.461 40.9337C199.138 41.0727 198.744 41.1422 198.278 41.1422ZM198.466 40.0371C198.952 40.0371 199.362 39.9415 199.696 39.7504C200.033 39.5592 200.287 39.3125 200.457 39.0101C200.631 38.7078 200.718 38.3898 200.718 38.0562V36.9302C200.665 36.9928 200.551 37.0501 200.374 37.1022C200.2 37.1509 199.998 37.1943 199.769 37.2326C199.543 37.2673 199.322 37.2986 199.107 37.3264C198.895 37.3507 198.723 37.3716 198.591 37.3889C198.271 37.4306 197.972 37.4984 197.694 37.5922C197.42 37.6826 197.197 37.8199 197.027 38.0041C196.86 38.1848 196.777 38.4315 196.777 38.7443C196.777 39.1717 196.935 39.4949 197.251 39.7139C197.571 39.9293 197.976 40.0371 198.466 40.0371Z" fill="#4F4F51"/>
<path d="M205.424 30.2786V40.9545H204.193V30.2786H205.424Z" fill="#4F4F51"/>
</g>
<g id="WB">
<path d="M98.5973 60.5455L89.8892 29.1472H94.8718L100.989 53.4625H101.28L107.643 29.1472H112.579L118.942 53.4778H119.233L125.335 29.1472H130.333L121.609 60.5455H116.841L110.234 37.0274H109.988L103.381 60.5455H98.5973Z" fill="black"/>
<path d="M134.652 60.5455V29.1472H146.151C148.379 29.1472 150.224 29.5152 151.685 30.2511C153.147 30.9767 154.24 31.963 154.966 33.21C155.692 34.4467 156.055 35.8418 156.055 37.3954C156.055 38.7036 155.814 39.8075 155.334 40.7069C154.854 41.5961 154.21 42.3116 153.402 42.8533C152.605 43.3848 151.726 43.7732 150.765 44.0185V44.3251C151.808 44.3762 152.825 44.7135 153.816 45.3369C154.818 45.9502 155.646 46.8241 156.3 47.9586C156.954 49.0931 157.281 50.4729 157.281 52.098C157.281 53.7026 156.903 55.1438 156.147 56.4214C155.401 57.6887 154.246 58.6955 152.682 59.4416C151.118 60.1775 149.12 60.5455 146.687 60.5455H134.652ZM139.39 56.4827H146.227C148.496 56.4827 150.121 56.0432 151.103 55.1642C152.084 54.2852 152.574 53.1865 152.574 51.868C152.574 50.8766 152.324 49.9669 151.823 49.1391C151.322 48.3112 150.607 47.6519 149.677 47.1613C148.757 46.6707 147.663 46.4254 146.396 46.4254H139.39V56.4827ZM139.39 42.7306H145.737C146.8 42.7306 147.755 42.5262 148.604 42.1174C149.462 41.7086 150.142 41.1362 150.643 40.4003C151.154 39.6542 151.409 38.7752 151.409 37.7633C151.409 36.4653 150.954 35.3768 150.045 34.4978C149.135 33.6188 147.74 33.1793 145.859 33.1793H139.39V42.7306Z" fill="black"/>
</g>
<g id="Solutions">
<path d="M170.131 49.7203C170.069 49.1921 169.815 48.782 169.37 48.4901C168.925 48.1982 168.38 48.0522 167.733 48.0522C167.261 48.0522 166.847 48.1287 166.493 48.2816C166.142 48.4345 165.867 48.6447 165.669 48.9123C165.474 49.1799 165.377 49.484 165.377 49.8246C165.377 50.1095 165.445 50.3546 165.58 50.5596C165.719 50.7612 165.897 50.9297 166.112 51.0652C166.327 51.1973 166.553 51.3068 166.79 51.3937C167.026 51.4771 167.243 51.5448 167.441 51.597L168.526 51.8889C168.804 51.9619 169.113 52.0626 169.453 52.1912C169.798 52.3198 170.126 52.4953 170.439 52.7177C170.755 52.9367 171.016 53.2182 171.221 53.5622C171.426 53.9063 171.528 54.3285 171.528 54.8289C171.528 55.4058 171.377 55.9271 171.075 56.3928C170.776 56.8585 170.338 57.2286 169.761 57.5031C169.188 57.7777 168.491 57.9149 167.671 57.9149C166.906 57.9149 166.244 57.7916 165.685 57.5448C165.129 57.2981 164.691 56.954 164.371 56.5127C164.055 56.0713 163.876 55.5587 163.834 54.9749H165.168C165.203 55.378 165.339 55.7116 165.575 55.9758C165.815 56.2364 166.117 56.431 166.482 56.5596C166.85 56.6847 167.247 56.7473 167.671 56.7473C168.164 56.7473 168.607 56.6673 169 56.5075C169.393 56.3441 169.704 56.1182 169.933 55.8298C170.162 55.5379 170.277 55.1973 170.277 54.8081C170.277 54.4536 170.178 54.1652 169.98 53.9427C169.782 53.7203 169.521 53.5396 169.198 53.4006C168.875 53.2616 168.526 53.14 168.15 53.0357L166.837 52.6604C166.003 52.4206 165.342 52.0783 164.856 51.6334C164.369 51.1886 164.126 50.6065 164.126 49.8871C164.126 49.2894 164.288 48.7681 164.611 48.3233C164.937 47.875 165.375 47.5274 165.924 47.2807C166.477 47.0305 167.094 46.9054 167.775 46.9054C168.463 46.9054 169.075 47.0287 169.61 47.2755C170.145 47.5188 170.569 47.8524 170.882 48.2764C171.198 48.7003 171.365 49.1817 171.382 49.7203H170.131Z" fill="#4F4F51"/>
<path d="M176.74 57.8941C176.017 57.8941 175.383 57.7221 174.837 57.378C174.295 57.034 173.871 56.5527 173.565 55.9341C173.263 55.3155 173.112 54.5926 173.112 53.7655C173.112 52.9314 173.263 52.2034 173.565 51.5813C173.871 50.9592 174.295 50.4762 174.837 50.1321C175.383 49.7881 176.017 49.6161 176.74 49.6161C177.463 49.6161 178.095 49.7881 178.637 50.1321C179.183 50.4762 179.607 50.9592 179.909 51.5813C180.215 52.2034 180.368 52.9314 180.368 53.7655C180.368 54.5926 180.215 55.3155 179.909 55.9341C179.607 56.5527 179.183 57.034 178.637 57.378C178.095 57.7221 177.463 57.8941 176.74 57.8941ZM176.74 56.789C177.289 56.789 177.741 56.6482 178.095 56.3667C178.45 56.0852 178.712 55.7151 178.882 55.2564C179.053 54.7977 179.138 54.3007 179.138 53.7655C179.138 53.2303 179.053 52.7316 178.882 52.2694C178.712 51.8072 178.45 51.4336 178.095 51.1486C177.741 50.8637 177.289 50.7212 176.74 50.7212C176.191 50.7212 175.739 50.8637 175.384 51.1486C175.03 51.4336 174.768 51.8072 174.597 52.2694C174.427 52.7316 174.342 53.2303 174.342 53.7655C174.342 54.3007 174.427 54.7977 174.597 55.2564C174.768 55.7151 175.03 56.0852 175.384 56.3667C175.739 56.6482 176.191 56.789 176.74 56.789Z" fill="#4F4F51"/>
<path d="M183.476 47.0513V57.7273H182.246V47.0513H183.476Z" fill="#4F4F51"/>
<path d="M190.775 54.4536V49.7203H192.006V57.7273H190.775V56.3719H190.692C190.504 56.7785 190.212 57.1243 189.816 57.4093C189.42 57.6908 188.92 57.8315 188.315 57.8315C187.814 57.8315 187.37 57.7221 186.98 57.5031C186.591 57.2807 186.285 56.9471 186.063 56.5023C185.841 56.054 185.729 55.4892 185.729 54.8081V49.7203H186.96V54.7247C186.96 55.3085 187.123 55.7742 187.45 56.1217C187.78 56.4692 188.2 56.643 188.711 56.643C189.017 56.643 189.328 56.5648 189.644 56.4084C189.964 56.252 190.231 56.0123 190.447 55.6891C190.666 55.3659 190.775 54.954 190.775 54.4536Z" fill="#4F4F51"/>
<path d="M197.741 49.7203V50.7629H193.592V49.7203H197.741ZM194.801 47.802H196.031V55.4336C196.031 55.7811 196.082 56.0418 196.182 56.2156C196.287 56.3858 196.419 56.5005 196.579 56.5596C196.742 56.6152 196.914 56.643 197.095 56.643C197.23 56.643 197.341 56.6361 197.428 56.6222C197.515 56.6048 197.585 56.5909 197.637 56.5805L197.887 57.6856C197.804 57.7169 197.687 57.7481 197.538 57.7794C197.388 57.8142 197.199 57.8315 196.97 57.8315C196.622 57.8315 196.281 57.7568 195.948 57.6074C195.618 57.458 195.343 57.2303 195.124 56.9245C194.909 56.6187 194.801 56.2329 194.801 55.7672V47.802Z" fill="#4F4F51"/>
<path d="M199.592 57.7273V49.7203H200.822V57.7273H199.592ZM200.217 48.3858C199.977 48.3858 199.771 48.3042 199.597 48.1408C199.427 47.9775 199.341 47.7811 199.341 47.5518C199.341 47.3224 199.427 47.1261 199.597 46.9627C199.771 46.7994 199.977 46.7177 200.217 46.7177C200.457 46.7177 200.662 46.7994 200.832 46.9627C201.006 47.1261 201.093 47.3224 201.093 47.5518C201.093 47.7811 201.006 47.9775 200.832 48.1408C200.662 48.3042 200.457 48.3858 200.217 48.3858Z" fill="#4F4F51"/>
<path d="M206.328 57.8941C205.605 57.8941 204.971 57.7221 204.425 57.378C203.883 57.034 203.459 56.5527 203.153 55.9341C202.851 55.3155 202.7 54.5926 202.7 53.7655C202.7 52.9314 202.851 52.2034 203.153 51.5813C203.459 50.9592 203.883 50.4762 204.425 50.1321C204.971 49.7881 205.605 49.6161 206.328 49.6161C207.051 49.6161 207.683 49.7881 208.225 50.1321C208.771 50.4762 209.195 50.9592 209.497 51.5813C209.803 52.2034 209.956 52.9314 209.956 53.7655C209.956 54.5926 209.803 55.3155 209.497 55.9341C209.195 56.5527 208.771 57.034 208.225 57.378C207.683 57.7221 207.051 57.8941 206.328 57.8941ZM206.328 56.789C206.877 56.789 207.329 56.6482 207.683 56.3667C208.038 56.0852 208.3 55.7151 208.47 55.2564C208.641 54.7977 208.726 54.3007 208.726 53.7655C208.726 53.2303 208.641 52.7316 208.47 52.2694C208.3 51.8072 208.038 51.4336 207.683 51.1486C207.329 50.8637 206.877 50.7212 206.328 50.7212C205.779 50.7212 205.327 50.8637 204.973 51.1486C204.618 51.4336 204.356 51.8072 204.185 52.2694C204.015 52.7316 203.93 53.2303 203.93 53.7655C203.93 54.3007 204.015 54.7977 204.185 55.2564C204.356 55.7151 204.618 56.0852 204.973 56.3667C205.327 56.6482 205.779 56.789 206.328 56.789Z" fill="#4F4F51"/>
<path d="M213.064 52.9106V57.7273H211.834V49.7203H213.023V50.9714H213.127C213.314 50.5648 213.599 50.2381 213.982 49.9914C214.364 49.7412 214.858 49.6161 215.462 49.6161C216.004 49.6161 216.479 49.7273 216.885 49.9497C217.292 50.1686 217.608 50.5023 217.834 50.9506C218.06 51.3954 218.173 51.9584 218.173 52.6395V57.7273H216.943V52.7229C216.943 52.0939 216.779 51.6039 216.453 51.2529C216.126 50.8984 215.678 50.7212 215.108 50.7212C214.715 50.7212 214.364 50.8063 214.055 50.9766C213.749 51.1469 213.507 51.3954 213.33 51.7221C213.153 52.0487 213.064 52.4449 213.064 52.9106Z" fill="#4F4F51"/>
<path d="M226.093 51.5135L224.987 51.8263C224.918 51.6421 224.815 51.4632 224.68 51.2894C224.548 51.1122 224.367 50.9662 224.138 50.8515C223.908 50.7368 223.615 50.6795 223.257 50.6795C222.767 50.6795 222.358 50.7924 222.032 51.0183C221.709 51.2407 221.547 51.524 221.547 51.868C221.547 52.1738 221.658 52.4154 221.881 52.5926C222.103 52.7698 222.45 52.9175 222.923 53.0357L224.112 53.3276C224.828 53.5014 225.361 53.7672 225.712 54.1252C226.063 54.4797 226.238 54.9367 226.238 55.4962C226.238 55.9549 226.106 56.365 225.842 56.7264C225.582 57.0878 225.217 57.3728 224.748 57.5813C224.278 57.7898 223.733 57.8941 223.111 57.8941C222.294 57.8941 221.618 57.7169 221.083 57.3624C220.548 57.0079 220.209 56.4901 220.066 55.8089L221.234 55.517C221.345 55.948 221.556 56.2712 221.865 56.4866C222.178 56.7021 222.586 56.8098 223.09 56.8098C223.663 56.8098 224.119 56.6882 224.456 56.4449C224.796 56.1982 224.967 55.9028 224.967 55.5587C224.967 55.2807 224.869 55.0479 224.675 54.8602C224.48 54.6691 224.181 54.5266 223.778 54.4328L222.444 54.12C221.71 53.9462 221.172 53.6769 220.828 53.312C220.487 52.9436 220.317 52.4831 220.317 51.9306C220.317 51.4788 220.444 51.0791 220.697 50.7316C220.954 50.3841 221.304 50.1113 221.745 49.9132C222.19 49.7151 222.694 49.6161 223.257 49.6161C224.049 49.6161 224.671 49.7898 225.123 50.1374C225.578 50.4849 225.901 50.9436 226.093 51.5135Z" fill="#4F4F51"/>
</g>
</g>
</g>
</svg>
