<svg width="207" height="36" viewBox="0 0 207 36" fill="none" xmlns="http://www.w3.org/2000/svg">
<g id="logo oficial">
<path id="Exclude" fill-rule="evenodd" clip-rule="evenodd" d="M35.19 17.7727C35.19 21.0328 34.321 24.0879 32.8042 26.7145C31.2875 24.0879 30.4185 21.0328 30.4185 17.7727C30.4185 14.5126 31.2875 11.4576 32.8042 8.83096C34.321 11.4576 35.19 14.5126 35.19 17.7727ZM24.9014 1.60002C18.8309 4.40274 14.6128 10.5902 14.6128 17.7727C14.6128 24.9553 18.8309 31.1427 24.9014 33.9454C22.676 34.9729 20.2017 35.5455 17.595 35.5455C7.87755 35.5455 0 27.5883 0 17.7727C0 7.95712 7.87755 0 17.595 0C20.2017 0 22.676 0.572582 24.9014 1.60002ZM40.1106 1.88927C37.0606 3.4407 34.5186 5.86214 32.8042 8.83096C30.9793 5.67066 28.2166 3.13062 24.9014 1.60002C27.1268 0.572582 29.6011 0 32.2078 0C35.0498 0 37.7344 0.680611 40.1106 1.88927ZM40.1106 1.88927C42.4869 0.680612 45.1715 0 48.0135 0C57.7309 0 65.6085 7.95712 65.6085 17.7727C65.6085 27.5883 57.7309 35.5455 48.0135 35.5455C45.1715 35.5455 42.4869 34.8648 40.1106 33.6562C45.8592 30.7322 49.8028 24.7176 49.8028 17.7727C49.8028 10.8278 45.8592 4.8133 40.1106 1.88927ZM40.1106 33.6562C37.0606 32.1048 34.5186 29.6833 32.8042 26.7145C30.9793 29.8748 28.2166 32.4148 24.9014 33.9454C27.1268 34.9729 29.6011 35.5455 32.2078 35.5455C35.0498 35.5455 37.7344 34.8648 40.1106 33.6562Z" fill="#762991"/>
<g id="Digital">
<path d="M147.587 13.9545H144.293V3.2786H147.733C148.769 3.2786 149.655 3.49233 150.392 3.91978C151.129 4.34376 151.693 4.95367 152.086 5.7495C152.479 6.54185 152.675 7.49059 152.675 8.59572C152.675 9.7078 152.477 10.6652 152.081 11.468C151.685 12.2673 151.108 12.8824 150.35 13.3134C149.592 13.7408 148.672 13.9545 147.587 13.9545ZM145.586 12.8077H147.504C148.387 12.8077 149.118 12.6374 149.698 12.2969C150.279 11.9563 150.711 11.4715 150.996 10.8425C151.281 10.2134 151.424 9.46453 151.424 8.59572C151.424 7.73386 151.283 6.9919 151.002 6.36983C150.72 5.74428 150.3 5.2647 149.74 4.93108C149.181 4.59398 148.484 4.42543 147.65 4.42543H145.586V12.8077Z" fill="#4F4F51"/>
<path d="M154.677 13.9545V5.94759H155.907V13.9545H154.677ZM155.302 4.61309C155.063 4.61309 154.856 4.53142 154.682 4.36809C154.512 4.20475 154.427 4.0084 154.427 3.77904C154.427 3.54967 154.512 3.35332 154.682 3.18998C154.856 3.02664 155.063 2.94498 155.302 2.94498C155.542 2.94498 155.747 3.02664 155.917 3.18998C156.091 3.35332 156.178 3.54967 156.178 3.77904C156.178 4.0084 156.091 4.20475 155.917 4.36809C155.747 4.53142 155.542 4.61309 155.302 4.61309Z" fill="#4F4F51"/>
<path d="M161.392 17.124C160.798 17.124 160.287 17.0475 159.86 16.8946C159.432 16.7452 159.076 16.5471 158.791 16.3003C158.51 16.0571 158.285 15.7964 158.119 15.5184L159.099 14.8303C159.21 14.9763 159.351 15.1431 159.521 15.3307C159.691 15.5219 159.924 15.687 160.219 15.826C160.518 15.9684 160.909 16.0397 161.392 16.0397C162.039 16.0397 162.572 15.8833 162.993 15.5705C163.413 15.2578 163.623 14.7678 163.623 14.1005V12.4741H163.519C163.429 12.6201 163.3 12.8008 163.133 13.0162C162.97 13.2282 162.734 13.4176 162.424 13.5844C162.119 13.7478 161.705 13.8294 161.184 13.8294C160.537 13.8294 159.957 13.6765 159.443 13.3707C158.932 13.0649 158.527 12.6201 158.228 12.0362C157.933 11.4524 157.785 10.7434 157.785 9.90936C157.785 9.08921 157.929 8.37504 158.218 7.76688C158.506 7.15523 158.907 6.6826 159.422 6.34898C159.936 6.01188 160.53 5.84333 161.205 5.84333C161.726 5.84333 162.139 5.93021 162.445 6.10397C162.755 6.27426 162.991 6.46887 163.154 6.68781C163.321 6.90328 163.45 7.08052 163.54 7.21953H163.665V5.94759H164.854V14.1839C164.854 14.872 164.697 15.4315 164.384 15.8625C164.075 16.2969 163.658 16.6148 163.133 16.8164C162.612 17.0214 162.032 17.124 161.392 17.124ZM161.351 12.7243C161.844 12.7243 162.261 12.6114 162.602 12.3855C162.942 12.1596 163.201 11.8346 163.378 11.4107C163.556 10.9867 163.644 10.4793 163.644 9.88851C163.644 9.31162 163.557 8.8025 163.384 8.36114C163.21 7.91979 162.953 7.574 162.612 7.32378C162.271 7.07356 161.851 6.94846 161.351 6.94846C160.829 6.94846 160.395 7.08052 160.047 7.34463C159.703 7.60875 159.444 7.96323 159.271 8.40806C159.1 8.85289 159.015 9.34637 159.015 9.88851C159.015 10.4446 159.102 10.9363 159.276 11.3638C159.453 11.7877 159.714 12.1214 160.058 12.3646C160.405 12.6044 160.836 12.7243 161.351 12.7243Z" fill="#4F4F51"/>
<path d="M167.106 13.9545V5.94759H168.336V13.9545H167.106ZM167.731 4.61309C167.491 4.61309 167.284 4.53142 167.111 4.36809C166.94 4.20475 166.855 4.0084 166.855 3.77904C166.855 3.54967 166.94 3.35332 167.111 3.18998C167.284 3.02664 167.491 2.94498 167.731 2.94498C167.971 2.94498 168.176 3.02664 168.346 3.18998C168.52 3.35332 168.607 3.54967 168.607 3.77904C168.607 4.0084 168.52 4.20475 168.346 4.36809C168.176 4.53142 167.971 4.61309 167.731 4.61309Z" fill="#4F4F51"/>
<path d="M174.071 5.94759V6.99016H169.922V5.94759H174.071ZM171.131 4.02925H172.361V11.6609C172.361 12.0084 172.412 12.2691 172.513 12.4428C172.617 12.6131 172.749 12.7278 172.909 12.7869C173.072 12.8425 173.244 12.8703 173.425 12.8703C173.56 12.8703 173.672 12.8633 173.758 12.8494C173.845 12.832 173.915 12.8181 173.967 12.8077L174.217 13.9128C174.134 13.9441 174.017 13.9754 173.868 14.0067C173.718 14.0414 173.529 14.0588 173.3 14.0588C172.952 14.0588 172.612 13.9841 172.278 13.8347C171.948 13.6852 171.673 13.4576 171.454 13.1518C171.239 12.8459 171.131 12.4602 171.131 11.9945V4.02925Z" fill="#4F4F51"/>
<path d="M178.278 14.1422C177.771 14.1422 177.31 14.0466 176.897 13.8555C176.483 13.6609 176.155 13.3811 175.911 13.0162C175.668 12.6479 175.546 12.203 175.546 11.6817C175.546 11.223 175.637 10.8512 175.818 10.5662C175.998 10.2777 176.24 10.0518 176.542 9.88851C176.844 9.72518 177.178 9.60354 177.543 9.52361C177.911 9.44021 178.281 9.37418 178.653 9.32552C179.14 9.26297 179.534 9.21605 179.837 9.18477C180.142 9.15002 180.365 9.09268 180.504 9.01275C180.646 8.93282 180.718 8.79381 180.718 8.59572V8.55402C180.718 8.03968 180.577 7.64003 180.295 7.35506C180.017 7.07009 179.595 6.92761 179.029 6.92761C178.441 6.92761 177.981 7.05619 177.647 7.31336C177.314 7.57052 177.079 7.84507 176.944 8.13699L175.776 7.71996C175.984 7.23343 176.262 6.85462 176.61 6.58356C176.961 6.30901 177.343 6.11787 177.757 6.01014C178.174 5.89893 178.584 5.84333 178.987 5.84333C179.244 5.84333 179.54 5.87461 179.873 5.93716C180.21 5.99624 180.535 6.11961 180.848 6.30727C181.164 6.49494 181.427 6.77817 181.635 7.15697C181.844 7.53577 181.948 8.04316 181.948 8.67913V13.9545H180.718V12.8703H180.655C180.572 13.044 180.433 13.23 180.238 13.428C180.043 13.6261 179.785 13.7947 179.461 13.9337C179.138 14.0727 178.744 14.1422 178.278 14.1422ZM178.466 13.0371C178.952 13.0371 179.362 12.9415 179.696 12.7504C180.033 12.5592 180.287 12.3125 180.457 12.0101C180.631 11.7078 180.718 11.3898 180.718 11.0562V9.93021C180.665 9.99277 180.551 10.0501 180.374 10.1022C180.2 10.1509 179.998 10.1943 179.769 10.2326C179.543 10.2673 179.322 10.2986 179.107 10.3264C178.895 10.3507 178.723 10.3716 178.591 10.3889C178.271 10.4306 177.972 10.4984 177.694 10.5922C177.42 10.6826 177.197 10.8199 177.027 11.0041C176.86 11.1848 176.777 11.4315 176.777 11.7443C176.777 12.1717 176.935 12.4949 177.251 12.7139C177.571 12.9293 177.976 13.0371 178.466 13.0371Z" fill="#4F4F51"/>
<path d="M185.424 3.2786V13.9545H184.193V3.2786H185.424Z" fill="#4F4F51"/>
</g>
<g id="WB">
<path d="M78.5973 33.5455L69.8892 2.14722H74.8718L80.9889 26.4625H81.2802L87.6427 2.14722H92.5793L98.9417 26.4778H99.233L105.335 2.14722H110.333L101.609 33.5455H96.8414L90.2336 10.0274H89.9883L83.3806 33.5455H78.5973Z" fill="black"/>
<path d="M114.652 33.5455V2.14722H126.151C128.379 2.14722 130.224 2.51517 131.685 3.25106C133.147 3.97674 134.24 4.96304 134.966 6.20998C135.692 7.44669 136.055 8.84183 136.055 10.3954C136.055 11.7036 135.814 12.8075 135.334 13.7069C134.854 14.5961 134.21 15.3116 133.402 15.8533C132.605 16.3848 131.726 16.7732 130.765 17.0185V17.3251C131.808 17.3762 132.825 17.7135 133.816 18.3369C134.818 18.9502 135.646 19.8241 136.3 20.9586C136.954 22.0931 137.281 23.4729 137.281 25.098C137.281 26.7026 136.903 28.1438 136.147 29.4214C135.401 30.6887 134.246 31.6955 132.682 32.4416C131.118 33.1775 129.12 33.5455 126.687 33.5455H114.652ZM119.39 29.4827H126.227C128.496 29.4827 130.121 29.0432 131.103 28.1642C132.084 27.2852 132.574 26.1865 132.574 24.868C132.574 23.8766 132.324 22.9669 131.823 22.1391C131.322 21.3112 130.607 20.6519 129.677 20.1613C128.757 19.6707 127.663 19.4254 126.396 19.4254H119.39V29.4827ZM119.39 15.7306H125.737C126.8 15.7306 127.755 15.5262 128.604 15.1174C129.462 14.7086 130.142 14.1362 130.643 13.4003C131.154 12.6542 131.409 11.7752 131.409 10.7633C131.409 9.4653 130.954 8.37678 130.045 7.4978C129.135 6.61881 127.74 6.17931 125.859 6.17931H119.39V15.7306Z" fill="black"/>
</g>
<g id="Solutions">
<path d="M150.131 22.7203C150.069 22.1921 149.815 21.782 149.37 21.4901C148.925 21.1982 148.38 21.0522 147.733 21.0522C147.261 21.0522 146.847 21.1287 146.493 21.2816C146.142 21.4345 145.867 21.6447 145.669 21.9123C145.474 22.1799 145.377 22.484 145.377 22.8246C145.377 23.1095 145.445 23.3546 145.58 23.5596C145.719 23.7612 145.897 23.9297 146.112 24.0652C146.327 24.1973 146.553 24.3068 146.79 24.3937C147.026 24.4771 147.243 24.5448 147.441 24.597L148.526 24.8889C148.804 24.9619 149.113 25.0626 149.453 25.1912C149.798 25.3198 150.126 25.4953 150.439 25.7177C150.755 25.9367 151.016 26.2182 151.221 26.5622C151.426 26.9063 151.528 27.3285 151.528 27.8289C151.528 28.4058 151.377 28.9271 151.075 29.3928C150.776 29.8585 150.338 30.2286 149.761 30.5031C149.188 30.7777 148.491 30.9149 147.671 30.9149C146.906 30.9149 146.244 30.7916 145.685 30.5448C145.129 30.2981 144.691 29.954 144.371 29.5127C144.055 29.0713 143.876 28.5587 143.834 27.9749H145.168C145.203 28.378 145.339 28.7116 145.575 28.9758C145.815 29.2364 146.117 29.431 146.482 29.5596C146.85 29.6847 147.247 29.7473 147.671 29.7473C148.164 29.7473 148.607 29.6673 149 29.5075C149.393 29.3441 149.704 29.1182 149.933 28.8298C150.162 28.5379 150.277 28.1973 150.277 27.8081C150.277 27.4536 150.178 27.1652 149.98 26.9427C149.782 26.7203 149.521 26.5396 149.198 26.4006C148.875 26.2616 148.526 26.14 148.15 26.0357L146.837 25.6604C146.003 25.4206 145.342 25.0783 144.856 24.6334C144.369 24.1886 144.126 23.6065 144.126 22.8871C144.126 22.2894 144.288 21.7681 144.611 21.3233C144.937 20.875 145.375 20.5274 145.924 20.2807C146.477 20.0305 147.094 19.9054 147.775 19.9054C148.463 19.9054 149.075 20.0287 149.61 20.2755C150.145 20.5188 150.569 20.8524 150.882 21.2764C151.198 21.7003 151.365 22.1817 151.382 22.7203H150.131Z" fill="#4F4F51"/>
<path d="M156.74 30.8941C156.017 30.8941 155.383 30.7221 154.837 30.378C154.295 30.034 153.871 29.5527 153.565 28.9341C153.263 28.3155 153.112 27.5926 153.112 26.7655C153.112 25.9314 153.263 25.2034 153.565 24.5813C153.871 23.9592 154.295 23.4762 154.837 23.1321C155.383 22.7881 156.017 22.6161 156.74 22.6161C157.463 22.6161 158.095 22.7881 158.637 23.1321C159.183 23.4762 159.607 23.9592 159.909 24.5813C160.215 25.2034 160.368 25.9314 160.368 26.7655C160.368 27.5926 160.215 28.3155 159.909 28.9341C159.607 29.5527 159.183 30.034 158.637 30.378C158.095 30.7221 157.463 30.8941 156.74 30.8941ZM156.74 29.789C157.289 29.789 157.741 29.6482 158.095 29.3667C158.45 29.0852 158.712 28.7151 158.882 28.2564C159.053 27.7977 159.138 27.3007 159.138 26.7655C159.138 26.2303 159.053 25.7316 158.882 25.2694C158.712 24.8072 158.45 24.4336 158.095 24.1486C157.741 23.8637 157.289 23.7212 156.74 23.7212C156.191 23.7212 155.739 23.8637 155.384 24.1486C155.03 24.4336 154.768 24.8072 154.597 25.2694C154.427 25.7316 154.342 26.2303 154.342 26.7655C154.342 27.3007 154.427 27.7977 154.597 28.2564C154.768 28.7151 155.03 29.0852 155.384 29.3667C155.739 29.6482 156.191 29.789 156.74 29.789Z" fill="#4F4F51"/>
<path d="M163.476 20.0513V30.7273H162.246V20.0513H163.476Z" fill="#4F4F51"/>
<path d="M170.775 27.4536V22.7203H172.006V30.7273H170.775V29.3719H170.692C170.504 29.7785 170.212 30.1243 169.816 30.4093C169.42 30.6908 168.92 30.8315 168.315 30.8315C167.814 30.8315 167.37 30.7221 166.98 30.5031C166.591 30.2807 166.285 29.9471 166.063 29.5023C165.841 29.054 165.729 28.4892 165.729 27.8081V22.7203H166.96V27.7247C166.96 28.3085 167.123 28.7742 167.45 29.1217C167.78 29.4692 168.2 29.643 168.711 29.643C169.017 29.643 169.328 29.5648 169.644 29.4084C169.964 29.252 170.231 29.0123 170.447 28.6891C170.666 28.3659 170.775 27.954 170.775 27.4536Z" fill="#4F4F51"/>
<path d="M177.741 22.7203V23.7629H173.592V22.7203H177.741ZM174.801 20.802H176.031V28.4336C176.031 28.7811 176.082 29.0418 176.182 29.2156C176.287 29.3858 176.419 29.5005 176.579 29.5596C176.742 29.6152 176.914 29.643 177.095 29.643C177.23 29.643 177.341 29.6361 177.428 29.6222C177.515 29.6048 177.585 29.5909 177.637 29.5805L177.887 30.6856C177.804 30.7169 177.687 30.7481 177.538 30.7794C177.388 30.8142 177.199 30.8315 176.97 30.8315C176.622 30.8315 176.281 30.7568 175.948 30.6074C175.618 30.458 175.343 30.2303 175.124 29.9245C174.909 29.6187 174.801 29.2329 174.801 28.7672V20.802Z" fill="#4F4F51"/>
<path d="M179.592 30.7273V22.7203H180.822V30.7273H179.592ZM180.217 21.3858C179.977 21.3858 179.771 21.3042 179.597 21.1408C179.427 20.9775 179.341 20.7811 179.341 20.5518C179.341 20.3224 179.427 20.1261 179.597 19.9627C179.771 19.7994 179.977 19.7177 180.217 19.7177C180.457 19.7177 180.662 19.7994 180.832 19.9627C181.006 20.1261 181.093 20.3224 181.093 20.5518C181.093 20.7811 181.006 20.9775 180.832 21.1408C180.662 21.3042 180.457 21.3858 180.217 21.3858Z" fill="#4F4F51"/>
<path d="M186.328 30.8941C185.605 30.8941 184.971 30.7221 184.425 30.378C183.883 30.034 183.459 29.5527 183.153 28.9341C182.851 28.3155 182.7 27.5926 182.7 26.7655C182.7 25.9314 182.851 25.2034 183.153 24.5813C183.459 23.9592 183.883 23.4762 184.425 23.1321C184.971 22.7881 185.605 22.6161 186.328 22.6161C187.051 22.6161 187.683 22.7881 188.225 23.1321C188.771 23.4762 189.195 23.9592 189.497 24.5813C189.803 25.2034 189.956 25.9314 189.956 26.7655C189.956 27.5926 189.803 28.3155 189.497 28.9341C189.195 29.5527 188.771 30.034 188.225 30.378C187.683 30.7221 187.051 30.8941 186.328 30.8941ZM186.328 29.789C186.877 29.789 187.329 29.6482 187.683 29.3667C188.038 29.0852 188.3 28.7151 188.47 28.2564C188.641 27.7977 188.726 27.3007 188.726 26.7655C188.726 26.2303 188.641 25.7316 188.47 25.2694C188.3 24.8072 188.038 24.4336 187.683 24.1486C187.329 23.8637 186.877 23.7212 186.328 23.7212C185.779 23.7212 185.327 23.8637 184.973 24.1486C184.618 24.4336 184.356 24.8072 184.185 25.2694C184.015 25.7316 183.93 26.2303 183.93 26.7655C183.93 27.3007 184.015 27.7977 184.185 28.2564C184.356 28.7151 184.618 29.0852 184.973 29.3667C185.327 29.6482 185.779 29.789 186.328 29.789Z" fill="#4F4F51"/>
<path d="M193.064 25.9106V30.7273H191.834V22.7203H193.023V23.9714H193.127C193.314 23.5648 193.599 23.2381 193.982 22.9914C194.364 22.7412 194.858 22.6161 195.462 22.6161C196.004 22.6161 196.479 22.7273 196.885 22.9497C197.292 23.1686 197.608 23.5023 197.834 23.9506C198.06 24.3954 198.173 24.9584 198.173 25.6395V30.7273H196.943V25.7229C196.943 25.0939 196.779 24.6039 196.453 24.2529C196.126 23.8984 195.678 23.7212 195.108 23.7212C194.715 23.7212 194.364 23.8063 194.055 23.9766C193.749 24.1469 193.507 24.3954 193.33 24.7221C193.153 25.0487 193.064 25.4449 193.064 25.9106Z" fill="#4F4F51"/>
<path d="M206.093 24.5135L204.987 24.8263C204.918 24.6421 204.815 24.4632 204.68 24.2894C204.548 24.1122 204.367 23.9662 204.138 23.8515C203.908 23.7368 203.615 23.6795 203.257 23.6795C202.767 23.6795 202.358 23.7924 202.032 24.0183C201.709 24.2407 201.547 24.524 201.547 24.868C201.547 25.1738 201.658 25.4154 201.881 25.5926C202.103 25.7698 202.45 25.9175 202.923 26.0357L204.112 26.3276C204.828 26.5014 205.361 26.7672 205.712 27.1252C206.063 27.4797 206.238 27.9367 206.238 28.4962C206.238 28.9549 206.106 29.365 205.842 29.7264C205.582 30.0878 205.217 30.3728 204.748 30.5813C204.278 30.7898 203.733 30.8941 203.111 30.8941C202.294 30.8941 201.618 30.7169 201.083 30.3624C200.548 30.0079 200.209 29.4901 200.066 28.8089L201.234 28.517C201.345 28.948 201.556 29.2712 201.865 29.4866C202.178 29.7021 202.586 29.8098 203.09 29.8098C203.663 29.8098 204.119 29.6882 204.456 29.4449C204.796 29.1982 204.967 28.9028 204.967 28.5587C204.967 28.2807 204.869 28.0479 204.675 27.8602C204.48 27.6691 204.181 27.5266 203.778 27.4328L202.444 27.12C201.71 26.9462 201.172 26.6769 200.828 26.312C200.487 25.9436 200.317 25.4831 200.317 24.9306C200.317 24.4788 200.444 24.0791 200.697 23.7316C200.954 23.3841 201.304 23.1113 201.745 22.9132C202.19 22.7151 202.694 22.6161 203.257 22.6161C204.049 22.6161 204.671 22.7898 205.123 23.1374C205.578 23.4849 205.901 23.9436 206.093 24.5135Z" fill="#4F4F51"/>
</g>
</g>
</svg>
