<?xml version="1.0" encoding="UTF-8"?>
<svg xmlns="http://www.w3.org/2000/svg" xmlns:xlink="http://www.w3.org/1999/xlink" viewBox="0 0 23.22 23.22">
  <defs>
    <style>
      .cls-1 {
        fill: #3b3a39;
        opacity: .73;
      }

      .cls-1, .cls-2, .cls-3, .cls-4, .cls-5, .cls-6, .cls-7, .cls-8, .cls-9, .cls-10, .cls-11, .cls-12, .cls-13, .cls-14, .cls-15, .cls-16, .cls-17, .cls-18, .cls-19, .cls-20, .cls-21, .cls-22, .cls-23, .cls-24, .cls-25, .cls-26, .cls-27, .cls-28, .cls-29, .cls-30, .cls-31, .cls-32, .cls-33, .cls-34, .cls-35, .cls-36, .cls-37, .cls-38, .cls-39, .cls-40, .cls-41, .cls-42, .cls-43, .cls-44, .cls-45, .cls-46, .cls-47, .cls-48, .cls-49, .cls-50, .cls-51, .cls-52, .cls-53, .cls-54, .cls-55, .cls-56, .cls-57 {
        stroke-width: 0px;
      }

      .cls-2 {
        fill: #b7b4b4;
        opacity: .2;
      }

      .cls-3 {
        fill: #b1aeae;
        opacity: .22;
      }

      .cls-4 {
        fill: #868383;
        opacity: .37;
      }

      .cls-5 {
        fill: #383636;
        opacity: .75;
      }

      .cls-6 {
        fill: #3f3d3c;
        opacity: .71;
      }

      .cls-7 {
        fill: #8b8888;
        opacity: .35;
      }

      .cls-8 {
        fill: url(#linear-gradient);
      }

      .cls-9 {
        fill: #312f2f;
        opacity: .78;
      }

      .cls-10 {
        fill: #e3e2e1;
        opacity: .06;
      }

      .cls-11 {
        fill: #817e7e;
        opacity: .39;
      }

      .cls-12 {
        fill: #343332;
        opacity: .76;
      }

      .cls-13 {
        fill: #bdbaba;
        opacity: .18;
      }

      .cls-14 {
        fill: #cfcdcd;
        opacity: .12;
      }

      .cls-58 {
        mix-blend-mode: multiply;
      }

      .cls-15 {
        fill: #7c7979;
        opacity: .41;
      }

      .cls-16 {
        fill: #787474;
        opacity: .43;
      }

      .cls-17 {
        fill: #222221;
        opacity: .86;
      }

      .cls-18 {
        fill: #2a2928;
        opacity: .82;
      }

      .cls-19 {
        fill: #6e6b6b;
        opacity: .47;
      }

      .cls-20 {
        fill: #2d2c2c;
        opacity: .8;
      }

      .cls-21 {
        fill: #262525;
        opacity: .84;
      }

      .cls-22 {
        fill: #1a1a1a;
        opacity: .9;
      }

      .cls-23 {
        fill: #161616;
        opacity: .92;
      }

      .cls-24 {
        fill: #737070;
        opacity: .45;
      }

      .cls-25 {
        fill: #c3c0c0;
        opacity: .16;
      }

      .cls-26 {
        fill: #1e1e1e;
        opacity: .88;
      }

      .cls-27 {
        fill: #070707;
        opacity: .98;
      }

      .cls-28 {
        fill: #d6d4d4;
        opacity: .1;
      }

      .cls-29 {
        fill: #6a6767;
        opacity: .49;
      }

      .cls-30 {
        fill: #0d0d0d;
        opacity: .96;
      }

      .cls-31 {
        fill: #121211;
        opacity: .94;
      }

      .cls-32 {
        fill: #a6a3a3;
        opacity: .25;
      }

      .cls-33 {
        fill: #5d5a5a;
        opacity: .55;
      }

      .cls-34 {
        fill: #a09d9d;
        opacity: .27;
      }

      .cls-35 {
        fill: #c9c7c7;
        opacity: .14;
      }

      .cls-36 {
        fill: #666362;
        opacity: .51;
      }

      .cls-37 {
        fill: url(#linear-gradient-2);
      }

      .cls-38 {
        fill: #f3f2f2;
        opacity: .02;
      }

      .cls-39 {
        fill: #615f5e;
        opacity: .53;
      }

      .cls-59 {
        isolation: isolate;
      }

      .cls-40 {
        fill: #524f4e;
        opacity: .61;
      }

      .cls-41 {
        fill: #969292;
        opacity: .31;
      }

      .cls-42 {
        fill: #4e4b4b;
        opacity: .63;
      }

      .cls-43 {
        fill: #eae9e9;
        opacity: .04;
      }

      .cls-44 {
        fill: #aba8a8;
        opacity: .24;
      }

      .cls-45 {
        fill: #595756;
        opacity: .57;
      }

      .cls-46 {
        fill: #908d8d;
        opacity: .33;
      }

      .cls-47 {
        fill: #0a9c49;
      }

      .cls-48 {
        fill: #253370;
      }

      .cls-49 {
        fill: #fedf00;
      }

      .cls-50 {
        fill: #fff;
      }

      .cls-51 {
        fill: #010101;
      }

      .cls-52 {
        fill: #9b9898;
        opacity: .29;
      }

      .cls-53 {
        fill: #555352;
        opacity: .59;
      }

      .cls-54 {
        fill: #dcdbda;
        opacity: .08;
      }

      .cls-55 {
        fill: #464443;
        opacity: .67;
      }

      .cls-56 {
        fill: #434040;
        opacity: .69;
      }

      .cls-57 {
        fill: #4a4747;
        opacity: .65;
      }
    </style>
    <linearGradient id="linear-gradient" x1="-215.96" y1="5.69" x2="-196.87" y2="5.69" gradientTransform="translate(-139.6 -131.65) rotate(-135)" gradientUnits="userSpaceOnUse">
      <stop offset="0" stop-color="#989898"/>
      <stop offset=".1" stop-color="#a8a8a8"/>
      <stop offset=".37" stop-color="#cdcdcd"/>
      <stop offset=".61" stop-color="#e8e8e8"/>
      <stop offset=".83" stop-color="#f9f9f9"/>
      <stop offset="1" stop-color="#fff"/>
    </linearGradient>
    <linearGradient id="linear-gradient-2" x1="-157.42" y1="-44.12" x2="-144.84" y2="-31.53" gradientTransform="translate(-25.23 161.82) rotate(89.2)" xlink:href="#linear-gradient"/>
  </defs>
  <g class="cls-59">
    <g id="Layer_1" data-name="Layer 1">
      <g class="cls-58">
        <path class="cls-38" d="m19.17,3.42c4.86,4.86,5.29,12.35.94,16.69-4.2,4.2-11.33,3.94-16.19-.47-.17-.16-.34-.32-.5-.48C-1.33,14.41-.76,8.22,3.33,3.89c.09-.1.19-.19.28-.29,4.34-4.34,10.7-5.04,15.56-.18Z"/>
        <path class="cls-43" d="m19.09,3.46c4.83,4.83,5.25,12.26.94,16.57-4.17,4.17-11.25,3.91-16.08-.47-.17-.15-.34-.31-.5-.48C-1.26,14.36-.7,8.2,3.36,3.91c.09-.1.18-.19.28-.29,4.31-4.3,10.63-4.98,15.46-.16Z"/>
        <path class="cls-10" d="m19.02,3.5c4.79,4.79,5.21,12.17.93,16.45-4.14,4.14-11.18,3.88-15.97-.48-.17-.15-.34-.31-.5-.48C-1.19,14.31-.65,8.19,3.39,3.93c.09-.1.18-.19.28-.29,4.28-4.27,10.57-4.93,15.36-.14Z"/>
        <path class="cls-54" d="m18.94,3.54c4.76,4.76,5.17,12.08.92,16.33-4.11,4.11-11.1,3.85-15.86-.48-.17-.15-.33-.31-.49-.47C-1.12,14.26-.59,8.17,3.41,3.94c.09-.1.18-.19.28-.28,4.25-4.23,10.5-4.87,15.25-.12Z"/>
        <path class="cls-28" d="m18.87,3.58c4.72,4.72,5.13,11.99.92,16.21-4.08,4.08-11.03,3.83-15.75-.48-.17-.15-.33-.31-.49-.47C-1.05,14.21-.53,8.16,3.44,3.96c.09-.09.18-.19.27-.28,4.22-4.2,10.44-4.82,15.15-.1Z"/>
        <path class="cls-14" d="m18.79,3.62c4.69,4.69,5.09,11.9.91,16.09-4.05,4.05-10.95,3.8-15.64-.48-.17-.15-.33-.31-.49-.47C-.98,14.16-.48,8.14,3.47,3.98c.09-.09.18-.19.27-.28,4.19-4.16,10.37-4.76,15.05-.08Z"/>
        <path class="cls-35" d="m18.72,3.65c4.65,4.65,5.06,11.81.9,15.96-4.02,4.02-10.88,3.77-15.53-.49-.16-.15-.33-.31-.49-.47C-.91,14.11-.42,8.12,3.5,3.99c.09-.09.18-.19.27-.28C7.92-.41,14.07-.99,18.72,3.65Z"/>
        <path class="cls-25" d="m18.64,3.69c4.62,4.62,5.02,11.72.9,15.84-4,4-10.8,3.74-15.42-.49-.16-.15-.32-.31-.48-.47C-.83,14.06-.36,8.11,3.53,4.01c.09-.09.18-.18.27-.27,4.12-4.09,10.24-4.65,14.84-.04Z"/>
        <path class="cls-13" d="m18.56,3.73c4.58,4.58,4.98,11.63.89,15.72-3.97,3.97-10.72,3.71-15.3-.49-.16-.15-.32-.3-.48-.46C-.76,14.01-.31,8.09,3.55,4.03c.09-.09.18-.18.27-.27,4.09-4.05,10.17-4.59,14.74-.02Z"/>
        <path class="cls-2" d="m18.49,3.77c4.54,4.54,4.94,11.54.88,15.6-3.94,3.94-10.65,3.68-15.19-.49-.16-.15-.32-.3-.48-.46C-.69,13.96-.25,8.07,3.58,4.05c.09-.09.18-.18.27-.27,4.06-4.02,10.11-4.54,14.64,0Z"/>
        <path class="cls-3" d="m18.41,3.81c4.51,4.51,4.9,11.45.88,15.48-3.91,3.91-10.57,3.65-15.08-.5-.16-.15-.32-.3-.47-.46C-.62,13.91-.19,8.06,3.61,4.06c.09-.09.17-.18.26-.27,4.03-3.98,10.04-4.48,14.54.01Z"/>
        <path class="cls-44" d="m18.34,3.85c4.47,4.47,4.86,11.36.87,15.36-3.88,3.88-10.5,3.62-14.97-.5-.16-.15-.32-.3-.47-.46C-.55,13.86-.14,8.04,3.64,4.08c.09-.09.17-.18.26-.27,4-3.95,9.98-4.42,14.43.03Z"/>
        <path class="cls-32" d="m18.26,3.88c4.44,4.44,4.83,11.27.86,15.24-3.85,3.85-10.42,3.59-14.86-.5-.16-.15-.31-.3-.47-.45C-.48,13.81-.08,8.02,3.67,4.1c.09-.09.17-.18.26-.26,3.97-3.91,9.91-4.37,14.33.05Z"/>
        <path class="cls-34" d="m18.18,3.92c4.4,4.4,4.79,11.18.86,15.12-3.82,3.82-10.34,3.57-14.75-.5-.16-.15-.31-.3-.46-.45C-.41,13.76-.02,8.01,3.7,4.11c.08-.09.17-.18.26-.26C7.89-.03,13.8-.46,18.18,3.92Z"/>
        <path class="cls-52" d="m18.11,3.96c4.37,4.37,4.75,11.09.85,15-3.8,3.8-10.27,3.54-14.64-.51-.16-.15-.31-.3-.46-.45C-.34,13.71.04,7.99,3.72,4.13c.08-.09.17-.17.26-.26C7.89.03,13.76-.39,18.11,3.96Z"/>
        <path class="cls-41" d="m18.03,4c4.33,4.33,4.71,11.01.84,14.87-3.77,3.77-10.19,3.51-14.53-.51-.16-.14-.31-.29-.46-.45C-.26,13.66.09,7.97,3.75,4.15c.08-.09.17-.17.25-.26C7.88.08,13.72-.31,18.03,4Z"/>
        <path class="cls-46" d="m17.96,4.04c4.3,4.3,4.67,10.92.83,14.75-3.74,3.74-10.12,3.48-14.41-.51-.15-.14-.31-.29-.45-.45C-.19,13.61.15,7.96,3.78,4.16c.08-.09.17-.17.25-.26C7.88.14,13.68-.24,17.96,4.04Z"/>
        <path class="cls-7" d="m17.88,4.08c4.26,4.26,4.63,10.83.83,14.63-3.71,3.71-10.04,3.45-14.3-.52-.15-.14-.3-.29-.45-.44C-.12,13.56.21,7.94,3.81,4.18c.08-.09.17-.17.25-.25C7.87.19,13.64-.16,17.88,4.08Z"/>
        <path class="cls-4" d="m17.8,4.11c4.23,4.23,4.6,10.74.82,14.51-3.68,3.68-9.96,3.42-14.19-.52-.15-.14-.3-.29-.45-.44C-.05,13.51.26,7.93,3.84,4.2c.08-.08.16-.17.25-.25C7.87.25,13.6-.09,17.8,4.11Z"/>
        <path class="cls-11" d="m17.73,4.15c4.19,4.19,4.56,10.65.81,14.39-3.65,3.65-9.89,3.39-14.08-.52-.15-.14-.3-.29-.45-.44C.02,13.46.32,7.91,3.87,4.22c.08-.08.16-.17.25-.25C7.86.3,13.56-.01,17.73,4.15Z"/>
        <path class="cls-15" d="m17.65,4.19c4.16,4.16,4.52,10.56.81,14.27-3.62,3.62-9.81,3.36-13.97-.52-.15-.14-.3-.29-.44-.44C.09,13.41.38,7.89,3.89,4.23c.08-.08.16-.17.25-.25C7.86.35,13.53.06,17.65,4.19Z"/>
        <path class="cls-16" d="m17.58,4.23c4.12,4.12,4.48,10.47.8,14.15-3.6,3.6-9.74,3.33-13.86-.53-.15-.14-.3-.29-.44-.43C.16,13.36.43,7.88,3.92,4.25c.08-.08.16-.16.24-.24,3.69-3.59,9.32-3.87,13.41.23Z"/>
        <path class="cls-24" d="m17.5,4.27c4.09,4.09,4.44,10.38.79,14.03-3.57,3.57-9.66,3.31-13.75-.53-.15-.14-.29-.28-.44-.43C.23,13.31.49,7.86,3.95,4.27c.08-.08.16-.16.24-.24,3.66-3.56,9.26-3.81,13.31.25Z"/>
        <path class="cls-19" d="m17.43,4.31c4.05,4.05,4.4,10.29.79,13.91-3.54,3.54-9.59,3.28-13.64-.53-.15-.14-.29-.28-.43-.43C.31,13.26.55,7.84,3.98,4.28c.08-.08.16-.16.24-.24,3.63-3.52,9.19-3.75,13.21.26Z"/>
        <path class="cls-29" d="m17.35,4.35c4.02,4.02,4.37,10.2.78,13.78-3.51,3.51-9.51,3.25-13.53-.53-.15-.14-.29-.28-.43-.43-3.8-3.96-3.57-9.34-.17-12.87.08-.08.16-.16.24-.24,3.6-3.49,9.12-3.7,13.1.28Z"/>
        <path class="cls-36" d="m17.27,4.38c3.98,3.98,4.33,10.11.77,13.66-3.48,3.48-9.43,3.22-13.41-.54-.15-.14-.29-.28-.43-.43-3.76-3.93-3.54-9.27-.17-12.77.08-.08.16-.16.24-.24,3.57-3.45,9.06-3.64,13,.3Z"/>
        <path class="cls-39" d="m17.2,4.42c3.94,3.94,4.29,10.02.77,13.54-3.45,3.45-9.36,3.19-13.3-.54-.14-.14-.29-.28-.42-.42-3.72-3.89-3.52-9.21-.17-12.67.08-.08.15-.16.23-.23,3.54-3.42,8.99-3.59,12.9.32Z"/>
        <path class="cls-33" d="m17.12,4.46c3.91,3.91,4.25,9.93.76,13.42-3.42,3.42-9.28,3.16-13.19-.54-.14-.14-.28-.28-.42-.42-3.68-3.86-3.49-9.14-.18-12.57.08-.08.15-.16.23-.23,3.5-3.38,8.93-3.53,12.8.34Z"/>
        <path class="cls-45" d="m17.05,4.5c3.87,3.87,4.21,9.84.75,13.3-3.4,3.4-9.21,3.13-13.08-.54-.14-.14-.28-.28-.42-.42-3.64-3.83-3.47-9.07-.18-12.47.08-.08.15-.15.23-.23,3.47-3.35,8.86-3.47,12.7.36Z"/>
        <path class="cls-53" d="m16.97,4.54c3.84,3.84,4.17,9.75.75,13.18-3.37,3.37-9.13,3.1-12.97-.55-.14-.14-.28-.27-.41-.42-3.6-3.79-3.44-9.01-.18-12.37.07-.08.15-.15.23-.23,3.44-3.31,8.8-3.42,12.59.38Z"/>
        <path class="cls-40" d="m16.89,4.58c3.8,3.8,4.13,9.66.74,13.06-3.34,3.34-9.05,3.07-12.86-.55-.14-.13-.28-.27-.41-.41-3.56-3.76-3.42-8.94-.19-12.27.07-.08.15-.15.23-.23,3.41-3.28,8.73-3.36,12.49.4Z"/>
        <path class="cls-42" d="m16.82,4.61c3.77,3.77,4.1,9.57.73,12.94-3.31,3.31-8.98,3.05-12.75-.55-.14-.13-.28-.27-.41-.41-3.52-3.73-3.39-8.87-.19-12.17.07-.08.15-.15.23-.22,3.38-3.24,8.66-3.31,12.39.42Z"/>
        <path class="cls-57" d="m16.74,4.65c3.73,3.73,4.06,9.48.73,12.82-3.28,3.28-8.9,3.02-12.64-.55-.14-.13-.27-.27-.41-.41-3.48-3.69-3.37-8.81-.19-12.07.07-.08.15-.15.22-.22,3.35-3.21,8.6-3.25,12.29.44Z"/>
        <path class="cls-55" d="m16.67,4.69c3.7,3.7,4.02,9.39.72,12.69-3.25,3.25-8.83,2.99-12.52-.56-.14-.13-.27-.27-.4-.41-3.44-3.66-3.34-8.74-.2-11.97.07-.07.15-.15.22-.22,3.32-3.17,8.53-3.19,12.18.46Z"/>
        <path class="cls-56" d="m16.59,4.73c3.66,3.66,3.98,9.3.71,12.57-3.22,3.22-8.75,2.96-12.41-.56-.14-.13-.27-.27-.4-.41-3.4-3.63-3.32-8.67-.2-11.87.07-.07.15-.15.22-.22,3.29-3.14,8.47-3.14,12.08.48Z"/>
        <path class="cls-6" d="m16.51,4.77c3.63,3.63,3.94,9.21.7,12.45-3.2,3.2-8.68,2.93-12.3-.56-.14-.13-.27-.27-.4-.4-3.36-3.59-3.29-8.61-.2-11.77.07-.07.14-.14.22-.21,3.26-3.1,8.4-3.08,11.98.5Z"/>
        <path class="cls-1" d="m16.44,4.81c3.59,3.59,3.9,9.12.7,12.33-3.17,3.17-8.6,2.9-12.19-.57-.13-.13-.27-.26-.39-.4-3.32-3.56-3.27-8.54-.21-11.67.07-.07.14-.14.22-.21,3.22-3.06,8.34-3.03,11.88.51Z"/>
        <path class="cls-5" d="m16.36,4.84c3.56,3.56,3.87,9.03.69,12.21-3.14,3.14-8.52,2.87-12.08-.57-.13-.13-.26-.26-.39-.4-3.28-3.53-3.24-8.47-.21-11.57.07-.07.14-.14.21-.21,3.19-3.03,8.27-2.97,11.77.53Z"/>
        <path class="cls-12" d="m16.29,4.88c3.52,3.52,3.83,8.94.68,12.09-3.11,3.11-8.45,2.84-11.97-.57-.13-.13-.26-.26-.39-.4-3.24-3.5-3.21-8.41-.21-11.47.07-.07.14-.14.21-.21,3.16-2.99,8.2-2.91,11.67.55Z"/>
        <path class="cls-9" d="m16.21,4.92c3.49,3.49,3.79,8.85.68,11.97-3.08,3.08-8.37,2.81-11.86-.57-.13-.13-.26-.26-.38-.39-3.2-3.46-3.19-8.34-.22-11.37.07-.07.14-.14.21-.21,3.13-2.96,8.14-2.86,11.57.57Z"/>
        <path class="cls-20" d="m16.14,4.96c3.45,3.45,3.75,8.76.67,11.85-3.05,3.05-8.3,2.79-11.75-.58-.13-.13-.26-.26-.38-.39-3.16-3.43-3.16-8.27-.22-11.27.07-.07.14-.14.21-.2,3.1-2.92,8.07-2.8,11.47.59Z"/>
        <path class="cls-18" d="m16.06,5c3.42,3.42,3.71,8.68.66,11.73-3.02,3.02-8.22,2.76-11.64-.58-.13-.13-.26-.26-.38-.39-3.12-3.4-3.14-8.21-.22-11.17.07-.07.14-.14.21-.2,3.07-2.89,8.01-2.75,11.37.61Z"/>
        <path class="cls-21" d="m15.98,5.04c3.38,3.38,3.67,8.59.66,11.6-2.99,2.99-8.14,2.73-11.52-.58-.13-.13-.25-.26-.37-.39-3.08-3.36-3.11-8.14-.23-11.07.07-.07.14-.13.21-.2,3.04-2.85,7.94-2.69,11.26.63Z"/>
        <path class="cls-17" d="m15.91,5.07c3.34,3.34,3.64,8.5.65,11.48-2.97,2.97-8.07,2.7-11.41-.58-.13-.13-.25-.25-.37-.39-3.04-3.33-3.09-8.07-.23-10.97.07-.07.13-.13.2-.2,3.01-2.82,7.88-2.63,11.16.65Z"/>
        <path class="cls-26" d="m15.83,5.11c3.31,3.31,3.6,8.41.64,11.36-2.94,2.94-7.99,2.67-11.3-.59-.13-.13-.25-.25-.37-.38-3-3.3-3.06-8.01-.23-10.87.07-.07.13-.13.2-.2,2.98-2.78,7.81-2.58,11.06.67Z"/>
        <path class="cls-22" d="m15.76,5.15c3.27,3.27,3.56,8.32.64,11.24-2.91,2.91-7.92,2.64-11.19-.59-.13-.12-.25-.25-.37-.38-2.96-3.26-3.04-7.94-.24-10.77.07-.07.13-.13.2-.19,2.95-2.75,7.74-2.52,10.96.69Z"/>
        <path class="cls-23" d="m15.68,5.19c3.24,3.24,3.52,8.23.63,11.12-2.88,2.88-7.84,2.61-11.08-.59-.12-.12-.25-.25-.36-.38-2.92-3.23-3.01-7.87-.24-10.67.06-.07.13-.13.2-.19,2.91-2.71,7.68-2.47,10.85.71Z"/>
        <path class="cls-31" d="m15.6,5.23c3.2,3.2,3.48,8.14.62,11-2.85,2.85-7.76,2.58-10.97-.59-.12-.12-.24-.25-.36-.38-2.88-3.2-2.99-7.81-.24-10.57.06-.06.13-.13.2-.19,2.88-2.68,7.61-2.41,10.75.73Z"/>
        <path class="cls-30" d="m15.53,5.27c3.17,3.17,3.44,8.05.62,10.88-2.82,2.82-7.69,2.55-10.86-.6-.12-.12-.24-.25-.36-.37-2.84-3.16-2.96-7.74-.25-10.47.06-.06.13-.13.19-.19,2.85-2.64,7.55-2.36,10.65.75Z"/>
        <path class="cls-27" d="m15.45,5.3c3.13,3.13,3.41,7.96.61,10.76-2.79,2.79-7.61,2.53-10.75-.6-.12-.12-.24-.25-.35-.37-2.8-3.13-2.94-7.67-.25-10.36.06-.06.13-.12.19-.19,2.82-2.61,7.48-2.3,10.55.77Z"/>
        <path class="cls-51" d="m15.38,5.34c3.1,3.1,3.37,7.87.6,10.63-2.77,2.77-7.54,2.5-10.63-.6s-3.37-7.87-.6-10.63,7.54-2.5,10.63.6Z"/>
      </g>
      <g>
        <g>
          <path class="cls-47" d="m19.92,10.29c0,5.26-4.28,9.54-9.54,9.54S.83,15.55.83,10.29,5.11.74,10.38.74s9.54,4.28,9.54,9.54Z"/>
          <polygon class="cls-49" points="10.38 16.09 1.27 10.29 10.38 4.48 19.48 10.29 10.38 16.09"/>
          <g>
            <g>
              <circle class="cls-48" cx="10.38" cy="10.29" r="3.83"/>
              <path class="cls-50" d="m6.87,8.74c-.08.19-.15.38-.2.59.25-.05,4.11-.84,7.36,2.11.06-.19.11-.4.14-.6-3.13-2.69-6.78-2.18-7.3-2.09Z"/>
            </g>
            <path class="cls-47" d="m7.25,8.91s-.02-.04-.03-.06c-.01-.02-.03-.03-.05-.04-.02,0-.04-.01-.07-.01s-.05,0-.07.01c-.02,0-.04.02-.05.04-.01.02-.03.04-.03.06,0,.02-.01.05-.01.08s0,.05.01.07c0,.02.02.04.03.06.01.02.03.03.05.04.02,0,.05.01.07.01s.05,0,.07-.01c.02,0,.04-.02.05-.04.01-.02.03-.04.03-.06,0-.02.01-.05.01-.07s0-.05-.01-.08Zm-.06.13s-.01.03-.02.04c0,.01-.02.02-.03.03-.01,0-.03,0-.04,0s-.03,0-.04,0c-.01,0-.02-.02-.03-.03,0-.01-.02-.02-.02-.04,0-.02,0-.03,0-.05,0-.02,0-.04,0-.05,0-.02.01-.03.02-.04,0-.01.02-.02.03-.03.01,0,.03,0,.04,0s.03,0,.04,0c.01,0,.02.01.03.03,0,.01.02.02.02.04,0,.02,0,.03,0,.05,0,.02,0,.03,0,.05Z"/>
            <path class="cls-47" d="m7.68,9.02s-.02-.03-.03-.04c0-.01-.02-.02-.03-.02h0s.04-.02.05-.03c.01-.02.02-.04.02-.06,0-.02,0-.04-.02-.06,0,0-.01-.01-.02-.02,0,0-.02,0-.03-.01,0,0-.02,0-.03,0-.01,0-.02,0-.04,0h-.16s.02.36.02.36h.07s0-.14,0-.14h.07s.02,0,.02,0c0,0,.01,0,.02.01,0,0,.01,0,.02.02,0,0,0,.01.01.02l.03.09h.07s-.04-.1-.04-.1Zm-.07-.11s-.01,0-.02.01c0,0-.02,0-.03,0h-.08s0-.1,0-.1h.09s.04,0,.05,0c.01,0,.02.02.02.04,0,0,0,.02,0,.03,0,0,0,.01-.01.02Z"/>
            <path class="cls-47" d="m8.13,8.79s-.08-.04-.14-.04h-.12v.36h.12c.12,0,.19-.06.19-.18,0-.06-.02-.1-.05-.13Zm-.05.22s-.02.02-.03.02c-.01,0-.03,0-.06,0h-.05v-.24h.05s.04,0,.06,0,.03.01.03.02c.02.02.02.05.02.09,0,.04,0,.07-.02.09Z"/>
            <path class="cls-47" d="m8.42,9.04v-.09s.18,0,.18,0v-.06s-.18,0-.18,0v-.09s.2,0,.2,0v-.06s-.26,0-.26,0v.36s.27,0,.27,0v-.06s-.2,0-.2,0Z"/>
            <path class="cls-47" d="m9.07,8.78l-.1.27-.07-.28h-.1s-.02.35-.02.35h.06s0-.14,0-.14v-.14s.08.29.08.29h.06s.1-.28.1-.28v.14s-.01.15-.01.15h.06s.02-.35.02-.35h-.1Z"/>
            <path class="cls-47" d="m9.84,8.97v-.05s-.23-.03-.23-.03l-.05.32.24.03v-.05s-.18-.03-.18-.03v-.09s.18.02.18.02v-.05s-.16-.02-.16-.02v-.08s.19.03.19.03Z"/>
            <path class="cls-47" d="m10.58,9.11s0-.02-.01-.03c0,0-.01-.01-.02-.02,0,0-.02-.01-.03-.02-.01,0-.02,0-.04-.01l-.13-.04-.1.34.07.02.04-.13.06.02s.04,0,.06,0c.02,0,.03,0,.05,0,.01,0,.03-.01.04-.03.01-.01.02-.03.02-.05,0-.01,0-.02,0-.03,0-.01,0-.02,0-.03Zm-.07.05s0,.02-.01.02c0,0,0,.01-.01.01,0,0-.01,0-.02,0,0,0-.02,0-.03,0,0,0,0,0-.01,0,0,0,0,0-.01,0h-.05s.03-.12.03-.12h.04s.02.02.03.02c.01,0,.02,0,.02.01,0,0,0,0,0,.01,0,0,0,0,0,.01,0,0,0,.01,0,.02s0,.01,0,.02Z"/>
            <path class="cls-47" d="m11.05,9.25s0-.02-.01-.03c0,0-.01-.01-.02-.02,0,0-.02-.01-.03-.02-.01,0-.02,0-.03-.01l-.15-.05-.11.34.07.02.04-.13.06.02s.01,0,.02.01c0,0,.01,0,.01.02s0,.01,0,.02c0,0,0,.02,0,.02v.09s.07.02.07.02v-.1s0-.04-.01-.05c0-.01-.01-.02-.03-.03h0s.05,0,.06-.01c.02-.01.03-.03.04-.05,0-.02,0-.04,0-.06Zm-.07.04s0,.02-.01.02c0,0-.01,0-.02.01,0,0-.01,0-.02,0,0,0-.02,0-.03,0l-.08-.03.03-.1.08.03s.03.02.04.03c0,.01,0,.03,0,.04Z"/>
            <path class="cls-47" d="m11.5,9.41s-.02-.04-.04-.05c-.02-.02-.04-.03-.06-.04-.02,0-.05-.01-.07-.01-.02,0-.04,0-.06.02-.02.01-.04.02-.05.04-.01.02-.03.04-.04.07,0,.03-.01.05-.01.07s0,.05.01.07c0,.02.02.04.04.05.02.02.04.03.06.04.02,0,.05.01.07.01.02,0,.04,0,.06-.02.02-.01.04-.03.05-.04.01-.02.03-.04.04-.07,0-.03.01-.05.01-.07,0-.02,0-.05-.01-.07Zm-.07.12s-.01.03-.02.05c0,.01-.02.02-.03.03-.01,0-.03.01-.04.01-.01,0-.03,0-.04,0-.01,0-.03-.01-.04-.02,0-.01-.02-.02-.02-.03,0-.01,0-.03,0-.04,0-.02,0-.03.01-.05,0-.02.01-.03.02-.05,0-.01.02-.02.03-.03s.03-.01.04-.01c.01,0,.03,0,.04,0,.01,0,.03.01.04.02,0,.01.02.02.02.04,0,.01,0,.03,0,.04,0,.02,0,.03-.01.05Z"/>
            <path class="cls-47" d="m11.96,9.67s0-.03,0-.05c0-.02,0-.03-.01-.05,0-.01-.02-.03-.03-.04-.01-.01-.03-.02-.05-.03-.02-.01-.05-.02-.07-.02s-.05,0-.07.01c-.02,0-.04.02-.05.04-.02.02-.03.04-.04.06-.01.03-.02.05-.02.08,0,.02,0,.05,0,.07,0,.02.02.04.03.05.02.02.04.03.06.04.02,0,.04.01.06.02.02,0,.04,0,.05,0v.03s.04.02.04.02l.07-.17-.13-.06-.02.05.07.03-.02.04s-.03.01-.05.01c-.02,0-.03,0-.05-.01-.01,0-.03-.01-.04-.02,0-.01-.02-.02-.02-.04,0-.01,0-.03,0-.04,0-.02,0-.03.01-.05,0-.02.02-.03.03-.05.01-.01.02-.02.03-.03s.03-.01.04-.01.03,0,.04,0c.01,0,.02.01.03.02,0,0,.01.01.02.02,0,0,0,.02,0,.03,0,0,0,.02,0,.03l.06.03Z"/>
            <path class="cls-47" d="m12.38,9.78s0-.02-.02-.02c0,0-.01-.01-.02-.02,0,0-.02-.01-.03-.02l-.14-.08-.17.31.06.03.07-.12.06.03s.01,0,.02.01,0,.01.01.02c0,0,0,.01,0,.02,0,0,0,.02,0,.02l-.02.09.06.03v-.1s.02-.04.01-.05c0-.01,0-.03-.02-.04.02,0,.05,0,.07,0s.03-.02.05-.04c.01-.02.02-.04.01-.06,0-.01,0-.02,0-.03Zm-.07.06s-.01.01-.02.02c0,0-.01,0-.02,0,0,0-.01,0-.02,0,0,0-.02,0-.03-.01l-.07-.04.05-.09.08.04s.03.02.03.03c0,.01,0,.03,0,.04Z"/>
            <path class="cls-47" d="m12.8,10.04l.03-.05-.23-.13-.18.31.24.13.03-.05-.18-.1.05-.08.16.09.03-.05-.16-.09.04-.08.17.1Z"/>
            <path class="cls-47" d="m13.2,10.25s-.01-.03-.02-.04c-.01-.01-.03-.03-.04-.04-.02-.01-.03-.02-.05-.02-.02,0-.03,0-.05,0-.01,0-.03,0-.04,0-.01,0-.02.01-.03.03,0,0,0,0,0,.01,0,0,0,0,0,.01,0,.01-.01.03,0,.04,0,.01,0,.02,0,.04,0,.01.01.03.03.04.01.01.02.03.04.04,0,.01.02.02.02.03,0,0,.01.02.01.02,0,0,0,.01,0,.02,0,0,0,.01,0,.02,0,0,0,.01-.02.01,0,0-.01,0-.02,0,0,0-.02,0-.03,0,0,0-.02,0-.03-.01,0,0-.02-.01-.03-.02,0,0-.01-.02-.02-.03,0,0,0-.02,0-.03,0-.01,0-.02,0-.03l-.05-.04s-.03.07-.02.1c.01.03.04.06.08.09.02.01.03.02.05.03.02,0,.03,0,.05,0,.02,0,.03,0,.04-.01.01,0,.02-.02.03-.03,0-.01.01-.02.02-.03,0-.01,0-.02,0-.03,0,0,0-.02,0-.03,0,0-.01-.02-.02-.03,0,0-.01-.02-.02-.03,0,0-.02-.02-.03-.03,0-.01-.02-.02-.02-.03,0,0-.01-.01-.01-.02,0,0,0-.01,0-.02s0-.01,0-.02c0,0,0-.01.01-.01,0,0,.01,0,.02,0s.01,0,.02,0c0,0,.02,0,.03.01.04.03.05.05.03.09l.06.04s.01-.03.02-.05,0-.03,0-.05Z"/>
            <path class="cls-47" d="m13.6,10.51s-.01-.03-.03-.04c-.01-.01-.03-.03-.04-.04-.02-.01-.03-.02-.05-.02-.02,0-.03,0-.05,0-.01,0-.03,0-.04,0-.01,0-.02.01-.03.03,0,0,0,0,0,.01,0,0,0,0,0,.01,0,.01,0,.03,0,.04,0,.01,0,.02,0,.04,0,.01.01.03.03.04.01.01.02.03.04.04,0,.01.02.02.02.03,0,0,.01.02.01.02,0,0,0,.01,0,.02,0,0,0,.01,0,.02,0,0,0,.01-.02.01,0,0-.01,0-.02,0,0,0-.02,0-.03,0,0,0-.02,0-.03-.01-.01,0-.02-.01-.03-.02,0,0-.01-.02-.02-.03,0,0,0-.02,0-.03,0-.01,0-.02,0-.03l-.05-.04s-.03.07-.02.1c0,.03.04.06.08.09.02.01.03.02.05.03.02,0,.03,0,.05,0,.02,0,.03,0,.04-.01.01,0,.03-.02.03-.03,0-.01.01-.02.01-.03,0-.01,0-.02,0-.03,0,0,0-.02,0-.03,0,0-.01-.02-.02-.03,0,0-.01-.02-.02-.03,0,0-.02-.02-.03-.03,0-.01-.02-.02-.02-.03,0,0-.01-.01-.01-.02,0,0,0-.01,0-.02,0,0,0-.01,0-.02,0,0,0-.01.01-.01,0,0,.01,0,.02,0s.01,0,.02,0c0,0,.02,0,.03.01.04.03.05.05.03.09l.05.04s.01-.03.02-.05c0-.01,0-.03,0-.05Z"/>
            <path class="cls-47" d="m13.98,10.83s-.01-.04-.03-.06c-.01-.02-.03-.03-.05-.05-.02-.01-.04-.02-.07-.03-.02,0-.04,0-.07,0-.02,0-.04.02-.06.03-.02.02-.04.03-.05.06-.01.02-.02.05-.03.07,0,.02,0,.05,0,.07,0,.02.01.04.03.06.01.02.03.03.05.05.02.01.04.02.07.03.02,0,.04,0,.07,0,.02,0,.04-.02.06-.03.02-.01.03-.03.05-.06.01-.02.02-.05.03-.07,0-.02,0-.05,0-.07Zm-.07.05s-.01.03-.02.05c0,.02-.02.03-.03.04-.01.01-.03.02-.04.02-.01,0-.03,0-.04,0-.01,0-.03,0-.04-.01-.01,0-.02-.02-.03-.03,0-.01-.01-.03-.01-.04,0-.01,0-.03,0-.04s.01-.03.02-.05c0-.02.02-.03.03-.04.01-.01.03-.02.04-.02.01,0,.03,0,.04,0,.01,0,.03,0,.04.01.01,0,.02.02.03.03,0,.01.01.02.01.04,0,.01,0,.03,0,.04Z"/>
          </g>
        </g>
        <g>
          <polygon class="cls-50" points="11.57 8.93 11.61 9.04 11.72 9.04 11.63 9.11 11.66 9.22 11.57 9.16 11.47 9.22 11.51 9.11 11.42 9.04 11.53 9.04 11.57 8.93"/>
          <polygon class="cls-50" points="11.42 9.96 11.45 10.05 11.54 10.05 11.47 10.1 11.49 10.19 11.42 10.13 11.35 10.19 11.37 10.1 11.3 10.05 11.39 10.05 11.42 9.96"/>
          <polygon class="cls-50" points="10.38 10.76 10.41 10.86 10.51 10.86 10.43 10.92 10.46 11.02 10.38 10.96 10.29 11.02 10.33 10.92 10.24 10.86 10.35 10.86 10.38 10.76"/>
          <polygon class="cls-50" points="8.92 10.29 8.96 10.39 9.06 10.39 8.98 10.46 9.01 10.56 8.92 10.49 8.83 10.56 8.87 10.46 8.78 10.39 8.89 10.39 8.92 10.29"/>
          <polygon class="cls-50" points="7.59 11.04 7.62 11.15 7.74 11.15 7.65 11.22 7.68 11.34 7.59 11.27 7.49 11.34 7.53 11.22 7.43 11.15 7.55 11.15 7.59 11.04"/>
          <polygon class="cls-50" points="7.11 11.4 7.15 11.5 7.25 11.5 7.17 11.56 7.2 11.67 7.11 11.6 7.03 11.67 7.06 11.56 6.97 11.5 7.08 11.5 7.11 11.4"/>
          <polygon class="cls-50" points="8.84 12.16 8.88 12.27 8.99 12.27 8.9 12.34 8.94 12.45 8.84 12.38 8.75 12.45 8.78 12.34 8.69 12.27 8.81 12.27 8.84 12.16"/>
          <polygon class="cls-50" points="8.27 11.85 8.3 11.94 8.39 11.94 8.32 11.99 8.34 12.07 8.27 12.02 8.2 12.07 8.23 11.99 8.16 11.94 8.25 11.94 8.27 11.85"/>
          <polygon class="cls-50" points="8.38 11.46 8.41 11.55 8.51 11.55 8.43 11.61 8.46 11.7 8.38 11.64 8.31 11.7 8.34 11.61 8.26 11.55 8.35 11.55 8.38 11.46"/>
          <polygon class="cls-50" points="7.96 10.88 7.99 10.94 8.05 10.94 8 10.98 8.02 11.05 7.96 11.01 7.91 11.05 7.93 10.98 7.87 10.94 7.94 10.94 7.96 10.88"/>
          <polygon class="cls-50" points="7.25 9.41 7.29 9.53 7.42 9.53 7.31 9.61 7.35 9.73 7.25 9.66 7.14 9.73 7.18 9.61 7.07 9.53 7.21 9.53 7.25 9.41"/>
          <polygon class="cls-50" points="10.82 11.11 10.85 11.21 10.96 11.21 10.87 11.27 10.91 11.37 10.82 11.31 10.74 11.37 10.77 11.27 10.69 11.21 10.79 11.21 10.82 11.11"/>
          <polygon class="cls-50" points="10.38 11.85 10.42 11.96 10.53 11.96 10.44 12.03 10.48 12.14 10.38 12.07 10.29 12.14 10.32 12.03 10.23 11.96 10.34 11.96 10.38 11.85"/>
          <polygon class="cls-50" points="11.53 12.72 11.57 12.82 11.68 12.82 11.59 12.89 11.62 13 11.53 12.93 11.44 13 11.47 12.89 11.38 12.82 11.5 12.82 11.53 12.72"/>
          <polygon class="cls-50" points="13.06 11.48 13.1 11.59 13.21 11.59 13.12 11.65 13.15 11.76 13.06 11.69 12.97 11.76 13.01 11.65 12.92 11.59 13.03 11.59 13.06 11.48"/>
          <polygon class="cls-50" points="13.22 11.84 13.26 11.93 13.35 11.93 13.27 11.99 13.3 12.08 13.22 12.02 13.15 12.08 13.18 11.99 13.1 11.93 13.19 11.93 13.22 11.84"/>
          <polygon class="cls-50" points="13.6 11.54 13.63 11.63 13.72 11.63 13.65 11.68 13.67 11.76 13.6 11.71 13.53 11.76 13.56 11.68 13.48 11.63 13.57 11.63 13.6 11.54"/>
          <polygon class="cls-50" points="12.99 12.14 13.02 12.24 13.12 12.24 13.04 12.29 13.07 12.39 12.99 12.33 12.91 12.39 12.94 12.29 12.86 12.24 12.96 12.24 12.99 12.14"/>
          <polygon class="cls-50" points="12.3 12.63 12.34 12.73 12.44 12.73 12.36 12.79 12.39 12.89 12.3 12.83 12.22 12.89 12.25 12.79 12.16 12.73 12.27 12.73 12.3 12.63"/>
          <polygon class="cls-50" points="11.85 12.4 11.88 12.49 11.97 12.49 11.9 12.54 11.92 12.63 11.85 12.57 11.78 12.63 11.81 12.54 11.73 12.49 11.82 12.49 11.85 12.4"/>
          <polygon class="cls-50" points="12.28 12.28 12.31 12.36 12.38 12.36 12.32 12.4 12.35 12.48 12.28 12.43 12.22 12.48 12.24 12.4 12.18 12.36 12.26 12.36 12.28 12.28"/>
          <polygon class="cls-50" points="12.68 12.36 12.71 12.43 12.79 12.43 12.72 12.48 12.75 12.56 12.68 12.51 12.62 12.56 12.64 12.48 12.58 12.43 12.66 12.43 12.68 12.36"/>
          <polygon class="cls-50" points="12.29 13.06 12.32 13.13 12.4 13.13 12.33 13.18 12.36 13.25 12.29 13.2 12.23 13.25 12.25 13.18 12.19 13.13 12.27 13.13 12.29 13.06"/>
          <polygon class="cls-50" points="11.22 12.31 11.25 12.39 11.34 12.39 11.26 12.45 11.29 12.53 11.22 12.48 11.15 12.53 11.18 12.45 11.1 12.39 11.19 12.39 11.22 12.31"/>
          <polygon class="cls-50" points="10.38 13.23 10.39 13.27 10.44 13.27 10.4 13.3 10.42 13.34 10.38 13.32 10.34 13.34 10.36 13.3 10.32 13.27 10.37 13.27 10.38 13.23"/>
          <polygon class="cls-50" points="9.99 11.12 10.01 11.21 10.11 11.21 10.03 11.26 10.06 11.35 9.99 11.3 9.91 11.35 9.94 11.26 9.87 11.21 9.96 11.21 9.99 11.12"/>
          <polygon class="cls-50" points="10.18 11.42 10.21 11.49 10.27 11.49 10.22 11.53 10.24 11.59 10.18 11.55 10.13 11.59 10.15 11.53 10.1 11.49 10.16 11.49 10.18 11.42"/>
        </g>
      </g>
      <g class="cls-58">
        <circle class="cls-8" cx="10.38" cy="10.28" r="9.54"/>
        <circle class="cls-37" cx="10.38" cy="10.28" r="9.02" transform="translate(-.04 20.52) rotate(-89.2)"/>
      </g>
    </g>
  </g>
</svg>