{
	"asset":{
		"generator":"Khronos glTF Blender I/O v3.6.27",
		"version":"2.0"
	},
	"scene":0,
	"scenes":[
		{
			"name":"Scene",
			"nodes":[
				3
			]
		}
	],
	"nodes":[
		{
			"mesh":0,
			"name":"Automation.002",
			"scale":[
				0.3670283854007721,
				0.3670284152030945,
				0.3670283854007721
			]
		},
		{
			"mesh":1,
			"name":"Automation.003",
			"rotation":[
				0,
				0,
				-0.3826834559440613,
				0.9238795638084412
			],
			"scale":[
				0.2747633755207062,
				0.2747633755207062,
				0.2747633755207062
			],
			"translation":[
				0.5461035370826721,
				-0.5461034774780273,
				0
			]
		},
		{
			"mesh":2,
			"name":"Automation.004",
			"rotation":[
				0.2384864240884781,
				0.665675699710846,
				0.6656758189201355,
				0.2384863942861557
			],
			"scale":[
				0.3670283555984497,
				0.3670283854007721,
				0.3670283555984497
			],
			"translation":[
				0,
				0,
				-0.17112597823143005
			]
		},
		{
			"children":[
				0,
				1,
				2
			],
			"name":"Automation Group",
			"rotation":[
				-0.030420539900660515,
				-0.082034170627594,
				-5.141712608747184e-05,
				0.9961651563644409
			],
			"scale":[
				3.6304690837860107,
				3.630469560623169,
				3.6304683685302734
			],
			"translation":[
				-0.04559050500392914,
				-0.024361278861761093,
				0
			]
		}
	],
	"materials":[
		{
			"doubleSided":true,
			"name":"Blue",
			"pbrMetallicRoughness":{
				"baseColorFactor":[
					1,
					0.4,
					0,
					1
				],
				"metallicFactor":0.4000000059604645,
				"roughnessFactor":0.28999999165534973
			}
		},
		{
			"doubleSided":true,
			"name":"Blue 2",
			"pbrMetallicRoughness":{
				"baseColorFactor":[
			1,
					0.6,
					0,
					1
				],
				"metallicFactor":0.699999988079071,
				"roughnessFactor":0.41999998688697815
			}
		},
		{
			"doubleSided":true,
			"name":"Yellow 1",
			"pbrMetallicRoughness":{
				"baseColorFactor":[
						0.2,
					0.0,
					0.271,
					1
				],
				"metallicFactor":0,
				"roughnessFactor":0.41999998688697815
			}
		}
	],
	"meshes":[
		{
			"name":"Mesh",
			"primitives":[
				{
					"attributes":{
						"POSITION":0,
						"NORMAL":1,
						"TEXCOORD_0":2
					},
					"indices":3,
					"material":0
				}
			]
		},
		{
			"name":"Mesh",
			"primitives":[
				{
					"attributes":{
						"POSITION":4,
						"NORMAL":5,
						"TEXCOORD_0":6
					},
					"indices":7,
					"material":1
				}
			]
		},
		{
			"name":"Mesh",
			"primitives":[
				{
					"attributes":{
						"POSITION":8,
						"NORMAL":9,
						"TEXCOORD_0":10
					},
					"indices":11,
					"material":2
				}
			]
		}
	],
	"accessors":[
		{
			"bufferView":0,
			"componentType":5126,
			"count":15360,
			"max":[
				1.3080211877822876,
				1.3080211877822876,
				0.3879956305027008
			],
			"min":[
				-1.3080211877822876,
				-1.3080211877822876,
				-0.38093650341033936
			],
			"type":"VEC3"
		},
		{
			"bufferView":1,
			"componentType":5126,
			"count":15360,
			"type":"VEC3"
		},
		{
			"bufferView":2,
			"componentType":5126,
			"count":15360,
			"type":"VEC2"
		},
		{
			"bufferView":3,
			"componentType":5123,
			"count":92160,
			"type":"SCALAR"
		},
		{
			"bufferView":4,
			"componentType":5126,
			"count":30720,
			"max":[
				1.2422677278518677,
				1.2422678470611572,
				0.38918083906173706
			],
			"min":[
				-6.863882064819336,
				-1.2422676086425781,
				-0.3797515332698822
			],
			"type":"VEC3"
		},
		{
			"bufferView":5,
			"componentType":5126,
			"count":30720,
			"type":"VEC3"
		},
		{
			"bufferView":6,
			"componentType":5126,
			"count":30720,
			"type":"VEC2"
		},
		{
			"bufferView":7,
			"componentType":5123,
			"count":184320,
			"type":"SCALAR"
		},
		{
			"bufferView":8,
			"componentType":5126,
			"count":7810,
			"max":[
				2.085176706314087,
				0.13691411912441254,
				2.073176622390747
			],
			"min":[
				-2.085176706314087,
				-0.11273160576820374,
				-2.0333192348480225
			],
			"type":"VEC3"
		},
		{
			"bufferView":9,
			"componentType":5126,
			"count":7810,
			"type":"VEC3"
		},
		{
			"bufferView":10,
			"componentType":5126,
			"count":7810,
			"type":"VEC2"
		},
		{
			"bufferView":11,
			"componentType":5123,
			"count":46848,
			"type":"SCALAR"
		}
	],
	"bufferViews":[
		{
			"buffer":0,
			"byteLength":184320,
			"byteOffset":0,
			"target":34962
		},
		{
			"buffer":0,
			"byteLength":184320,
			"byteOffset":184320,
			"target":34962
		},
		{
			"buffer":0,
			"byteLength":122880,
			"byteOffset":368640,
			"target":34962
		},
		{
			"buffer":0,
			"byteLength":184320,
			"byteOffset":491520,
			"target":34963
		},
		{
			"buffer":0,
			"byteLength":368640,
			"byteOffset":675840,
			"target":34962
		},
		{
			"buffer":0,
			"byteLength":368640,
			"byteOffset":1044480,
			"target":34962
		},
		{
			"buffer":0,
			"byteLength":245760,
			"byteOffset":1413120,
			"target":34962
		},
		{
			"buffer":0,
			"byteLength":368640,
			"byteOffset":1658880,
			"target":34963
		},
		{
			"buffer":0,
			"byteLength":93720,
			"byteOffset":2027520,
			"target":34962
		},
		{
			"buffer":0,
			"byteLength":93720,
			"byteOffset":2121240,
			"target":34962
		},
		{
			"buffer":0,
			"byteLength":62480,
			"byteOffset":2214960,
			"target":34962
		},
		{
			"buffer":0,
			"byteLength":93696,
			"byteOffset":2277440,
			"target":34963
		}
	],
	"buffers":[
		{
			"byteLength":2371136,
			"uri":"data:application/octet-stream;base64,"
		}
	]
}
