<svg width="809" height="227" viewBox="0 0 809 227" fill="none" xmlns="http://www.w3.org/2000/svg">
<rect width="809" height="227" fill="white"/>
<path fill-rule="evenodd" clip-rule="evenodd" d="M174.718 104C174.718 112.438 172.453 120.345 168.5 127.143C164.547 120.345 162.282 112.438 162.282 104C162.282 95.5621 164.547 87.6549 168.5 80.8566C172.453 87.6549 174.718 95.5621 174.718 104ZM147.902 62.1412C132.08 69.3953 121.086 85.4098 121.086 104C121.086 122.59 132.08 138.605 147.902 145.859C142.102 148.518 135.653 150 128.859 150C103.532 150 83 129.405 83 104C83 78.5949 103.532 58 128.859 58C135.653 58 142.102 59.482 147.902 62.1412ZM187.543 62.8899C179.594 66.9054 172.968 73.1726 168.5 80.8566C163.743 72.677 156.543 66.1028 147.902 62.1412C153.702 59.482 160.151 58 166.945 58C174.353 58 181.35 59.7616 187.543 62.8899ZM187.543 62.8899C193.736 59.7616 200.734 58 208.141 58C233.468 58 254 78.5949 254 104C254 129.405 233.468 150 208.141 150C200.734 150 193.736 148.238 187.543 145.11C202.526 137.542 212.805 121.975 212.805 104C212.805 86.025 202.526 70.458 187.543 62.8899ZM187.543 145.11C179.594 141.095 172.968 134.827 168.5 127.143C163.743 135.323 156.543 141.897 147.902 145.859C153.702 148.518 160.151 150 166.945 150C174.353 150 181.35 148.238 187.543 145.11Z" fill="#762991"/>
<path d="M387.377 52C388.217 52 388.778 52.2291 389.058 52.6873C389.432 53.1456 389.525 53.7412 389.338 54.4744L360.479 151.938C360.013 153.313 358.985 154 357.397 154H348.852C347.078 154 346.003 153.358 345.63 152.075L323.215 74.1321C323.122 73.6739 322.982 73.4447 322.795 73.4447C322.608 73.4447 322.422 73.7197 322.235 74.2695L299.54 151.938C299.073 153.313 298.046 154 296.458 154H287.773C285.998 154 284.924 153.358 284.55 152.075L256.112 54.4744C255.925 53.7412 255.972 53.1456 256.252 52.6873C256.626 52.2291 257.233 52 258.073 52H267.039C267.786 52 268.347 52.1375 268.72 52.4124C269.094 52.5957 269.327 53.0081 269.421 53.6496L292.255 133.655C292.536 134.663 292.816 135.167 293.096 135.167C293.47 135.075 293.75 134.617 293.937 133.792L317.192 53.5121C317.378 53.1456 317.612 52.8248 317.892 52.5499C318.266 52.1833 318.873 52 319.713 52H327.698C328.539 52 329.099 52.1375 329.379 52.4124C329.753 52.5957 330.033 53.0081 330.22 53.6496L353.195 134.067C353.475 134.892 353.755 135.305 354.035 135.305C354.316 135.213 354.596 134.801 354.876 134.067L377.991 53.5121C378.084 52.9623 378.318 52.5957 378.691 52.4124C379.158 52.1375 379.719 52 380.372 52H387.377Z" fill="black"/>
<path d="M397.032 154C396.472 154 396.052 153.863 395.771 153.588C395.491 153.313 395.351 152.9 395.351 152.35V53.9245C395.351 53.283 395.491 52.8248 395.771 52.5499C396.145 52.1833 396.612 52 397.172 52H429.533C441.955 52 451.527 54.2453 458.252 58.7359C465.07 63.2264 468.478 69.779 468.478 78.3935C468.478 83.8922 466.984 88.566 463.995 92.4151C461.1 96.1725 456.477 99.1509 450.127 101.35C449.753 101.442 449.566 101.625 449.566 101.9C449.566 102.175 449.753 102.358 450.127 102.45C456.851 104.1 461.988 106.941 465.536 110.973C469.179 114.914 471 120.183 471 126.782C471 135.946 467.498 142.774 460.493 147.264C453.489 151.755 443.496 154 430.514 154H397.032ZM429.813 144.377C438.966 144.377 445.784 142.957 450.267 140.116C454.75 137.183 456.991 132.601 456.991 126.369C456.991 121.879 455.87 118.259 453.629 115.509C451.387 112.668 448.352 110.606 444.523 109.323C440.694 108.04 436.304 107.399 431.354 107.399H410.761C409.454 107.399 408.8 107.949 408.8 109.049V142.453C408.8 143.736 409.22 144.377 410.061 144.377H429.813ZM431.354 97.5014C434.156 97.5014 436.958 97.2264 439.76 96.6766C442.562 96.1267 445.083 95.2102 447.325 93.9272C449.66 92.5526 451.481 90.7655 452.788 88.566C454.189 86.2749 454.89 83.3881 454.89 79.9057C454.89 73.6739 452.555 69.0916 447.885 66.159C443.309 63.1348 437.192 61.6226 429.533 61.6226H410.621C409.407 61.6226 408.8 62.1725 408.8 63.2722V95.7143C408.8 96.9057 409.22 97.5014 410.061 97.5014H431.354Z" fill="black"/>
<path d="M495.822 54C496.077 54 496.607 54 497.41 54C498.213 54 499.089 54.0178 500.039 54.0534C500.988 54.0534 501.864 54.0534 502.667 54.0534C503.471 54.0534 504.037 54.0534 504.365 54.0534C509.44 54.1247 513.53 54.9084 516.633 56.4046C519.773 57.9008 522.055 60.0738 523.479 62.9237C524.939 65.7735 525.67 69.3003 525.67 73.5038C525.67 77.9567 524.885 81.6794 523.315 84.6718C521.745 87.6641 519.335 89.9084 516.085 91.4046C512.836 92.9008 508.747 93.6489 503.818 93.6489H495.767C495.256 93.6489 495 93.3639 495 92.7939V54.7481C495 54.4987 495.055 54.3206 495.164 54.2137C495.31 54.0712 495.529 54 495.822 54ZM500.805 57.9008C500.44 57.9008 500.258 58.1501 500.258 58.6489V89.2137C500.258 89.6056 500.477 89.8015 500.915 89.8015H502.996C507.049 89.8015 510.335 89.285 512.854 88.2519C515.373 87.1832 517.217 85.4733 518.386 83.1221C519.591 80.771 520.193 77.6539 520.193 73.771C520.193 69.7099 519.572 66.5394 518.331 64.2595C517.126 61.944 515.264 60.3053 512.745 59.3435C510.262 58.3817 507.104 57.9008 503.27 57.9008H500.805Z" fill="black"/>
<path d="M550.626 92.7405C550.626 93.0967 550.553 93.3461 550.407 93.4886C550.297 93.5954 550.042 93.6489 549.64 93.6489H546.847C546.518 93.6489 546.299 93.5954 546.19 93.4886C546.08 93.3817 546.026 93.1857 546.026 92.9008V66.0763C546.026 65.5776 546.245 65.3282 546.683 65.3282H550.024C550.425 65.3282 550.626 65.5598 550.626 66.0229V92.7405ZM550.845 59.2366C550.845 59.9135 550.516 60.2519 549.859 60.2519H546.683C546.354 60.2519 546.135 60.1807 546.026 60.0382C545.916 59.8601 545.861 59.6285 545.861 59.3435V54.855C545.861 54.285 546.117 54 546.628 54H550.078C550.59 54 550.845 54.2672 550.845 54.8015V59.2366Z" fill="black"/>
<path d="M597.959 64.8473C598.324 64.8473 598.58 64.9186 598.726 65.0611C598.908 65.2036 599 65.4173 599 65.7023V67.5725C599 67.8931 598.908 68.1425 598.726 68.3206C598.58 68.4987 598.306 68.57 597.904 68.5344C597.32 68.5344 596.809 68.57 596.371 68.6412C595.933 68.7125 595.495 68.8372 595.056 69.0153C594.18 69.3359 593.815 69.7455 593.961 70.2443C594.144 70.6361 594.344 71.117 594.564 71.687C594.783 72.2214 594.892 72.9517 594.892 73.8779C594.892 75.4453 594.472 76.888 593.632 78.2061C592.793 79.4885 591.478 80.5216 589.689 81.3053C587.937 82.0891 585.709 82.4809 583.008 82.4809C581.146 82.4809 579.685 82.5878 578.626 82.8015C577.567 83.0153 576.819 83.3003 576.381 83.6565C575.943 84.0127 575.724 84.3868 575.724 84.7786C575.724 85.3486 576.107 85.7583 576.874 86.0076C577.677 86.257 578.955 86.4351 580.707 86.542L587.772 86.916C590.985 87.0941 593.34 87.8422 594.837 89.1603C596.334 90.4784 597.083 92.2061 597.083 94.3435C597.083 97.0153 595.86 99.117 593.413 100.649C591.004 102.216 587.553 103 583.062 103C578.425 103 574.884 102.341 572.438 101.023C570.028 99.7405 568.823 97.888 568.823 95.4656C568.823 94.2188 569.261 93.0967 570.137 92.0992C571.05 91.1018 572.328 90.2112 573.971 89.4275C574.373 89.2494 574.373 89.0534 573.971 88.8397C573.168 88.4835 572.547 88.056 572.109 87.5573C571.671 87.0229 571.452 86.3995 571.452 85.687C571.452 85.1883 571.616 84.6896 571.945 84.1908C572.273 83.6921 572.748 83.229 573.369 82.8015C574.026 82.374 574.811 82 575.724 81.6794C575.943 81.6081 576.052 81.5191 576.052 81.4122C576.052 81.3053 575.961 81.1807 575.778 81.0382C574.172 80.2545 572.985 79.2748 572.218 78.0992C571.452 76.9237 571.068 75.5165 571.068 73.8779C571.068 71.0992 572.145 68.9084 574.3 67.3053C576.454 65.7023 579.503 64.9008 583.446 64.9008C585.344 64.9008 586.951 65.1145 588.265 65.542C589.616 65.9695 590.748 66.5573 591.661 67.3053C591.88 67.4835 592.081 67.5725 592.263 67.5725C592.446 67.5725 592.628 67.4835 592.811 67.3053C593.249 66.9135 593.742 66.5394 594.29 66.1832C594.837 65.7913 595.422 65.4707 596.042 65.2214C596.699 64.972 597.338 64.8473 597.959 64.8473ZM583.008 79.6489C585.563 79.6489 587.462 79.1501 588.703 78.1527C589.945 77.1196 590.565 75.6768 590.565 73.8244C590.565 71.9364 589.945 70.458 588.703 69.3893C587.462 68.285 585.563 67.7328 583.008 67.7328C580.561 67.7328 578.663 68.285 577.312 69.3893C575.997 70.458 575.34 71.9364 575.34 73.8244C575.34 75.6768 575.997 77.1196 577.312 78.1527C578.663 79.1501 580.561 79.6489 583.008 79.6489ZM578.188 90.1756C577.531 90.1399 576.801 90.3359 575.997 90.7634C575.194 91.1552 574.482 91.7074 573.861 92.4198C573.241 93.1323 572.93 93.9695 572.93 94.9313C572.93 96.0356 573.314 96.9796 574.081 97.7634C574.884 98.5827 576.07 99.1883 577.64 99.5802C579.247 100.008 581.219 100.221 583.555 100.221C586.586 100.221 588.886 99.7761 590.456 98.8855C592.026 98.0305 592.811 96.6947 592.811 94.8779C592.811 93.7023 592.391 92.7405 591.551 91.9924C590.748 91.2443 589.342 90.8168 587.334 90.7099L578.188 90.1756Z" fill="black"/>
<path d="M621.868 92.7405C621.868 93.0967 621.795 93.3461 621.649 93.4886C621.54 93.5954 621.284 93.6489 620.883 93.6489H618.089C617.761 93.6489 617.542 93.5954 617.432 93.4886C617.323 93.3817 617.268 93.1857 617.268 92.9008V66.0763C617.268 65.5776 617.487 65.3282 617.925 65.3282H621.266C621.668 65.3282 621.868 65.5598 621.868 66.0229V92.7405ZM622.087 59.2366C622.087 59.9135 621.759 60.2519 621.102 60.2519H617.925C617.597 60.2519 617.378 60.1807 617.268 60.0382C617.158 59.8601 617.104 59.6285 617.104 59.3435V54.855C617.104 54.285 617.359 54 617.87 54H621.321C621.832 54 622.087 54.2672 622.087 54.8015V59.2366Z" fill="black"/>
<path d="M650.635 68.6947C650.343 68.6947 650.197 68.8372 650.197 69.1221V86.0611C650.197 87.7354 650.489 88.8575 651.074 89.4275C651.658 89.9975 652.534 90.2824 653.702 90.2824H657.481C657.664 90.2824 657.81 90.3359 657.919 90.4427C658.029 90.514 658.084 90.6565 658.084 90.8702L658.029 92.687C658.029 93.0433 657.81 93.2748 657.372 93.3817C657.007 93.4529 656.477 93.5064 655.783 93.542C655.126 93.5776 654.469 93.6132 653.812 93.6489C653.191 93.6489 652.662 93.6489 652.224 93.6489C649.923 93.6489 648.244 93.1323 647.185 92.0992C646.126 91.0305 645.597 89.3562 645.597 87.0763V69.229C645.597 68.8728 645.414 68.6947 645.049 68.6947H640.668C640.266 68.6947 640.065 68.4987 640.065 68.1069V65.8626C640.065 65.5064 640.248 65.3282 640.613 65.3282H645.268C645.524 65.3282 645.652 65.1858 645.652 64.9008L646.254 56.4046C646.29 55.9415 646.491 55.7099 646.856 55.7099H649.595C650.033 55.7099 650.252 55.9593 650.252 56.458V64.9008C650.252 65.1858 650.398 65.3282 650.69 65.3282H657.591C657.992 65.3282 658.193 65.4885 658.193 65.8092V68.1069C658.193 68.4987 657.992 68.6947 657.591 68.6947H650.635Z" fill="black"/>
<path d="M693.448 90.229C692.097 91.5114 690.618 92.4911 689.012 93.1679C687.442 93.8448 685.671 94.1832 683.699 94.1832C680.851 94.1832 678.606 93.4707 676.963 92.0458C675.357 90.6209 674.553 88.7506 674.553 86.4351C674.553 84.5471 675.101 82.9262 676.196 81.5725C677.292 80.1832 678.916 79.0967 681.071 78.313C683.225 77.4936 685.872 76.9949 689.012 76.8168L693.284 76.4962C693.503 76.4606 693.704 76.3893 693.886 76.2824C694.069 76.1756 694.16 75.9796 694.16 75.6947V74.2519C694.16 72.3282 693.539 70.8143 692.298 69.7099C691.093 68.57 689.45 68 687.369 68C685.762 68 684.302 68.3562 682.987 69.0687C681.71 69.7812 680.559 70.8499 679.537 72.2748C679.391 72.4529 679.263 72.5776 679.154 72.6489C679.081 72.6845 678.935 72.6667 678.716 72.5954L675.758 71.6336C675.649 71.5623 675.557 71.4733 675.484 71.3664C675.448 71.2595 675.503 71.0636 675.649 70.7786C676.744 68.9262 678.277 67.4656 680.249 66.3969C682.257 65.3282 684.703 64.7939 687.588 64.7939C690.034 64.7939 692.061 65.1679 693.667 65.916C695.31 66.6285 696.533 67.6794 697.336 69.0687C698.176 70.4224 698.596 72.0433 698.596 73.9313V92.8473C698.596 93.1679 698.541 93.3817 698.432 93.4886C698.322 93.5954 698.14 93.6489 697.884 93.6489H695.091C694.835 93.6489 694.653 93.5776 694.543 93.4351C694.434 93.257 694.361 93.0433 694.324 92.7939L694.269 90.3359C694.16 89.8371 693.886 89.8015 693.448 90.229ZM694.16 80.0763C694.16 79.4707 693.904 79.1857 693.393 79.2214L689.779 79.542C688.099 79.6132 686.602 79.827 685.288 80.1832C683.973 80.5038 682.86 80.9313 681.947 81.4656C681.034 82 680.34 82.6412 679.866 83.3893C679.391 84.1018 679.154 84.9389 679.154 85.9008C679.154 87.4682 679.701 88.6972 680.797 89.5878C681.929 90.4427 683.444 90.8702 685.342 90.8702C686.511 90.8702 687.624 90.6743 688.683 90.2824C689.779 89.855 690.728 89.3206 691.531 88.6794C692.371 88.0025 693.01 87.3079 693.448 86.5954C693.923 85.883 694.16 85.1883 694.16 84.5114V80.0763Z" fill="black"/>
<path d="M724 92.7405C724 93.0967 723.927 93.3461 723.781 93.4886C723.635 93.5954 723.379 93.6489 723.014 93.6489H720.166C719.619 93.6489 719.345 93.3995 719.345 92.9008L719.4 54.7481C719.4 54.2494 719.619 54 720.057 54H723.343C723.781 54 724 54.2316 724 54.6947V92.7405Z" fill="black"/>
<path d="M515.692 116.963C514.741 115.851 513.516 114.901 512.017 114.112C510.518 113.322 508.634 112.928 506.367 112.928C503.625 112.928 501.467 113.52 499.895 114.703C498.323 115.887 497.536 117.537 497.536 119.654C497.536 120.227 497.664 120.891 497.92 121.644C498.213 122.398 498.78 123.133 499.621 123.85C500.462 124.568 501.723 125.213 503.405 125.787L511.359 128.37C514.686 129.446 517.045 130.881 518.434 132.675C519.824 134.432 520.519 136.513 520.519 138.916C520.519 141.212 519.934 143.203 518.763 144.888C517.593 146.538 515.93 147.812 513.772 148.709C511.615 149.57 509.018 150 505.983 150C503.789 150 501.76 149.749 499.895 149.247C498.03 148.709 496.366 147.955 494.904 146.987C493.477 145.983 492.252 144.745 491.229 143.274C491.046 143.023 490.973 142.808 491.009 142.629C491.082 142.413 491.265 142.198 491.558 141.983L493.532 140.638C493.898 140.423 494.172 140.315 494.355 140.315C494.574 140.315 494.757 140.423 494.904 140.638C495.891 141.857 496.86 142.88 497.811 143.705C498.761 144.494 499.858 145.086 501.102 145.48C502.381 145.875 503.936 146.072 505.764 146.072C508.653 146.072 510.993 145.57 512.785 144.566C514.577 143.525 515.472 141.822 515.472 139.454C515.472 138.557 515.29 137.75 514.924 137.033C514.558 136.28 513.937 135.598 513.059 134.988C512.181 134.343 510.92 133.715 509.274 133.105L500.937 130.307C498.926 129.626 497.299 128.747 496.055 127.671C494.812 126.594 493.898 125.411 493.313 124.119C492.764 122.828 492.49 121.501 492.49 120.138C492.49 117.878 493.075 115.923 494.245 114.273C495.415 112.587 497.024 111.296 499.072 110.399C501.156 109.466 503.588 109 506.367 109C508.232 109 509.933 109.215 511.468 109.646C513.041 110.076 514.467 110.686 515.747 111.475C517.063 112.264 518.215 113.215 519.202 114.327C519.349 114.47 519.44 114.632 519.477 114.811C519.513 114.99 519.422 115.17 519.202 115.349L516.679 117.286C516.496 117.394 516.35 117.43 516.24 117.394C516.131 117.322 515.948 117.178 515.692 116.963Z" fill="black"/>
<path d="M539.915 150C537.173 150 534.741 149.39 532.62 148.171C530.536 146.915 528.909 145.193 527.738 143.005C526.605 140.781 526.038 138.234 526.038 135.365C526.038 132.388 526.623 129.787 527.793 127.563C529 125.303 530.645 123.545 532.73 122.29C534.814 121.035 537.227 120.407 539.97 120.407C542.749 120.407 545.163 121.052 547.21 122.344C549.295 123.599 550.904 125.357 552.037 127.617C553.207 129.841 553.792 132.406 553.792 135.311C553.792 138.181 553.207 140.727 552.037 142.951C550.867 145.14 549.24 146.861 547.155 148.117C545.108 149.372 542.694 150 539.915 150ZM540.025 146.61C541.926 146.61 543.554 146.162 544.907 145.265C546.26 144.332 547.283 143.023 547.978 141.337C548.71 139.615 549.075 137.571 549.075 135.203C549.075 132.836 548.71 130.809 547.978 129.123C547.247 127.402 546.205 126.074 544.852 125.142C543.499 124.209 541.871 123.743 539.97 123.743C538.105 123.743 536.478 124.209 535.088 125.142C533.699 126.074 532.62 127.402 531.852 129.123C531.121 130.809 530.755 132.836 530.755 135.203C530.755 137.535 531.121 139.562 531.852 141.283C532.62 143.005 533.699 144.332 535.088 145.265C536.478 146.162 538.123 146.61 540.025 146.61Z" fill="black"/>
<path d="M565.236 148.547C565.236 148.906 565.163 149.157 565.017 149.301C564.87 149.408 564.614 149.462 564.249 149.462H561.396C560.848 149.462 560.574 149.211 560.574 148.709L560.628 110.291C560.628 109.789 560.848 109.538 561.287 109.538H564.578C565.017 109.538 565.236 109.771 565.236 110.238V148.547Z" fill="black"/>
<path d="M583.57 146.449C585.142 146.449 586.642 146.036 588.068 145.211C589.531 144.35 590.975 143.203 592.401 141.768V121.752C592.401 121.214 592.694 120.945 593.279 120.945H596.295C596.807 120.945 597.063 121.196 597.063 121.698L596.954 148.762C596.954 149.229 596.753 149.462 596.35 149.462H593.169C592.767 149.462 592.566 149.265 592.566 148.87V145.696C592.566 145.516 592.529 145.409 592.456 145.373C592.383 145.337 592.255 145.391 592.072 145.534C590.061 147.22 588.269 148.386 586.697 149.031C585.161 149.677 583.625 150 582.089 150C580.407 150 578.908 149.659 577.591 148.978C576.275 148.296 575.233 147.346 574.465 146.126C573.697 144.871 573.313 143.418 573.313 141.768V121.806C573.313 121.232 573.587 120.945 574.136 120.945H577.207C577.683 120.945 577.921 121.196 577.921 121.698V140.584C577.921 142.342 578.414 143.759 579.401 144.835C580.425 145.911 581.815 146.449 583.57 146.449Z" fill="black"/>
<path d="M613.14 124.335C612.848 124.335 612.701 124.478 612.701 124.765V141.822C612.701 143.507 612.994 144.637 613.579 145.211C614.164 145.785 615.042 146.072 616.212 146.072H619.996C620.179 146.072 620.325 146.126 620.435 146.234C620.545 146.305 620.6 146.449 620.6 146.664L620.545 148.493C620.545 148.852 620.325 149.085 619.887 149.193C619.521 149.265 618.991 149.318 618.296 149.354C617.638 149.39 616.98 149.426 616.321 149.462C615.7 149.462 615.17 149.462 614.731 149.462C612.427 149.462 610.745 148.942 609.685 147.902C608.624 146.825 608.094 145.14 608.094 142.844V124.873C608.094 124.514 607.911 124.335 607.545 124.335H603.157C602.755 124.335 602.554 124.137 602.554 123.743V121.483C602.554 121.124 602.737 120.945 603.102 120.945H607.765C608.021 120.945 608.149 120.801 608.149 120.514L608.752 111.959C608.789 111.493 608.99 111.26 609.355 111.26H612.098C612.537 111.26 612.756 111.511 612.756 112.013V120.514C612.756 120.801 612.902 120.945 613.195 120.945H620.106C620.508 120.945 620.709 121.106 620.709 121.429V123.743C620.709 124.137 620.508 124.335 620.106 124.335H613.14Z" fill="black"/>
<path d="M631.28 148.547C631.28 148.906 631.207 149.157 631.061 149.301C630.951 149.408 630.695 149.462 630.293 149.462H627.495C627.166 149.462 626.947 149.408 626.837 149.301C626.728 149.193 626.673 148.996 626.673 148.709V121.698C626.673 121.196 626.892 120.945 627.331 120.945H630.677C631.079 120.945 631.28 121.178 631.28 121.644V148.547ZM631.5 114.811C631.5 115.493 631.17 115.833 630.512 115.833H627.331C627.002 115.833 626.782 115.762 626.673 115.618C626.563 115.439 626.508 115.206 626.508 114.919V110.399C626.508 109.825 626.764 109.538 627.276 109.538H630.732C631.244 109.538 631.5 109.807 631.5 110.345V114.811Z" fill="black"/>
<path d="M651.973 150C649.23 150 646.799 149.39 644.678 148.171C642.593 146.915 640.966 145.193 639.796 143.005C638.663 140.781 638.096 138.234 638.096 135.365C638.096 132.388 638.681 129.787 639.851 127.563C641.058 125.303 642.703 123.545 644.787 122.29C646.872 121.035 649.285 120.407 652.028 120.407C654.807 120.407 657.22 121.052 659.268 122.344C661.352 123.599 662.961 125.357 664.095 127.617C665.265 129.841 665.85 132.406 665.85 135.311C665.85 138.181 665.265 140.727 664.095 142.951C662.925 145.14 661.297 146.861 659.213 148.117C657.165 149.372 654.752 150 651.973 150ZM652.083 146.61C653.984 146.61 655.611 146.162 656.964 145.265C658.317 144.332 659.341 143.023 660.036 141.337C660.767 139.615 661.133 137.571 661.133 135.203C661.133 132.836 660.767 130.809 660.036 129.123C659.305 127.402 658.262 126.074 656.909 125.142C655.556 124.209 653.929 123.743 652.028 123.743C650.163 123.743 648.536 124.209 647.146 125.142C645.757 126.074 644.678 127.402 643.91 129.123C643.179 130.809 642.813 132.836 642.813 135.203C642.813 137.535 643.179 139.562 643.91 141.283C644.678 143.005 645.757 144.332 647.146 145.265C648.536 146.162 650.181 146.61 652.083 146.61Z" fill="black"/>
<path d="M673.399 149.462C672.887 149.462 672.631 149.229 672.631 148.762V121.644C672.631 121.178 672.832 120.945 673.235 120.945H676.526C676.928 120.945 677.129 121.142 677.129 121.537V124.657C677.129 124.837 677.166 124.944 677.239 124.98C677.312 125.016 677.44 124.962 677.623 124.819C678.829 123.886 679.945 123.097 680.969 122.451C682.029 121.77 683.108 121.268 684.205 120.945C685.302 120.586 686.472 120.407 687.715 120.407C690.567 120.407 692.743 121.16 694.242 122.667C695.778 124.173 696.546 126.128 696.546 128.531V148.601C696.546 149.175 696.272 149.462 695.723 149.462H692.652C692.396 149.462 692.213 149.408 692.103 149.301C691.994 149.157 691.939 148.978 691.939 148.762V129.554C691.939 127.796 691.482 126.433 690.567 125.465C689.653 124.46 688.209 123.958 686.234 123.958C685.174 123.958 684.168 124.137 683.218 124.496C682.303 124.819 681.371 125.303 680.42 125.949C679.469 126.559 678.409 127.348 677.239 128.316V148.655C677.239 149.193 676.965 149.462 676.416 149.462H673.399Z" fill="black"/>
<path d="M722.106 127.24C721.374 126.164 720.35 125.285 719.034 124.604C717.718 123.922 716.145 123.581 714.317 123.581C712.342 123.581 710.697 123.994 709.38 124.819C708.1 125.644 707.461 126.756 707.461 128.155C707.461 128.908 707.753 129.626 708.338 130.307C708.923 130.953 710.112 131.563 711.903 132.136L718.869 134.181C721.393 134.863 723.203 135.849 724.3 137.14C725.433 138.432 726 139.92 726 141.606C726 143.292 725.488 144.763 724.464 146.018C723.44 147.274 722.032 148.26 720.241 148.978C718.449 149.659 716.419 150 714.152 150C711.264 150 708.74 149.444 706.583 148.332C704.425 147.184 702.89 145.767 701.975 144.081C701.866 143.902 701.811 143.741 701.811 143.597C701.811 143.454 701.902 143.328 702.085 143.22L704.224 142.037C704.407 141.929 704.572 141.893 704.718 141.929C704.864 141.929 704.974 141.983 705.047 142.091C705.669 143.023 706.382 143.83 707.186 144.512C708.027 145.193 709.015 145.731 710.148 146.126C711.318 146.521 712.671 146.718 714.207 146.718C715.597 146.682 716.858 146.485 717.992 146.126C719.125 145.767 720.021 145.247 720.68 144.566C721.338 143.848 721.667 143.023 721.667 142.091C721.667 141.122 721.265 140.297 720.46 139.615C719.656 138.898 718.266 138.27 716.291 137.732L710.642 136.172C707.899 135.455 705.961 134.486 704.828 133.266C703.731 132.047 703.164 130.612 703.127 128.962C703.127 127.24 703.603 125.752 704.553 124.496C705.504 123.205 706.821 122.2 708.503 121.483C710.221 120.766 712.178 120.407 714.372 120.407C716.822 120.407 718.997 120.873 720.899 121.806C722.837 122.703 724.3 123.904 725.287 125.411C725.397 125.554 725.451 125.698 725.451 125.841C725.451 125.949 725.378 126.056 725.232 126.164L722.928 127.402C722.782 127.473 722.636 127.509 722.49 127.509C722.38 127.473 722.252 127.384 722.106 127.24Z" fill="black"/>
</svg>
